<?xml version="1.0" encoding="utf-8"?>
<!-- Generator: Adobe Illustrator 16.0.0, SVG Export Plug-In . SVG Version: 6.00 Build 0)  -->
<!DOCTYPE svg PUBLIC "-//W3C//DTD SVG 1.1//EN" "http://www.w3.org/Graphics/SVG/1.1/DTD/svg11.dtd">
<svg version="1.1" id="Buffalo_1_" xmlns="http://www.w3.org/2000/svg" xmlns:xlink="http://www.w3.org/1999/xlink" x="0px" y="0px"
	 width="512px" height="512px" viewBox="0 0 512 512" enable-background="new 0 0 512 512" xml:space="preserve">
<circle id="Background_7_" fill="#1BA555" cx="256" cy="256" r="256"/>
<path id="Shadow" opacity="0.1" d="M512,256c0-23.885-3.282-47.001-9.4-68.935L393.815,78.281v71.816h-72.083l-17.409-17.41
	l3.992,70.478h-19.644L151.084,65.578l-29.275,39.936v51h29.275v333.063C183.103,503.981,218.614,512,256,512
	C397.386,512,512,397.386,512,256z"/>
<g id="Buffalo">
	<path fill="#553B2A" d="M170.653,190.686c0,0-24.522-31.322-43.987-31.322c-14.196,0-75.581,0-107.779,0
		C6.722,189.184,0,221.805,0,256c0,130.469,97.601,238.137,223.771,253.986l52.131-52.132L170.653,190.686z"/>
	<path opacity="0.1" d="M170.653,190.686c0,0-24.522-31.322-43.987-31.322c-14.196,0-75.581,0-107.779,0
		C6.722,189.184,0,221.805,0,256c0,130.469,97.601,238.137,223.771,253.986l52.131-52.132L170.653,190.686z"/>
	<polygon opacity="0.1" points="83.892,229.615 209.668,355.392 209.668,229.615 	"/>
	<path opacity="0.1" d="M258.533,413.766l-84.747,84.746c16.009,5.426,32.73,9.307,49.984,11.475l52.131-52.132L258.533,413.766z"/>
	<path fill="#553B2A" d="M402.228,167.786c-19.847,0-31.679,17.938-31.679,17.938l-52.287-27.098l-13.938-25.938
		c0,0-14.114-8.251-44.075-8.251c-29.96,0-44.074,8.251-44.074,8.251l-13.938,25.938l-52.288,27.098
		c0,0-11.832-17.938-31.678-17.938c-49.616,0-56.486,24.426-56.486,24.426c0,17.557,32.06,52.192,51.143,58.299
		c9.461,3.027,23.613-3.096,35.479-3.721l17.048,3.578c0,0,6.727,76.952,9.303,92.982c2.543,15.826,24.808,60.685,35.113,93.126
		c10.305,32.441,50.379,28.243,50.379,28.243s40.075,4.198,50.38-28.243s32.569-77.3,35.113-93.126
		c2.576-16.03,9.303-92.982,9.303-92.982l17.048-3.578c11.865,0.625,26.018,6.749,35.479,3.721
		c19.083-6.107,51.143-40.743,51.143-58.299C458.713,192.212,451.844,167.786,402.228,167.786z"/>
	<g>
		<circle fill="#231F20" cx="181.531" cy="261.675" r="10.877"/>
		<circle fill="#231F20" cx="338.966" cy="261.675" r="10.877"/>
	</g>
	<g>
		<path fill="#231F20" d="M220.757,388.196c5.725,0,2.481,9.923,5.725,13.167s13.358,8.588,13.358,16.984
			s-2.29,11.736-13.931,11.736C214.269,430.084,215.986,388.196,220.757,388.196z"/>
		<path fill="#231F20" d="M299.74,388.196c-5.726,0-2.481,9.923-5.726,13.167s-13.357,8.588-13.357,16.984
			s2.29,11.736,13.931,11.736S304.511,388.196,299.74,388.196z"/>
	</g>
	<g>
		<path opacity="0.3" fill="#FFFFFF" d="M127.683,212.44c-5.438-8.874-28.892-6.584-28.892-6.584l31.182,23.759
			C129.973,229.615,133.121,221.314,127.683,212.44z"/>
		<path opacity="0.3" fill="#FFFFFF" d="M392.814,212.44c5.438-8.874,28.892-6.584,28.892-6.584l-31.182,23.759
			C390.524,229.615,387.376,221.314,392.814,212.44z"/>
	</g>
	<g>
		<path fill="#C2B09D" d="M210.094,135.264v-0.008c0,0-0.021,0.002-0.058,0.005c-0.031,0-0.061-0.005-0.092-0.005
			c-0.924,0-1.825,0.096-2.712,0.235c-13.173,1.053-67.628,5.061-72.564-0.235c-5.62-6.029-5.518-40.55,9.794-56.975
			c15.312-16.425,2.687-22.062-17.879,0c-20.567,22.063-28.642,69.437-7.888,83.488c20.771,14.063,91.25,13.456,91.25,13.456
			c10.289,0,18.629-8.947,18.629-19.984C228.573,144.258,220.313,135.352,210.094,135.264z"/>
		<path fill="#C2B09D" d="M310.403,135.264v-0.008c0,0,0.021,0.002,0.058,0.005c0.031,0,0.062-0.005,0.092-0.005
			c0.925,0,1.825,0.096,2.713,0.235c13.173,1.053,67.628,5.061,72.564-0.235c5.62-6.029,5.518-40.55-9.794-56.975
			c-15.313-16.425-2.688-22.062,17.879,0c20.566,22.063,28.642,69.437,7.888,83.488c-20.77,14.063-91.25,13.456-91.25,13.456
			c-10.288,0-18.629-8.947-18.629-19.984C291.924,144.258,300.185,135.352,310.403,135.264z"/>
	</g>
	<g>
		<path opacity="0.1" d="M121.81,163.588c23.89,12.189,88.134,11.637,88.134,11.637c7.051,0,13.184-4.204,16.348-10.4h-30.216
			C184.037,165.62,143.512,165.818,121.81,163.588z"/>
		<path opacity="0.1" d="M310.553,175.225c0,0,64.245,0.552,88.135-11.637c-21.702,2.23-62.227,2.032-74.267,1.237h-30.216
			C297.369,171.021,303.503,175.225,310.553,175.225z"/>
	</g>
</g>
</svg>
