<?xml version="1.0" encoding="utf-8"?>
<!-- Generator: Adobe Illustrator 16.0.0, SVG Export Plug-In . SVG Version: 6.00 Build 0)  -->
<!DOCTYPE svg PUBLIC "-//W3C//DTD SVG 1.1//EN" "http://www.w3.org/Graphics/SVG/1.1/DTD/svg11.dtd">
<svg version="1.1" id="Horse_1_" xmlns="http://www.w3.org/2000/svg" xmlns:xlink="http://www.w3.org/1999/xlink" x="0px" y="0px"
	 width="512px" height="512px" viewBox="0 0 512 512" enable-background="new 0 0 512 512" xml:space="preserve">
<circle id="Background_32_" fill="#1BA555" cx="256" cy="256" r="256"/>
<path id="Shadow" opacity="0.1" d="M255.936,511.579c138.521,0,251.327-110.021,255.843-247.444L359.821,112.178l-26.805,26.805
	l-18.064-18.065l-3.907,4.014l-17.967-17.967l0.945,35.457L63.907,378.855v45.998C110.817,478.027,179.453,511.579,255.936,511.579z
	"/>
<g id="Horse">
	<path fill="#B89065" d="M261.495,104.526l-20.42,17.416v21.006h81.223c0,0-2.369-23.455-13.193-26.227
		C298.281,113.949,261.495,104.526,261.495,104.526z"/>
	<path opacity="0.7" d="M261.495,104.526l-20.42,17.416v21.006h81.223c0,0-2.369-23.455-13.193-26.227
		C298.281,113.949,261.495,104.526,261.495,104.526z"/>
	<path fill="#B89065" d="M277.485,353.009l32.209,32.209l10.788,21.661c0,0,10.765,8.447,19.32,8.447
		c24.508,0,41.313-16.104,41.313-39.911l-18.205-48.104V197.564l-15.699-29.114c0,0,30.086-41.923,5.896-66.113l-30.81,40.611
		h-30.707c5.31-14.013,8.086-32.245-4.981-45.312l-30.125,39.71l-15.409-15.405L5.602,309.309
		c19.418,90.904,87.079,163.928,174.906,190.969l78.772-147.269H277.485z"/>
	<circle fill="#231F20" cx="268.702" cy="239.576" r="9.4"/>
	<path opacity="0.1" d="M253.87,315.492l-24.649-88.032l-2.606,90.639l-88.224,164.94c13.393,6.936,27.473,12.729,42.118,17.238
		l78.772-147.269h18.205l0,0l32.209,32.209l-2.923-16.546L253.87,315.492z"/>
	<path opacity="0.1" d="M247.06,340.788L164.671,494.82c5.2,1.984,10.48,3.808,15.837,5.457l78.772-147.269h18.205l-12.221-12.221
		H247.06z"/>
	<path opacity="0.7" d="M241.324,122.191l-0.249-0.249L5.602,309.309c4.16,19.473,10.539,38.122,18.85,55.677l232.027-227.639
		L241.324,122.191z"/>
	<polygon opacity="0.7" points="322.298,142.948 291.591,142.948 320.298,162.077 	"/>
	<path opacity="0.8" d="M339.803,415.326c24.508,0,41.313-16.104,41.313-39.911l-9.126-24.113H327.16l-20.389,17.37l2.923,16.546
		l10.788,21.661C320.482,406.879,331.247,415.326,339.803,415.326z"/>
	<circle cx="333.406" cy="371.962" r="6.894"/>
	<path opacity="0.6" d="M353.107,102.337c0,0,9.362,21.88-13.575,51.842l7.679,14.271
		C347.211,168.45,377.297,126.527,353.107,102.337z"/>
	<path opacity="0.6" d="M286.597,97.637c0,0,9.362,21.88-13.575,51.842l7.68,14.271C280.701,163.75,310.787,121.827,286.597,97.637z
		"/>
	<polygon opacity="0.7" fill="#FFFFFF" points="339.532,197.564 333.406,214.509 333.406,248.588 322.298,214.509 309.278,197.564 
		320.298,173.566 	"/>
</g>
</svg>
