<?xml version="1.0" encoding="UTF-8"?>
<!DOCTYPE svg PUBLIC "-//W3C//DTD SVG 1.1//EN" "http://www.w3.org/Graphics/SVG/1.1/DTD/svg11.dtd">
<!-- Creator: CorelDRAW -->
<svg xmlns="http://www.w3.org/2000/svg" xml:space="preserve" width="6.82666in" height="6.82666in" style="shape-rendering:geometricPrecision; text-rendering:geometricPrecision; image-rendering:optimizeQuality; fill-rule:evenodd; clip-rule:evenodd"
viewBox="0 0 6.82666 6.82666"
 xmlns:xlink="http://www.w3.org/1999/xlink">
 <defs>
  <style type="text/css">
   <![CDATA[
    .fil2 {fill:none}
    .fil4 {fill:#4D3C2E}
    .fil3 {fill:#926A4C}
    .fil5 {fill:#C49A70}
    .fil1 {fill:#F48FB1}
    .fil0 {fill:#F8BBD0}
   ]]>
  </style>
   <clipPath id="id0">
    <path d="M3.41333 -3.93701e-006c1.88513,0 3.41333,1.5282 3.41333,3.41333 0,1.88513 -1.5282,3.41333 -3.41333,3.41333 -1.88513,0 -3.41333,-1.5282 -3.41333,-3.41333 0,-1.88513 1.5282,-3.41333 3.41333,-3.41333z"/>
   </clipPath>
 </defs>
 <g id="Layer_x0020_1">
  <metadata id="CorelCorpID_0Corel-Layer"/>
  <path class="fil0" d="M3.41333 -3.93701e-006c1.88513,0 3.41333,1.5282 3.41333,3.41333 0,1.88513 -1.5282,3.41333 -3.41333,3.41333 -1.88513,0 -3.41333,-1.5282 -3.41333,-3.41333 0,-1.88513 1.5282,-3.41333 3.41333,-3.41333z"/>
  <g style="clip-path:url(#id0)">
   <g id="_637661752">
    <g>
     <polygon id="_4627595761" class="fil1" points="5.20151,2.50967 8.98778,6.29594 8.99779,6.30819 9.00715,6.32076 9.01585,6.33366 9.02389,6.34688 9.03125,6.36042 9.03794,6.37428 9.04394,6.38844 9.04926,6.40291 9.05389,6.41769 5.26762,2.63142 5.263,2.61664 5.25768,2.60217 5.25167,2.588 5.24498,2.57415 5.23762,2.56061 5.22958,2.54739 5.22088,2.53449 5.21152,2.52191 "/>
     <polygon id="_462759888" class="fil1" points="5.26762,2.63142 9.05389,6.41769 9.0571,6.42983 9.05981,6.44197 9.06203,6.45409 9.06376,6.46617 9.06504,6.4782 9.06585,6.49017 9.06623,6.50206 9.06619,6.51387 9.06572,6.52557 9.06487,6.53715 9.06362,6.5486 9.062,6.55991 9.06003,6.57106 9.05771,6.58204 9.05505,6.59283 9.05208,6.60343 9.0488,6.61381 9.04522,6.62397 9.04137,6.63389 9.03725,6.64356 9.03288,6.65295 9.02827,6.66207 9.02343,6.67089 9.01838,6.67941 9.01313,6.6876 9.00769,6.69546 9.00208,6.70297 8.99631,6.71012 8.99039,6.71689 8.98435,6.72328 8.97818,6.72926 8.9719,6.73482 5.18563,2.94855 5.19191,2.94298 5.19808,2.937 5.20413,2.93062 5.21004,2.92385 5.21581,2.9167 5.22143,2.90919 5.22686,2.90133 5.23211,2.89313 5.23716,2.88462 5.242,2.8758 5.24661,2.86668 5.25098,2.85728 5.2551,2.84762 5.25896,2.8377 5.26253,2.82754 5.26581,2.81716 5.26878,2.80656 5.27144,2.79577 5.27376,2.78479 5.27574,2.77364 5.27735,2.76233 5.2786,2.75088 5.27946,2.7393 5.27992,2.72759 5.27996,2.71579 5.27959,2.7039 5.27877,2.69193 5.2775,2.6799 5.27576,2.66781 5.27354,2.6557 5.27083,2.64356 "/>
     <polygon id="_462761304" class="fil1" points="5.18563,2.94855 8.9719,6.73482 8.9687,6.73775 8.96578,6.74089 8.96314,6.74422 8.9608,6.74773 8.95874,6.75138 8.95699,6.75517 8.95554,6.75908 8.9544,6.76308 8.95357,6.76716 8.95306,6.77129 8.95287,6.77546 8.95301,6.77966 8.95348,6.78385 8.95428,6.78802 8.95543,6.79216 8.95691,6.79623 5.17065,3.00996 5.16916,3.00589 5.16802,3.00175 5.16721,2.99758 5.16674,2.99339 5.16661,2.98919 5.1668,2.98502 5.16731,2.98089 5.16813,2.97681 5.16927,2.97281 5.17072,2.9689 5.17247,2.96511 5.17453,2.96146 5.17687,2.95795 5.17951,2.95462 5.18243,2.95148 "/>
     <polygon id="_462761328" class="fil1" points="5.17065,3.00996 8.95691,6.79623 8.95711,6.79672 8.95758,6.79794 8.9583,6.79986 8.95923,6.80244 8.96035,6.80565 8.96163,6.80946 8.96306,6.81385 8.96459,6.81878 8.9662,6.82422 8.96787,6.83014 8.96957,6.83651 8.97127,6.8433 8.97294,6.85048 8.97456,6.85801 8.97609,6.86587 8.97752,6.87402 8.97882,6.88244 8.97996,6.89109 8.9809,6.89995 8.98163,6.90898 8.98212,6.91815 8.98234,6.92743 8.98226,6.9368 8.98186,6.94621 8.9811,6.95565 8.97997,6.96506 8.97843,6.97444 8.97646,6.98375 8.97404,6.99295 8.97112,7.00202 8.96769,7.01092 8.96372,7.01962 5.17746,3.23335 5.18143,3.22465 5.18485,3.21574 5.18777,3.20668 5.1902,3.19748 5.19217,3.18817 5.1937,3.17879 5.19483,3.16937 5.19559,3.15994 5.19599,3.15053 5.19607,3.14116 5.19585,3.13188 5.19537,3.12271 5.19463,3.11368 5.19369,3.10482 5.19256,3.09617 5.19126,3.08775 5.18983,3.07959 5.18829,3.07174 5.18667,3.0642 5.185,3.05703 5.1833,3.05024 5.1816,3.04387 5.17994,3.03795 5.17832,3.03251 5.17679,3.02758 5.17537,3.02319 5.17408,3.01938 5.17296,3.01617 5.17203,3.01359 5.17131,3.01167 5.17084,3.01045 "/>
     <polygon id="_462761544" class="fil1" points="5.17746,3.23335 8.96372,7.01962 8.95959,7.02741 8.95504,7.03487 8.95007,7.042 8.94466,7.04881 8.93881,7.0553 8.93254,7.06146 8.92582,7.06732 8.91866,7.07286 8.91106,7.07809 8.903,7.083 8.89449,7.08761 8.88553,7.09192 8.87611,7.09592 8.86622,7.09962 8.85587,7.10302 8.84506,7.10613 5.05879,3.31986 5.06961,3.31675 5.07996,3.31335 5.08984,3.30965 5.09926,3.30565 5.10822,3.30134 5.11673,3.29673 5.12479,3.29181 5.13239,3.28659 5.13955,3.28105 5.14627,3.27519 5.15255,3.26902 5.15839,3.26254 5.1638,3.25573 5.16878,3.24859 5.17333,3.24114 "/>
     <polygon id="_462761400" class="fil1" points="5.05879,3.31986 8.84506,7.10613 8.84117,7.10734 8.83741,7.10883 8.8338,7.11058 8.83036,7.11258 8.82709,7.11483 8.824,7.1173 8.82111,7.11998 8.81843,7.12287 8.81596,7.12595 8.81373,7.1292 8.81174,7.13262 8.80999,7.13619 8.80851,7.1399 8.80731,7.14374 8.80639,7.14769 8.80577,7.15174 5.0195,3.36546 5.02012,3.36141 5.02104,3.35746 5.02224,3.35363 5.02372,3.34992 5.02547,3.34635 5.02746,3.34293 5.0297,3.33968 5.03217,3.3366 5.03485,3.33371 5.03774,3.33103 5.04082,3.32856 5.04409,3.32631 5.04754,3.32431 5.05114,3.32256 5.0549,3.32107 "/>
     <polygon id="_462761184" class="fil1" points="5.0195,3.36546 8.80577,7.15174 8.80571,7.15219 8.80554,7.1533 8.80526,7.15503 8.80484,7.15735 8.80428,7.16023 8.80357,7.16364 8.80269,7.16754 8.80164,7.17189 8.8004,7.17668 8.79896,7.18185 8.79731,7.18738 8.79544,7.19324 8.79334,7.19939 8.79099,7.2058 8.78839,7.21244 8.78552,7.21927 8.78236,7.22626 8.77892,7.23338 8.77518,7.24059 8.77112,7.24786 8.76674,7.25516 8.76202,7.26245 8.75695,7.26971 8.75152,7.27689 8.74573,7.28396 8.73955,7.2909 8.73298,7.29767 8.726,7.30423 8.7186,7.31055 8.71078,7.3166 8.70252,7.32235 8.6938,7.32776 4.90754,3.54149 4.91625,3.53608 4.92451,3.53033 4.93233,3.52428 4.93973,3.51796 4.94671,3.5114 4.95328,3.50463 4.95946,3.49769 4.96526,3.49062 4.97069,3.48344 4.97575,3.47618 4.98047,3.46889 4.98485,3.46159 4.98891,3.45432 4.99265,3.44711 4.99609,3.43999 4.99925,3.433 5.00212,3.42617 5.00472,3.41953 5.00707,3.41312 5.00918,3.40697 5.01105,3.40111 5.0127,3.39558 5.01413,3.39041 5.01537,3.38562 5.01643,3.38126 5.0173,3.37737 5.01801,3.37396 5.01857,3.37108 5.01899,3.36876 5.01927,3.36702 5.01944,3.36591 "/>
     <polygon id="_462761424" class="fil1" points="4.90754,3.54149 8.6938,7.32776 8.68658,7.33178 8.67917,7.33552 8.67157,7.33898 8.66379,7.34215 8.65581,7.34503 8.64765,7.34763 8.63931,7.34995 8.63078,7.35198 8.62206,7.35374 8.61316,7.3552 8.60407,7.35639 8.59481,7.3573 8.58536,7.35792 8.57573,7.35826 8.56592,7.35831 8.55593,7.35809 8.54575,7.35759 8.5354,7.3568 8.52487,7.35574 8.51416,7.35439 8.50328,7.35276 8.49222,7.35086 8.48098,7.34867 8.46956,7.34621 8.45798,7.34346 8.44621,7.34044 8.43428,7.33714 8.42217,7.33356 8.40989,7.3297 8.39743,7.32557 8.3848,7.32115 8.37201,7.31646 4.58574,3.53019 4.59854,3.53488 4.61116,3.5393 4.62362,3.54343 4.6359,3.54729 4.64801,3.55087 4.65994,3.55417 4.67171,3.55719 4.6833,3.55994 4.69471,3.5624 4.70595,3.56459 4.71701,3.56649 4.72789,3.56812 4.7386,3.56946 4.74913,3.57053 4.75948,3.57131 4.76966,3.57182 4.77965,3.57204 4.78946,3.57198 4.79909,3.57165 4.80854,3.57102 4.81781,3.57012 4.82689,3.56893 4.83579,3.56746 4.84451,3.56571 4.85304,3.56368 4.86139,3.56136 4.86954,3.55876 4.87752,3.55587 4.8853,3.5527 4.8929,3.54925 4.90031,3.54551 "/>
     <polygon id="_462761640" class="fil1" points="4.58574,3.53019 8.37201,7.31646 8.36504,7.37025 8.35552,7.42324 8.34354,7.47537 8.32913,7.52659 8.31236,7.57683 8.2933,7.62604 8.27201,7.67416 8.24855,7.72112 8.22298,7.76687 8.19537,7.81135 8.16576,7.85449 8.13424,7.89624 8.10085,7.93654 8.06567,7.97532 8.02874,8.01253 7.99014,8.04811 7.94993,8.08199 7.90816,8.11412 7.8649,8.14444 7.82021,8.17289 7.77416,8.19941 7.7268,8.22393 7.67819,8.24641 7.6284,8.26677 7.57749,8.28496 7.52552,8.30092 7.47256,8.31459 7.41866,8.3259 7.36388,8.33481 7.3083,8.34124 7.25196,8.34515 7.19494,8.34646 3.40867,4.56019 3.46569,4.55888 3.52203,4.55497 3.57761,4.54854 3.63239,4.53963 3.68629,4.52831 3.73926,4.51465 3.79122,4.49869 3.84213,4.4805 3.89192,4.46013 3.94053,4.43766 3.98789,4.41314 4.03394,4.38662 4.07863,4.35817 4.12189,4.32785 4.16366,4.29572 4.20387,4.26183 4.24248,4.22626 4.2794,4.18905 4.31459,4.15026 4.34797,4.10997 4.3795,4.06822 4.4091,4.02507 4.43672,3.9806 4.46228,3.93485 4.48574,3.88789 4.50704,3.83977 4.52609,3.79056 4.54286,3.74031 4.55727,3.6891 4.56926,3.63696 4.57877,3.58398 "/>
     <polygon id="_462761136" class="fil1" points="1.78893,3.33103 5.57519,7.1173 5.57211,7.11483 5.56883,7.11258 5.56539,7.11058 5.56179,7.10883 5.55803,7.10734 5.55414,7.10613 1.76787,3.31986 1.77176,3.32107 1.77552,3.32256 1.77913,3.32431 1.78257,3.32631 1.78584,3.32856 "/>
     <polygon id="_462761760" class="fil1" points="1.91913,3.54149 5.70539,7.32776 5.69668,7.32235 5.68842,7.3166 5.68059,7.31055 5.6732,7.30423 1.88693,3.51796 1.89433,3.52428 1.90215,3.53033 1.91041,3.53608 "/>
     <polygon id="_462761976" class="fil1" points="1.76787,3.31986 5.55414,7.10613 5.54332,7.10302 5.53297,7.09962 5.52309,7.09592 5.51367,7.09192 5.5047,7.08761 5.4962,7.083 5.48814,7.07809 5.48054,7.07286 5.47338,7.06732 5.46666,7.06146 1.68039,3.27519 1.68711,3.28105 1.69427,3.28659 1.70187,3.29181 1.70993,3.29673 1.71844,3.30134 1.7274,3.30565 1.73682,3.30965 1.7467,3.31335 1.75706,3.31675 "/>
     <polygon id="_462761736" class="fil1" points="1.64423,2.95148 5.4305,6.73775 5.4273,6.73482 1.64103,2.94855 "/>
     <polygon id="_462761688" class="fil1" points="1.64103,2.94855 5.4273,6.73482 5.42102,6.72926 1.63475,2.94298 "/>
     <polygon id="_462729552" class="fil1" points="2.23194,3.5335 6.01821,7.31978 6.00581,7.32418 5.99357,7.32831 5.9815,7.33218 5.96959,7.33579 5.95785,7.33912 5.94627,7.34219 5.93486,7.345 5.92362,7.34754 5.91254,7.34981 5.90163,7.35181 5.89089,7.35355 5.88033,7.35501 5.86993,7.35621 5.8597,7.35715 5.84964,7.35781 5.83976,7.3582 5.83004,7.35833 5.8205,7.35818 5.81113,7.35777 5.80194,7.35709 5.79292,7.35613 5.78408,7.35491 5.77541,7.35341 5.76692,7.35165 5.7586,7.34961 5.75046,7.34731 5.7425,7.34473 5.73472,7.34188 5.72712,7.33876 5.7197,7.33537 5.71246,7.3317 5.70539,7.32776 1.91913,3.54149 1.92619,3.54543 1.93343,3.54909 1.94085,3.55248 1.94846,3.55561 1.95624,3.55846 1.9642,3.56104 1.97233,3.56334 1.98065,3.56538 1.98914,3.56714 1.99781,3.56864 2.00665,3.56986 2.01567,3.57081 2.02487,3.5715 2.03423,3.57191 2.04377,3.57206 2.05349,3.57193 2.06337,3.57154 2.07343,3.57087 2.08366,3.56994 2.09406,3.56874 2.10463,3.56728 2.11537,3.56554 2.12628,3.56354 2.13735,3.56126 2.14859,3.55873 2.16,3.55592 2.17158,3.55285 2.18332,3.54952 2.19523,3.54591 2.20731,3.54204 2.21954,3.53791 "/>
     <polygon id="_462729816" class="fil1" points="3.40867,4.56019 7.19494,8.34646 7.13802,8.34515 7.08179,8.34126 7.02631,8.33485 6.97163,8.32598 6.91783,8.3147 6.86495,8.30109 6.81307,8.28519 6.76224,8.26706 6.71253,8.24677 6.66399,8.22438 6.6167,8.19994 6.5707,8.17352 6.52606,8.14517 6.48285,8.11496 6.44112,8.08294 6.40093,8.04917 2.61467,4.26289 2.65485,4.29667 2.69658,4.32869 2.7398,4.3589 2.78443,4.38725 2.83043,4.41367 2.87772,4.43811 2.92626,4.4605 2.97597,4.48079 3.0268,4.49891 3.07868,4.51481 3.13156,4.52843 3.18536,4.53971 3.24004,4.54858 3.29552,4.55499 3.35175,4.55888 "/>
    </g>
    <path id="_637662208" class="fil1" d="M4.08168 2.47053c0.0778268,-0.0743268 0.283398,-0.207205 0.72185,-0.143299 0.253673,0.0369331 0.418453,0.144969 0.464094,0.304185 0.0370236,0.129547 -0.0145276,0.260055 -0.0819882,0.31713 -0.0178268,0.0150354 -0.0238465,0.0398583 -0.0149882,0.0614134 0.000566929,0.00128346 0.052126,0.131689 0.00681102,0.22339 -0.0208937,0.0424016 -0.0597244,0.0707244 -0.118665,0.0865079 -0.021122,0.00568898 -0.0367874,0.0237559 -0.0392913,0.0456063 -0.000110236,0.0011811 -0.0165748,0.12024 -0.111965,0.176024 -0.0760197,0.044437 -0.184394,0.0402126 -0.321795,-0.0112953 -0.0605866,0.577709 -0.565362,1.03 -1.17707,1.03 -0.610547,0 -1.11456,-0.450567 -1.17672,-1.02669 -0.133154,0.0483583 -0.238461,0.0514488 -0.312819,0.00798425 -0.0953898,-0.0557835 -0.111854,-0.174843 -0.111965,-0.176024 -0.00250394,-0.0218504 -0.0181693,-0.0399173 -0.0392913,-0.0456063 -0.0589409,-0.0157835 -0.0977717,-0.0441063 -0.118665,-0.0865079 -0.045315,-0.0917008 0.00624409,-0.222106 0.00681102,-0.22339 0.00885827,-0.0215551 0.00283858,-0.046378 -0.0149882,-0.0614134 -0.0674606,-0.0570748 -0.119012,-0.187583 -0.0819882,-0.31713 0.0456417,-0.159217 0.210421,-0.267252 0.464094,-0.304185 0.431366,-0.062874 0.637319,0.0647323 0.717976,0.139654 0.190134,-0.126398 0.420098,-0.200417 0.667563,-0.200417 0.249827,0 0.481823,0.0754449 0.673004,0.204063z"/>
   </g>
  </g>
  <path class="fil2" d="M3.41333 -3.93701e-006c1.88513,0 3.41333,1.5282 3.41333,3.41333 0,1.88513 -1.5282,3.41333 -3.41333,3.41333 -1.88513,0 -3.41333,-1.5282 -3.41333,-3.41333 0,-1.88513 1.5282,-3.41333 3.41333,-3.41333z"/>
  <path class="fil3" d="M4.80353 2.32723c-0.452795,-0.0659961 -0.657224,0.077878 -0.729083,0.150398 0.0585669,0.0434685 0.113173,0.0916969 0.163272,0.144083 0.0879724,-0.0697047 0.294354,-0.177287 0.576177,0.0334606 0.134083,0.10026 0.177445,0.259319 0.115929,0.425457 -0.052811,0.14276 -0.186787,0.281622 -0.350787,0.29687 0.00254724,0.0321024 0.00424803,0.0644173 0.00424803,0.0971575 0,0.0181378 -0.000625984,0.036126 -0.00140945,0.0540748 0.139236,0.0528858 0.248929,0.0576102 0.325661,0.0127559 0.0953898,-0.0557835 0.111854,-0.174843 0.111965,-0.176024 0.00250394,-0.0218504 0.0181693,-0.0399173 0.0392913,-0.0456063 0.0589409,-0.0157835 0.0977717,-0.0441063 0.118665,-0.0865079 0.045315,-0.0917008 -0.00624409,-0.222106 -0.00681102,-0.22339 -0.00885827,-0.0215551 -0.00283858,-0.046378 0.0149882,-0.0614134 0.0674606,-0.0570748 0.119012,-0.187583 0.0819882,-0.31713 -0.0456417,-0.159217 -0.210421,-0.267252 -0.464094,-0.304185z"/>
  <path class="fil3" d="M2.02313 2.32723c0.452795,-0.0659961 0.657224,0.077878 0.729083,0.150398 -0.0585669,0.0434685 -0.113173,0.0916969 -0.163272,0.144083 -0.0879724,-0.0697047 -0.294354,-0.177287 -0.576177,0.0334606 -0.134083,0.10026 -0.177445,0.259319 -0.115929,0.425457 0.052811,0.14276 0.186787,0.281622 0.350787,0.29687 -0.00254724,0.0321024 -0.00424803,0.0644173 -0.00424803,0.0971575 0,0.0181378 0.000625984,0.036126 0.00140945,0.0540748 -0.139236,0.0528858 -0.248929,0.0576102 -0.325661,0.0127559 -0.0953898,-0.0557835 -0.111854,-0.174843 -0.111965,-0.176024 -0.00250394,-0.0218504 -0.0181693,-0.0399173 -0.0392913,-0.0456063 -0.0589409,-0.0157835 -0.0977717,-0.0441063 -0.118665,-0.0865079 -0.045315,-0.0917008 0.00624409,-0.222106 0.00681102,-0.22339 0.00885827,-0.0215551 0.00283858,-0.046378 -0.0149882,-0.0614134 -0.0674606,-0.0570748 -0.119012,-0.187583 -0.0819882,-0.31713 0.0456417,-0.159217 0.210421,-0.267252 0.464094,-0.304185z"/>
  <path class="fil4" d="M4.93339 3.08636c0.0610669,-0.172811 0.0187835,-0.337669 -0.113047,-0.440945 -0.289209,-0.226618 -0.493992,-0.123323 -0.587886,-0.0450394 0.186358,0.221894 0.310996,0.498756 0.347043,0.803161 0.146028,-0.0155236 0.292618,-0.143736 0.35389,-0.317177z"/>
  <path class="fil4" d="M1.89328 3.08636c-0.0610669,-0.172811 -0.0187835,-0.337669 0.113047,-0.440945 0.289209,-0.226618 0.493992,-0.123323 0.587886,-0.0450394 -0.186358,0.221894 -0.310996,0.498756 -0.347043,0.803161 -0.146028,-0.0155236 -0.292618,-0.143736 -0.35389,-0.317177z"/>
  <path class="fil5" d="M4.04203 3.66551c-0.0558346,0 -0.101094,-0.0452598 -0.101094,-0.101094 3.93701e-006,-0.0558268 0.045252,-0.101094 0.101091,-0.101094 0.0558386,0 0.101091,0.0452677 0.101091,0.101094 0,0.0558307 -0.0452559,0.101094 -0.101087,0.101094zm-1.25435 0c-0.0558268,0 -0.101094,-0.0452598 -0.101094,-0.101094 3.93701e-006,-0.0558268 0.0452677,-0.101094 0.101091,-0.101094 0.0558386,0 0.101098,0.0452677 0.101098,0.101094 3.93701e-006,0.0558307 -0.0452638,0.101094 -0.101094,0.101094zm0.620996 -1.39904c-0.652409,0 -1.18318,0.514469 -1.18318,1.14687 3.93701e-006,0.632386 0.530764,1.14685 1.18317,1.14685 0.652398,0 1.18317,-0.514465 1.18317,-1.14685 3.93701e-006,-0.632402 -0.530768,-1.14687 -1.18316,-1.14687z"/>
  <path class="fil4" d="M2.78768 3.46332c-0.0558268,0 -0.101094,0.0452677 -0.101094,0.101094 3.93701e-006,0.0558307 0.0452677,0.101094 0.101091,0.101094 0.0558386,0 0.101098,-0.0452598 0.101098,-0.101094 3.93701e-006,-0.0558268 -0.0452638,-0.101094 -0.101094,-0.101094z"/>
  <path class="fil4" d="M4.04203 3.46332c-0.0558346,0 -0.101094,0.0452677 -0.101094,0.101094 3.93701e-006,0.0558307 0.045252,0.101094 0.101091,0.101094 0.0558386,0 0.101091,-0.0452598 0.101091,-0.101094 0,-0.0558268 -0.0452559,-0.101094 -0.101087,-0.101094z"/>
  <path class="fil4" d="M3.14954 3.96123c-0.0243386,-0.102224 -0.027685,-0.353197 0.073752,-0.497906 0.0461732,-0.0658622 0.109551,-0.103866 0.188437,-0.112929 0.00737008,-0.00084252 0.0145669,-0.00125984 0.0216102,-0.00125984 0.0965748,0 0.155768,0.0792283 0.188402,0.145705 0.0827047,0.168461 0.0784134,0.410075 0.0168898,0.489724 -0.0400197,0.0517795 -0.127209,0.0826811 -0.233283,0.0826811 -0.129283,0 -0.241646,-0.0465551 -0.255807,-0.106016zm0.616051 0.182858c-0.169303,0.0755394 -0.248854,0.0620039 -0.285843,0.0374094 -0.0257402,-0.0171732 -0.0359843,-0.0428819 -0.0401969,-0.0619213 0.108406,-0.00635433 0.195453,-0.0426102 0.241512,-0.102217 0.0807756,-0.104528 0.0753465,-0.369957 -0.011185,-0.546142 -0.0564488,-0.114953 -0.138244,-0.175717 -0.236539,-0.175717 -0.00902362,0 -0.0182835,0.000523622 -0.0277283,0.00162598 -0.0947598,0.0108661 -0.170906,0.056437 -0.22624,0.135402 -0.117756,0.167996 -0.105634,0.441957 -0.0820118,0.54111 0.0225197,0.0946417 0.157425,0.141075 0.28237,0.146657 -0.00431496,0.0189764 -0.0145906,0.044248 -0.0400157,0.0612008 -0.0369606,0.0246181 -0.116579,0.0381299 -0.285803,-0.0374094 -0.0134843,-0.00606299 -0.0293858,3.54331e-005 -0.0354173,0.0135709 -0.00603937,0.0135236 3.14961e-005,0.0293898 0.0135709,0.0354213 0.0915984,0.0409016 0.168906,0.0613858 0.231268,0.0613661 0.0426732,0 0.0783661,-0.00959843 0.106815,-0.0287874 0.0173189,-0.011685 0.0301142,-0.0256969 0.0395827,-0.0401654 0.00947244,0.0144685 0.0222677,0.0284803 0.0395866,0.0401654 0.0284764,0.019189 0.0641496,0.0287874 0.106839,0.0287874 0.0623701,0 0.139685,-0.0204882 0.231268,-0.0613661 0.0135472,-0.0060315 0.019622,-0.0218976 0.0135709,-0.0354213 -0.00602756,-0.0135354 -0.0219291,-0.0196339 -0.0354016,-0.0135709z"/>
  <path class="fil3" d="M3.64337 3.9903c0.0628031,-0.0812992 0.0671811,-0.327925 -0.0172362,-0.499882 -0.033315,-0.0678583 -0.0937402,-0.148728 -0.192311,-0.148728 -0.00718504,0 -0.0145354,0.000429134 -0.0220591,0.0012874 -0.0805236,0.00925197 -0.145217,0.0480433 -0.192346,0.115276 -0.103539,0.147709 -0.100126,0.403882 -0.0752835,0.508228 0.0144567,0.0606929 0.12915,0.108213 0.261114,0.108213 0.108276,0 0.197276,-0.0315354 0.238122,-0.0843937z"/>
 </g>
</svg>
