<?xml version="1.0" encoding="utf-8"?>
<!-- Generator: Adobe Illustrator 16.0.0, SVG Export Plug-In . SVG Version: 6.00 Build 0)  -->
<!DOCTYPE svg PUBLIC "-//W3C//DTD SVG 1.1//EN" "http://www.w3.org/Graphics/SVG/1.1/DTD/svg11.dtd">
<svg version="1.1" id="Panther_1_" xmlns="http://www.w3.org/2000/svg" xmlns:xlink="http://www.w3.org/1999/xlink" x="0px" y="0px"
	 width="512px" height="512px" viewBox="0 0 512 512" enable-background="new 0 0 512 512" xml:space="preserve">
<circle id="Background_16_" fill="#8DD2EF" cx="256" cy="256" r="256"/>
<path id="Shadow" opacity="0.1" d="M510.486,283.855L363.915,137.285l-77.502,38.47v334.439
	C404.337,496.232,497.686,402.131,510.486,283.855z"/>
<g id="Panther">
	<path fill="#3A3A3A" d="M0,256c0,141.386,114.615,256,256,256c21.286,0,41.958-2.615,61.73-7.511V255.421H0.007
		C0.007,255.615,0,255.807,0,256z"/>
	<polygon opacity="0.1" points="179.186,345.548 317.73,484.093 317.73,345.548 	"/>
	<g>
		<path fill="#3F3F3F" d="M353.007,200.44c13.159-14.765,20.976-54.002,7.813-67.46c-13.164-13.458-55.113,16.635-55.113,16.635
			s-29.919-7.623-49.642-7.626l0,0h-0.001c0,0-0.001,0-0.001,0l0,0c-19.724,0.003-49.642,7.626-49.642,7.626
			s-41.95-30.093-55.113-16.635c-13.163,13.458-5.347,52.695,7.812,67.46c-2.456,5.001-6.599,18.255-7.738,24.73
			s-2.887,52.531,2.475,82.618c5.361,30.087,64.175,69.168,64.175,69.168s2.994,18.113,38.031,18.133l0,0c0,0,0.001,0,0.001,0h0.001
			l0,0c35.038-0.02,38.031-18.133,38.031-18.133s58.814-39.081,64.176-69.168s3.613-76.143,2.475-82.618
			S355.463,205.441,353.007,200.44z"/>
		<path opacity="0.2" d="M217.987,335.876v41.08c0,0,2.995,18.134,38.086,18.134s38.085-18.134,38.085-18.134v-41.08H217.987z"/>
		<path fill="#303030" d="M285.662,301.677c-0.074,0-0.147,0.005-0.223,0.005c-2.995-13.764-15.001-15.541-29.366-15.541
			c-14.366,0-26.372,1.777-29.367,15.541c-0.074,0-0.147-0.005-0.222-0.005c-16.41,0-29.712,13.6-29.712,30.375
			c0,16.776,13.303,30.376,29.712,30.376c14.022,0,25.768-9.934,28.89-23.292c0.233,0.005,0.464,0.018,0.699,0.018
			c0.234,0,0.466-0.013,0.699-0.018c3.122,13.358,14.868,23.292,28.89,23.292c16.409,0,29.712-13.6,29.712-30.376
			C315.374,315.276,302.071,301.677,285.662,301.677z"/>
		<path opacity="0.1" d="M285.662,362.428c-14.022,0-25.769-9.934-28.89-23.292c-0.233,0.005-0.464,0.018-0.699,0.018
			c-0.235,0-0.466-0.013-0.699-0.018c-3.122,13.358-14.867,23.292-28.89,23.292c-15.813,0-28.735-12.629-29.655-28.559
			c-0.035,0.602-0.058,1.206-0.058,1.817c0,16.775,13.303,30.375,29.712,30.375c14.022,0,25.768-9.934,28.89-23.292
			c0.233,0.006,0.464,0.018,0.699,0.018c0.234,0,0.466-0.012,0.699-0.018c3.122,13.358,14.868,23.292,28.89,23.292
			c16.409,0,29.712-13.6,29.712-30.375c0-0.611-0.022-1.216-0.058-1.817C314.396,349.799,301.475,362.428,285.662,362.428z"/>
		<path opacity="0.1" d="M284.757,310.375c-2.888,7.254-8.531,8.721-8.531,8.721c0.706-0.996,1.256-1.944,1.563-2.811
			c0,0-0.525-5.91-3.153-5.91s-7.358,5.91-18.658,5.91s-16.03-5.91-18.658-5.91s-3.153,5.91-3.153,5.91
			c0.308,0.866,0.858,1.814,1.564,2.811c0,0-5.643-1.467-8.531-8.721s-1.968,6.045,2.5,10.612
			c4.467,4.566,18.549,14.402,19.13,12.776c0.37,0.617,0.58,1.156,0.58,1.597c0,3.492,6.569,3.224,6.569,3.224
			s6.57,0.269,6.57-3.224c0-0.44,0.21-0.979,0.579-1.597c0.58,1.626,14.663-8.21,19.13-12.776
			C286.725,316.42,287.645,303.121,284.757,310.375z"/>
		<g>
			<path fill="#333333" d="M274.636,313.504c-2.628,0-7.358,5.91-18.658,5.91s-16.03-5.91-18.658-5.91s-3.153,5.91-3.153,5.91
				c2.103,5.911,15.242,15.582,15.242,19.075c0,3.492,6.569,3.224,6.569,3.224s6.57,0.269,6.57-3.224
				c0-3.493,13.14-13.164,15.241-19.075C277.789,319.414,277.264,313.504,274.636,313.504z"/>
			<path fill="#231F20" d="M248.829,336.893c2.891-8.118-0.74-10.487-3.757-13.571c-7.221-7.383-9.342-1.097-9.342-1.097
				s-5.643-1.467-8.531-8.721s-1.968,6.045,2.5,10.612C234.166,328.684,248.25,338.52,248.829,336.893z"/>
			<path fill="#231F20" d="M263.127,336.893c-2.891-8.118,0.74-10.487,3.757-13.571c7.221-7.383,9.342-1.097,9.342-1.097
				s5.643-1.467,8.531-8.721c2.888-7.254,1.968,6.045-2.5,10.612S263.706,338.52,263.127,336.893z"/>
		</g>
		<g>
			<g>
				<path opacity="0.3" d="M226.005,248.627c-1.161,6.579,1.191,10.951-13.753,9.765c-6.52-0.518-10.711-7.481-9.551-14.06
					c0.445-2.525-3.14-3.712-1.57-4.935c1.128-0.878,6.354-1.917,7.871-2.21c1.871-0.362,4.813-0.471,7.002-0.067
					C222.438,238.306,227.165,242.048,226.005,248.627z"/>
				<path fill="#88C635" d="M223.174,248.419c-0.884,5.011-5.574,8.34-10.475,7.437s-8.158-5.698-7.274-10.709
					c0.884-5.011,5.231-6.396,10.132-5.493C220.458,240.559,224.058,243.409,223.174,248.419z"/>
			</g>
			<g>
				<path opacity="0.3" d="M286.185,248.627c1.16,6.579-1.191,10.951,13.753,9.765c6.52-0.518,10.711-7.481,9.551-14.06
					c-0.445-2.525,3.14-3.712,1.57-4.935c-1.128-0.878-6.354-1.917-7.87-2.21c-1.871-0.362-4.813-0.471-7.003-0.067
					C289.75,238.306,285.024,242.048,286.185,248.627z"/>
				<path fill="#88C635" d="M289.016,248.419c0.884,5.011,5.573,8.34,10.475,7.437s8.158-5.698,7.274-10.709
					s-5.23-6.396-10.132-5.493C291.731,240.559,288.132,243.409,289.016,248.419z"/>
			</g>
		</g>
		<g>
			<path opacity="0.2" d="M163.895,195.874c-11.922-13.377-19.004-48.928-7.078-61.12l29.893,30.56L163.895,195.874z"/>
			<path opacity="0.2" d="M348.23,195.874c11.923-13.377,19.004-48.928,7.078-61.12l-29.893,30.56L348.23,195.874z"/>
		</g>
	</g>
</g>
</svg>
