<?xml version="1.0" encoding="UTF-8"?>
<!DOCTYPE svg PUBLIC "-//W3C//DTD SVG 1.1//EN" "http://www.w3.org/Graphics/SVG/1.1/DTD/svg11.dtd">
<!-- Creator: CorelDRAW -->
<svg xmlns="http://www.w3.org/2000/svg" xml:space="preserve" width="6.82666in" height="6.82666in" style="shape-rendering:geometricPrecision; text-rendering:geometricPrecision; image-rendering:optimizeQuality; fill-rule:evenodd; clip-rule:evenodd"
viewBox="0 0 6.82666 6.82666"
 xmlns:xlink="http://www.w3.org/1999/xlink">
 <defs>
  <style type="text/css">
   <![CDATA[
    .fil2 {fill:none}
    .fil4 {fill:#2D3133}
    .fil3 {fill:#353B3D}
    .fil9 {fill:#3C3F40}
    .fil1 {fill:#A1887F}
    .fil0 {fill:#BCAAA4}
    .fil7 {fill:#D88D56}
    .fil5 {fill:#F9AC6B}
    .fil6 {fill:#F9FCFE}
    .fil8 {fill:#FB9F49}
   ]]>
  </style>
   <clipPath id="id0">
    <path d="M3.41333 -3.93701e-006c1.88513,0 3.41333,1.5282 3.41333,3.41333 0,1.88513 -1.5282,3.41333 -3.41333,3.41333 -1.88513,0 -3.41333,-1.5282 -3.41333,-3.41333 0,-1.88513 1.5282,-3.41333 3.41333,-3.41333z"/>
   </clipPath>
 </defs>
 <g id="Layer_x0020_1">
  <metadata id="CorelCorpID_0Corel-Layer"/>
  <path class="fil0" d="M3.41333 -3.93701e-006c1.88513,0 3.41333,1.5282 3.41333,3.41333 0,1.88513 -1.5282,3.41333 -3.41333,3.41333 -1.88513,0 -3.41333,-1.5282 -3.41333,-3.41333 0,-1.88513 1.5282,-3.41333 3.41333,-3.41333z"/>
  <g style="clip-path:url(#id0)">
   <g id="_637659976">
    <g>
     <polygon id="_4421214801" class="fil1" points="4.06396,2.72495 7.85022,6.51122 7.85697,6.52835 7.86446,6.54689 7.87269,6.56676 7.88168,6.58788 7.89142,6.61016 7.90192,6.63352 7.91318,6.65787 7.9252,6.68314 7.938,6.70924 7.95156,6.73608 7.96591,6.76359 7.98103,6.79168 7.99693,6.82026 8.01362,6.84925 8.0311,6.87857 8.04938,6.90814 8.06845,6.93787 8.08832,6.96767 8.109,6.99748 8.13048,7.02719 8.15278,7.05673 8.17589,7.08602 8.19981,7.11496 8.22456,7.14348 8.25014,7.1715 4.46387,3.38523 4.4383,3.35721 4.41355,3.32869 4.38962,3.29974 4.36651,3.27046 4.34421,3.24092 4.32273,3.2112 4.30206,3.1814 4.28218,3.15159 4.26311,3.12187 4.24483,3.0923 4.22735,3.06298 4.21067,3.03398 4.19476,3.00541 4.17964,2.97732 4.1653,2.94981 4.15173,2.92297 4.13894,2.89687 4.12691,2.8716 4.11565,2.84724 4.10515,2.82389 4.09541,2.80161 4.08643,2.78049 4.07819,2.76062 4.0707,2.74208 "/>
     <polygon id="_442121528" class="fil1" points="4.7893,3.65954 8.57556,7.44581 8.59485,7.46744 8.60999,7.48784 8.62119,7.50702 8.62869,7.525 8.63268,7.5418 8.63339,7.55745 8.63104,7.57196 8.62585,7.58537 8.61802,7.59768 8.60778,7.60892 8.59535,7.61912 8.58094,7.62829 8.56477,7.63646 8.54706,7.64364 8.52801,7.64986 8.50786,7.65514 8.48682,7.6595 8.4651,7.66297 8.44292,7.66556 8.4205,7.66729 8.39806,7.66819 8.37581,7.66828 8.35398,7.66758 8.33277,7.66611 8.3124,7.6639 8.2931,7.66095 8.27507,7.65731 8.25854,7.65298 4.47228,3.8667 4.4888,3.87104 4.50683,3.87468 4.52613,3.87763 4.5465,3.87984 4.56771,3.88131 4.58955,3.88201 4.6118,3.88192 4.63424,3.88102 4.65665,3.87929 4.67883,3.8767 4.70055,3.87323 4.72159,3.86887 4.74174,3.86359 4.76079,3.85737 4.7785,3.85019 4.79467,3.84202 4.80908,3.83285 4.82152,3.82265 4.83176,3.81141 4.83958,3.79909 4.84478,3.78569 4.84713,3.77118 4.84641,3.75553 4.84242,3.73872 4.83493,3.72075 4.82372,3.70157 4.80858,3.68117 "/>
     <polygon id="_442122416" class="fil1" points="4.47228,3.8667 8.25854,7.65298 8.25451,7.65176 8.25048,7.65052 8.24646,7.64923 8.24243,7.64791 8.23841,7.64656 8.23439,7.64517 8.23037,7.64374 8.22636,7.64227 8.22235,7.64076 8.21835,7.63922 8.21435,7.63763 8.21036,7.63601 8.20637,7.63434 8.20238,7.63264 8.1984,7.63089 8.19443,7.62911 8.19046,7.62728 8.18649,7.6254 8.18254,7.62349 8.17859,7.62153 8.17464,7.61953 8.1707,7.61748 8.16678,7.61539 8.16285,7.61325 8.15894,7.61107 8.15503,7.60883 8.15113,7.60656 8.14724,7.60424 8.14336,7.60186 8.13949,7.59944 8.13562,7.59698 8.13177,7.59446 4.3455,3.80819 4.34935,3.8107 4.35322,3.81317 4.35709,3.81559 4.36097,3.81796 4.36487,3.82029 4.36876,3.82256 4.37267,3.8248 4.37659,3.82698 4.38051,3.82911 4.38444,3.83121 4.38837,3.83326 4.39232,3.83526 4.39627,3.83722 4.40022,3.83913 4.40419,3.841 4.40816,3.84283 4.41213,3.84462 4.41611,3.84637 4.4201,3.84807 4.42409,3.84974 4.42809,3.85136 4.43208,3.85294 4.43609,3.85449 4.44009,3.856 4.44411,3.85746 4.44812,3.85889 4.45214,3.86029 4.45617,3.86164 4.46019,3.86296 4.46422,3.86424 4.46824,3.86549 "/>
     <polygon id="_442121792" class="fil1" points="4.3455,3.80819 8.13177,7.59446 8.13481,7.61017 8.13773,7.62583 8.14053,7.64141 8.1432,7.65694 8.14575,7.6724 8.14817,7.68779 8.15044,7.70311 8.15259,7.71837 8.15459,7.73356 8.15644,7.74867 8.15815,7.7637 8.15971,7.77867 8.16111,7.79356 8.16235,7.80837 8.16344,7.8231 8.16435,7.83776 8.1651,7.85233 8.16568,7.86682 8.16608,7.88123 8.16631,7.89555 8.16635,7.90979 8.16621,7.92394 8.16588,7.938 8.16536,7.95198 8.16465,7.96586 8.16374,7.97966 8.16262,7.99335 8.1613,8.00696 8.15978,8.02047 8.15804,8.03389 8.15608,8.0472 8.15391,8.06042 4.36765,4.27415 4.36981,4.26093 4.37177,4.24761 4.37351,4.2342 4.37504,4.22069 4.37635,4.20708 4.37747,4.19339 4.37838,4.17959 4.37909,4.16571 4.37961,4.15173 4.37994,4.13767 4.38009,4.12352 4.38004,4.10928 4.37981,4.09496 4.37941,4.08055 4.37883,4.06606 4.37809,4.05148 4.37717,4.03683 4.37609,4.02209 4.37484,4.00728 4.37344,3.99239 4.37189,3.97743 4.37018,3.96239 4.36832,3.94728 4.36632,3.9321 4.36418,3.91684 4.3619,3.90152 4.35948,3.88613 4.35694,3.87067 4.35426,3.85514 4.35146,3.83956 4.34854,3.8239 "/>
     <polygon id="_442122632" class="fil1" points="4.37057,4.27187 8.15683,8.05815 8.15662,8.05973 8.15596,8.06436 8.15485,8.07189 8.15327,8.08214 8.15119,8.09496 8.14861,8.11018 8.14552,8.12764 8.14189,8.14718 8.1377,8.16863 8.13295,8.19184 8.12761,8.21663 8.12168,8.24285 8.11513,8.27034 8.10794,8.29893 8.10012,8.32846 8.09163,8.35876 8.08246,8.38968 8.07259,8.42104 8.06202,8.4527 8.05072,8.48448 8.03868,8.51622 8.02588,8.54777 8.01231,8.57895 7.99794,8.60961 7.98278,8.63958 7.96679,8.6687 7.94996,8.69681 7.93228,8.72374 7.91374,8.74934 7.89431,8.77343 7.87397,8.79586 7.85272,8.81646 4.06646,5.03019 4.0877,5.00959 4.10804,4.98716 4.12747,4.96307 4.14602,4.93747 4.1637,4.91054 4.18052,4.88243 4.19651,4.85331 4.21168,4.82334 4.22604,4.79268 4.23961,4.7615 4.25241,4.72995 4.26445,4.69821 4.27575,4.66643 4.28633,4.63477 4.29619,4.60341 4.30536,4.57249 4.31385,4.54219 4.32168,4.51266 4.32886,4.48407 4.33541,4.45658 4.34135,4.43036 4.34668,4.40557 4.35143,4.38236 4.35562,4.36091 4.35925,4.34137 4.36235,4.32391 4.36493,4.30869 4.367,4.29587 4.36858,4.28561 4.3697,4.27809 4.37035,4.27346 "/>
     <polygon id="_442122536" class="fil1" points="4.16307,5.08484 7.94933,8.87111 7.95646,8.87817 7.96296,8.88531 7.96888,8.89247 7.97423,8.89963 7.97904,8.90676 7.98335,8.91381 7.98719,8.92074 7.99057,8.92754 7.99352,8.93415 7.99609,8.94055 7.99829,8.94669 8.00015,8.95255 8.0017,8.95809 8.00298,8.96326 8.00399,8.96805 8.00478,8.9724 8.00538,8.97629 8.00581,8.97967 8.00609,8.98253 8.00627,8.98481 8.00635,8.98648 8.00639,8.98751 8.00639,8.98786 4.22013,5.20159 4.22012,5.20124 4.22009,5.2002 4.22,5.19854 4.21983,5.19626 4.21954,5.1934 4.21911,5.19002 4.21852,5.18613 4.21772,5.18178 4.21671,5.17699 4.21544,5.17181 4.21389,5.16628 4.21202,5.16042 4.20982,5.15428 4.20726,5.14788 4.2043,5.14127 4.20092,5.13447 4.19709,5.12754 4.19278,5.12048 4.18796,5.11336 4.18261,5.1062 4.1767,5.09904 4.17019,5.0919 "/>
     <polygon id="_442123160" class="fil1" points="4.22013,5.20159 8.00639,8.98786 8.00098,8.99157 7.9956,8.99498 7.99024,8.9981 7.98491,9.00092 7.9796,9.00347 7.97434,9.00575 7.96911,9.00777 7.96393,9.00954 7.95879,9.01107 7.9537,9.01237 7.94866,9.01345 7.94368,9.01432 7.93876,9.01498 7.9339,9.01546 7.9291,9.01574 7.92438,9.01585 7.90705,9.0153 7.8928,9.01356 7.88123,9.01091 7.87197,9.00761 7.86463,9.00389 7.85883,9.00003 7.85418,8.99628 7.8503,8.99289 7.84681,8.99012 7.84331,8.98824 7.83944,8.98749 7.8348,8.98813 7.829,8.99042 7.82167,8.99461 7.81241,9.00097 7.80085,9.00975 4.01459,5.22348 4.02615,5.2147 4.0354,5.20834 4.04273,5.20415 4.04853,5.20186 4.05317,5.20122 4.05705,5.20196 4.06054,5.20385 4.06404,5.20662 4.06791,5.21 4.07256,5.21376 4.07836,5.21762 4.0857,5.22133 4.09496,5.22464 4.10653,5.22729 4.12078,5.22902 4.13811,5.22958 4.14283,5.22947 4.14763,5.22919 4.15249,5.22871 4.15741,5.22805 4.16239,5.22718 4.16743,5.2261 4.17252,5.2248 4.17766,5.22327 4.18284,5.2215 4.18807,5.21948 4.19333,5.2172 4.19864,5.21465 4.20397,5.21183 4.20933,5.20871 4.21472,5.2053 "/>
     <polygon id="_442123184" class="fil1" points="2.47776,3.812 6.26402,7.59827 6.25645,7.603 6.24885,7.60756 6.24121,7.61192 6.23354,7.61611 6.22585,7.62013 6.21813,7.62398 6.21039,7.62766 6.20263,7.63118 6.19485,7.63454 6.18704,7.63774 6.17923,7.64079 6.17139,7.64369 6.16355,7.64644 6.15569,7.64906 6.14782,7.65153 6.13995,7.65387 2.35368,3.8676 2.36156,3.86526 2.36942,3.86279 2.37728,3.86017 2.38513,3.85742 2.39296,3.85452 2.40078,3.85146 2.40858,3.84826 2.41636,3.84491 2.42413,3.84139 2.43187,3.8377 2.43958,3.83386 2.44728,3.82984 2.45494,3.82565 2.46258,3.82128 2.47018,3.81673 "/>
     <polygon id="_442122872" class="fil1" points="2.35368,3.8676 6.13995,7.65387 6.12339,7.65808 6.10533,7.6616 6.086,7.6644 6.06562,7.66647 6.0444,7.66779 6.02256,7.66833 6.00031,7.66808 5.97787,7.66702 5.95546,7.66512 5.93331,7.66237 5.91161,7.65875 5.8906,7.65424 5.87049,7.64881 5.85149,7.64245 5.83383,7.63514 5.81772,7.62686 5.80337,7.61759 5.79101,7.6073 2.00474,3.82103 2.0171,3.83131 2.03145,3.84059 2.04756,3.84887 2.06522,3.85618 2.08422,3.86254 2.10433,3.86796 2.12534,3.87248 2.14704,3.8761 2.1692,3.87885 2.1916,3.88074 2.21404,3.88181 2.23629,3.88206 2.25813,3.88152 2.27935,3.8802 2.29974,3.87813 2.31906,3.87533 2.33712,3.87181 "/>
     <polygon id="_442122896" class="fil1" points="3.58017,4.92763 7.36644,8.71391 7.36219,8.71505 7.35785,8.71617 7.35345,8.71725 7.34897,8.71831 7.34442,8.71933 7.3398,8.72033 7.33511,8.72129 7.33035,8.72222 7.32553,8.72312 7.32064,8.72398 7.31569,8.72481 7.31067,8.72561 7.30559,8.72638 7.30046,8.72711 7.29527,8.7278 7.29002,8.72846 7.28472,8.72908 7.27936,8.72966 7.27396,8.73021 7.2685,8.73072 7.26299,8.73119 7.25744,8.73163 7.25183,8.73202 7.24619,8.73237 7.2405,8.73269 7.23477,8.73296 7.229,8.7332 7.22319,8.73339 7.21735,8.73354 7.21146,8.73365 7.20555,8.73371 7.1996,8.73373 7.19225,8.7337 7.18495,8.7336 7.1777,8.73344 7.17052,8.73321 7.16339,8.73292 7.15632,8.73256 7.14931,8.73215 7.14238,8.73167 7.13552,8.73113 7.12872,8.73054 7.122,8.72989 7.11537,8.72918 7.10881,8.72841 7.10233,8.72759 7.09594,8.72671 7.08965,8.72578 7.08344,8.7248 7.07733,8.72377 7.07131,8.72269 7.0654,8.72155 7.05959,8.72037 7.05389,8.71913 7.04829,8.71785 7.0428,8.71653 7.03743,8.71516 7.03218,8.71374 7.02704,8.71228 7.02203,8.71078 7.01714,8.70924 7.01237,8.70765 7.00774,8.70602 7.00324,8.70436 3.21698,4.91809 3.22148,4.91975 3.22611,4.92138 3.23087,4.92296 3.23576,4.92451 3.24077,4.92601 3.24591,4.92747 3.25117,4.92889 3.25654,4.93026 3.26202,4.93158 3.26762,4.93286 3.27332,4.93409 3.27913,4.93528 3.28505,4.93641 3.29106,4.9375 3.29717,4.93853 3.30338,4.93951 3.30968,4.94044 3.31607,4.94132 3.32254,4.94214 3.3291,4.94291 3.33574,4.94361 3.34245,4.94427 3.34925,4.94486 3.35611,4.9454 3.36305,4.94587 3.37005,4.94629 3.37712,4.94665 3.38425,4.94694 3.39144,4.94717 3.39868,4.94733 3.40598,4.94743 3.41333,4.94746 3.41928,4.94744 3.4252,4.94737 3.43108,4.94727 3.43693,4.94711 3.44274,4.94693 3.4485,4.94669 3.45424,4.94642 3.45992,4.9461 3.46557,4.94575 3.47117,4.94535 3.47672,4.94492 3.48223,4.94445 3.48769,4.94394 3.49309,4.94339 3.49845,4.94281 3.50376,4.94219 3.509,4.94153 3.51419,4.94083 3.51933,4.94011 3.5244,4.93934 3.52942,4.93854 3.53437,4.93771 3.53926,4.93685 3.54408,4.93595 3.54884,4.93502 3.55353,4.93406 3.55815,4.93306 3.5627,4.93204 3.56718,4.93098 3.57159,4.92989 3.57592,4.92878 "/>
     <polygon id="_442122824" class="fil1" points="3.83138,5.20426 7.61765,8.99054 7.61349,8.98691 7.60965,8.98387 7.60611,8.9814 7.60283,8.97946 7.59977,8.97802 7.59691,8.97704 7.59421,8.9765 7.59163,8.97637 7.58915,8.9766 7.58674,8.97717 7.58435,8.97805 7.58196,8.9792 7.57953,8.98061 7.57704,8.98222 7.57444,8.98401 7.5717,8.98594 7.5688,8.988 7.5657,8.99014 7.56237,8.99233 7.55877,8.99455 7.55488,8.99675 7.55065,8.99891 7.54606,9.00099 7.54107,9.00297 7.53565,9.0048 7.52976,9.00647 7.52339,9.00794 7.51648,9.00917 7.50902,9.01013 7.50095,9.0108 7.49227,9.01114 7.48232,9.01104 7.47274,9.01042 7.46357,9.00935 7.45485,9.00791 7.44661,9.00617 7.43889,9.0042 7.43172,9.00207 7.42516,8.99986 7.41922,8.99764 7.41396,8.99548 7.40941,8.99345 7.40559,8.99163 7.40256,8.99009 7.40035,8.9889 7.399,8.98813 7.39854,8.98786 3.61227,5.20159 3.61273,5.20186 3.61409,5.20263 3.6163,5.20382 3.61933,5.20536 3.62314,5.20718 3.62769,5.20921 3.63296,5.21137 3.63889,5.21359 3.64546,5.2158 3.65262,5.21793 3.66034,5.2199 3.66858,5.22164 3.6773,5.22308 3.68647,5.22415 3.69605,5.22476 3.706,5.22487 3.71469,5.22453 3.72275,5.22386 3.73021,5.2229 3.73712,5.22167 3.7435,5.2202 3.74938,5.21853 3.7548,5.2167 3.75979,5.21472 3.76438,5.21263 3.76861,5.21048 3.7725,5.20828 3.7761,5.20606 3.77944,5.20387 3.78254,5.20173 3.78544,5.19967 3.78817,5.19774 3.79077,5.19594 3.79326,5.19433 3.79569,5.19293 3.79808,5.19178 3.80047,5.1909 3.80289,5.19033 3.80537,5.19009 3.80794,5.19023 3.81064,5.19077 3.8135,5.19175 3.81656,5.19319 3.81984,5.19513 3.82339,5.1976 3.82722,5.20063 "/>
     <polygon id="_442123616" class="fil1" points="3.67949,5.04587 7.46576,8.83214 7.46044,8.82855 7.45478,8.8242 7.44882,8.81915 7.44263,8.81345 3.65636,5.02718 3.66256,5.03288 3.66851,5.03793 3.67417,5.04228 "/>
     <polygon id="_442123328" class="fil1" points="3.7073,5.06214 7.49357,8.84841 7.49013,8.84652 7.48669,8.84458 7.48322,8.84261 7.47975,8.84059 7.47627,8.83854 7.47278,8.83645 7.46927,8.83431 7.46576,8.83214 3.67949,5.04587 3.683,5.04804 3.68651,5.05018 3.69,5.05227 3.69348,5.05432 3.69696,5.05633 3.70042,5.05831 3.70387,5.06024 "/>
     <polygon id="_442123496" class="fil1" points="4.01459,5.22348 7.80085,9.00975 7.79365,9.01527 7.78626,9.02069 7.77879,9.02597 7.77131,9.03109 7.76392,9.03599 7.7567,9.04066 7.74975,9.04505 7.74315,9.04913 7.73699,9.05285 7.73137,9.0562 7.72636,9.05913 7.72207,9.06161 7.71857,9.06359 7.71597,9.06506 7.71434,9.06596 7.71378,9.06627 3.92751,5.28 3.92807,5.27969 3.9297,5.27878 3.93231,5.27732 3.9358,5.27533 3.94009,5.27286 3.9451,5.26993 3.95072,5.26658 3.95688,5.26285 3.96348,5.25878 3.97043,5.25439 3.97765,5.24972 3.98504,5.24481 3.99252,5.2397 4,5.23442 4.00738,5.229 "/>
     <polygon id="_442123928" class="fil1" points="3.21698,4.91809 7.00324,8.70436 7.00061,8.70928 6.99785,8.71423 6.995,8.71919 6.99205,8.72415 6.989,8.72911 6.98588,8.73406 6.98267,8.73898 6.9794,8.74388 6.97607,8.74874 6.97268,8.75356 6.96924,8.75833 6.96576,8.76304 6.96225,8.76767 6.95871,8.77224 6.95516,8.77671 6.95159,8.78109 6.94802,8.78538 6.94444,8.78956 6.94088,8.79361 6.93734,8.79755 6.93382,8.80135 6.93033,8.80502 6.92687,8.80853 6.92347,8.81189 6.92011,8.81508 6.91682,8.8181 6.91359,8.82094 6.91044,8.82359 6.90737,8.82604 6.90438,8.82829 6.90149,8.83033 6.8987,8.83214 3.11244,5.04587 3.11522,5.04406 3.11811,5.04202 3.1211,5.03977 3.12417,5.03731 3.12732,5.03467 3.13055,5.03183 3.13385,5.02881 3.1372,5.02561 3.14061,5.02226 3.14406,5.01874 3.14755,5.01508 3.15107,5.01128 3.15461,5.00734 3.15818,5.00328 3.16175,4.99911 3.16532,4.99482 3.16889,4.99044 3.17244,4.98596 3.17598,4.9814 3.1795,4.97676 3.18297,4.97206 3.18641,4.96729 3.1898,4.96247 3.19313,4.95761 3.19641,4.95271 3.19961,4.94779 3.20274,4.94284 3.20578,4.93788 3.20873,4.93292 3.21159,4.92796 3.21434,4.92301 "/>
     <polygon id="_442123376" class="fil1" points="3.11244,5.04587 6.8987,8.83214 6.89727,8.83303 6.89584,8.83391 6.89441,8.83479 6.89299,8.83566 6.89156,8.83652 6.89014,8.83738 6.88872,8.83823 6.88731,8.83907 3.10104,5.0528 3.10246,5.05196 3.10387,5.05111 3.1053,5.05025 3.10672,5.04939 3.10815,5.04852 3.10957,5.04764 3.111,5.04676 "/>
     <polygon id="_442123784" class="fil1" points="3.14142,5.08145 6.92769,8.86772 6.93419,8.87382 6.94021,8.87999 6.94577,8.8862 6.95088,8.89244 6.95557,8.89867 6.95985,8.90487 6.96374,8.91103 6.96726,8.91711 6.97043,8.9231 6.97326,8.92897 6.97578,8.9347 6.97801,8.94026 6.97996,8.94563 6.98165,8.95079 6.98309,8.95571 6.98432,8.96037 6.98534,8.96475 6.98618,8.96883 6.98685,8.97257 6.98737,8.97596 6.98776,8.97898 6.98804,8.98159 6.98823,8.98379 6.98834,8.98553 6.9884,8.98681 6.98842,8.98759 6.98843,8.98786 3.20216,5.20159 3.20215,5.20132 3.20213,5.20054 3.20207,5.19926 3.20196,5.19752 3.20177,5.19532 3.20149,5.19271 3.2011,5.18969 3.20058,5.1863 3.19991,5.18256 3.19907,5.17848 3.19805,5.1741 3.19683,5.16944 3.19538,5.16452 3.19369,5.15935 3.19174,5.15398 3.18952,5.14843 3.187,5.1427 3.18416,5.13683 3.18099,5.13084 3.17747,5.12476 3.17358,5.1186 3.1693,5.11239 3.16461,5.10617 3.1595,5.09993 3.15394,5.09372 3.14792,5.08755 "/>
     <polygon id="_442123568" class="fil1" points="3.20216,5.20159 6.98843,8.98786 6.98302,8.99157 6.97763,8.99498 6.97227,8.9981 6.96694,9.00092 6.96163,9.00347 6.95637,9.00575 6.95114,9.00777 6.94595,9.00954 6.94081,9.01107 6.93572,9.01237 6.93069,9.01345 6.9257,9.01432 6.92078,9.01498 6.91593,9.01546 6.91113,9.01574 6.90641,9.01585 6.88908,9.0153 6.87482,9.01356 6.86326,9.01091 6.854,9.00761 6.84666,9.00389 6.84086,9.00003 6.83621,8.99628 6.83233,8.99289 6.82883,8.99012 6.82534,8.98824 6.82146,8.98749 6.81682,8.98813 6.81102,8.99042 6.80369,8.99461 6.79444,9.00097 6.78288,9.00975 2.99661,5.22348 3.00817,5.2147 3.01743,5.20834 3.02476,5.20415 3.03056,5.20186 3.0352,5.20122 3.03907,5.20196 3.04257,5.20385 3.04606,5.20662 3.04994,5.21 3.05459,5.21376 3.06039,5.21762 3.06773,5.22133 3.07699,5.22464 3.08856,5.22729 3.10281,5.22902 3.12014,5.22958 3.12486,5.22947 3.12966,5.22919 3.13452,5.22871 3.13944,5.22805 3.14442,5.22718 3.14946,5.2261 3.15455,5.2248 3.15969,5.22327 3.16487,5.2215 3.1701,5.21948 3.17537,5.2172 3.18067,5.21465 3.186,5.21183 3.19136,5.20871 3.19675,5.2053 "/>
     <polygon id="_442124840" class="fil1" points="2.99661,5.22348 6.78288,9.00975 6.77568,9.01527 6.76829,9.02069 6.76081,9.02597 6.75334,9.03109 6.74594,9.03599 6.73873,9.04066 6.73178,9.04505 6.72518,9.04913 6.71902,9.05285 6.7134,9.0562 6.70839,9.05913 6.7041,9.06161 6.70061,9.06359 6.698,9.06506 6.69637,9.06596 6.69581,9.06627 2.90954,5.28 2.9101,5.27969 2.91173,5.27878 2.91434,5.27732 2.91783,5.27533 2.92213,5.27286 2.92713,5.26993 2.93275,5.26658 2.93891,5.26285 2.94551,5.25878 2.95246,5.25439 2.95968,5.24972 2.96707,5.24481 2.97455,5.2397 2.98202,5.23442 2.98941,5.229 "/>
     <polygon id="_442127960" class="fil1" points="2.90954,5.28 6.69581,9.06627 6.69178,9.06426 6.68768,9.06203 6.68351,9.05961 6.67928,9.057 6.67501,9.05422 6.6707,9.0513 6.66637,9.04824 6.66203,9.04506 6.65769,9.04178 6.65335,9.03841 6.64905,9.03496 6.64477,9.03146 6.64054,9.02792 6.63636,9.02435 6.63225,9.02078 2.84598,5.23451 2.85009,5.23808 2.85427,5.24165 2.8585,5.24519 2.86278,5.24869 2.86709,5.25213 2.87142,5.2555 2.87576,5.25879 2.8801,5.26197 2.88443,5.26503 2.88874,5.26795 2.89302,5.27072 2.89724,5.27333 2.90141,5.27576 2.90552,5.27798 "/>
     <polygon id="_442128152" class="fil1" points="2.80925,5.20063 6.59552,8.98691 6.59169,8.98387 6.58814,8.9814 6.58486,8.97946 6.5818,8.97802 6.57894,8.97704 6.57624,8.9765 6.57367,8.97637 6.57119,8.9766 6.56877,8.97717 6.56638,8.97805 6.56399,8.9792 6.56156,8.98061 6.55907,8.98222 6.55647,8.98401 6.55374,8.98594 6.55083,8.988 6.54774,8.99014 6.5444,8.99233 6.5408,8.99455 6.53691,8.99675 6.53268,8.99891 6.52809,9.00099 6.5231,9.00297 6.51768,9.0048 6.5118,9.00647 6.50542,9.00794 6.49851,9.00917 6.49105,9.01013 6.48298,9.0108 6.4743,9.01114 6.46435,9.01104 6.45477,9.01042 6.4456,9.00935 6.43688,9.00791 6.42864,9.00617 6.42092,9.0042 6.41376,9.00207 6.40719,8.99986 6.40126,8.99764 6.39599,8.99548 6.39143,8.99345 6.38762,8.99163 6.38459,8.99009 6.38238,8.9889 6.38103,8.98813 6.38057,8.98786 2.5943,5.20159 2.59476,5.20186 2.59611,5.20263 2.59832,5.20382 2.60135,5.20536 2.60517,5.20718 2.60972,5.20921 2.61499,5.21137 2.62092,5.21359 2.62749,5.2158 2.63465,5.21793 2.64237,5.2199 2.65061,5.22164 2.65933,5.22308 2.6685,5.22415 2.67808,5.22476 2.68803,5.22487 2.69672,5.22453 2.70478,5.22386 2.71224,5.2229 2.71915,5.22167 2.72553,5.2202 2.73141,5.21853 2.73683,5.2167 2.74182,5.21472 2.74641,5.21263 2.75064,5.21048 2.75454,5.20828 2.75813,5.20606 2.76147,5.20387 2.76457,5.20173 2.76747,5.19967 2.7702,5.19774 2.7728,5.19594 2.7753,5.19433 2.77772,5.19293 2.78011,5.19178 2.7825,5.1909 2.78492,5.19033 2.7874,5.19009 2.78997,5.19023 2.79267,5.19077 2.79554,5.19175 2.79859,5.19319 2.80187,5.19513 2.80542,5.1976 "/>
     <polygon id="_442128440" class="fil1" points="3.92751,5.28 7.71378,9.06627 7.70975,9.06426 7.70565,9.06203 7.70148,9.05961 7.69725,9.057 7.69298,9.05422 7.68867,9.0513 7.68434,9.04824 7.68,9.04506 7.67566,9.04178 7.67133,9.03841 7.66702,9.03496 7.66274,9.03146 7.65851,9.02792 7.65433,9.02435 7.65022,9.02078 7.64619,9.01721 3.85993,5.23094 3.86396,5.23451 3.86807,5.23808 3.87224,5.24165 3.87647,5.24519 3.88075,5.24869 3.88506,5.25213 3.88939,5.2555 3.89374,5.25879 3.89807,5.26197 3.90241,5.26503 3.90671,5.26795 3.91098,5.27072 3.91521,5.27333 3.91938,5.27576 3.92348,5.27798 "/>
     <polygon id="_442127936" class="fil1" points="3.85993,5.23094 7.64619,9.01721 7.64291,9.01426 7.63969,9.01133 7.63654,9.00844 3.85027,5.22217 3.85342,5.22506 3.85664,5.22799 "/>
     <polygon id="_442129232" class="fil1" points="3.88597,1.7142 7.67224,5.50047 7.68919,5.52033 7.70484,5.54109 7.71922,5.5627 7.73234,5.58512 7.74424,5.60833 7.75496,5.63228 7.76452,5.65694 7.77294,5.68227 7.78026,5.70824 7.78652,5.73482 7.79173,5.76196 7.79592,5.78963 7.79913,5.81779 7.80139,5.84641 7.80273,5.87545 7.80317,5.90488 4.0169,2.11861 4.01646,2.08918 4.01513,2.06014 4.01287,2.03152 4.00965,2.00335 4.00546,1.97569 4.00025,1.94855 3.994,1.92197 3.98667,1.896 3.97825,1.87067 3.96869,1.846 3.95798,1.82206 3.94607,1.79885 3.93295,1.77643 3.91857,1.75481 3.90293,1.73406 "/>
     <polygon id="_442129160" class="fil1" points="4.0169,2.11861 7.80317,5.90488 7.80316,5.90723 7.80315,5.90958 7.80312,5.91193 7.80309,5.91428 7.80304,5.91663 7.80298,5.91897 7.80292,5.92131 7.80285,5.92365 4.01658,2.13737 4.01665,2.13504 4.01672,2.1327 4.01677,2.13035 4.01682,2.12801 4.01685,2.12566 4.01688,2.12331 4.01689,2.12096 "/>
     <polygon id="_442128728" class="fil1" points="4.01658,2.13737 7.80285,5.92365 7.80366,5.93839 7.80451,5.95371 7.80541,5.96957 7.80636,5.98595 7.80735,6.00279 7.80839,6.02008 7.80948,6.03777 7.8106,6.05583 7.81177,6.07422 7.81298,6.09293 7.81424,6.11189 7.81554,6.13109 7.81689,6.15049 7.81828,6.17006 7.8197,6.18975 7.82118,6.20954 7.82269,6.22939 7.82424,6.24927 7.82584,6.26914 7.82748,6.28897 7.82915,6.30873 7.83087,6.32837 7.83263,6.34787 7.83443,6.3672 7.83627,6.38631 7.83815,6.40517 7.84006,6.42375 7.84202,6.44201 7.84401,6.45993 7.84605,6.47746 7.84811,6.49457 7.85022,6.51122 4.06396,2.72495 4.06185,2.7083 4.05978,2.69119 4.05774,2.67365 4.05575,2.65574 4.0538,2.63748 4.05188,2.6189 4.05,2.60004 4.04816,2.58093 4.04637,2.5616 4.04461,2.5421 4.04289,2.52246 4.04121,2.5027 4.03957,2.48287 4.03798,2.463 4.03642,2.44312 4.03491,2.42327 4.03344,2.40348 4.03201,2.38378 4.03062,2.36422 4.02928,2.34482 4.02798,2.32562 4.02672,2.30665 4.0255,2.28795 4.02433,2.26956 4.02321,2.2515 4.02213,2.23381 4.02109,2.21652 4.02009,2.19968 4.01915,2.1833 4.01824,2.16744 4.01739,2.15212 "/>
    </g>
    <path id="_637660072" class="fil1" d="M4.06396 2.72495c0.0679803,0.174839 0.262311,0.605197 0.602354,0.835213 0.433453,0.293134 -0.0264764,0.356295 -0.194035,0.306539 -0.0430118,-0.012752 -0.0857087,-0.0313976 -0.126776,-0.0585197 0.0330433,0.167957 0.0464724,0.325516 0.0221457,0.465961l0.00292126 -0.00227165c0,0 -0.0725157,0.548862 -0.30411,0.758319 0.153669,0.0495551 0.153669,0.171394 0.153669,0.171394 -0.0288937,0.0206496 -0.0570197,0.0278465 -0.0820118,0.0279961 -0.101311,0.000610236 -0.0550591,-0.0598189 -0.123528,-0.0061063 -0.0377835,0.0296457 -0.0870748,0.0565197 -0.0870787,0.0565197 -0.0212244,-0.0101339 -0.046311,-0.0300709 -0.0675827,-0.0490551 -0.00885433,-0.00788976 -0.0170512,-0.0156339 -0.0240315,-0.0224252 -0.0501929,-0.0488228 -0.0337756,0.014626 -0.129894,0.0163504 -0.0539843,0.000968504 -0.0937283,-0.0232795 -0.0937283,-0.0232795 0,-0.0549213 0.0365079,-0.104457 0.0950315,-0.139449 -0.00915354,-0.005 -0.0184252,-0.0104173 -0.027815,-0.0162677 -0.0273858,-0.0170591 -0.0712913,-0.0685984 -0.0993189,-0.118236 -0.0449567,0.0123661 -0.103205,0.0198268 -0.166839,0.0198268 -0.0786614,0 -0.149087,-0.0114016 -0.196354,-0.029374 -0.0275157,0.0524134 -0.0753858,0.109626 -0.104539,0.127783 -0.00382283,0.00238189 -0.00762205,0.00468898 -0.0113976,0.00692913 0.101118,0.0566142 0.101118,0.148787 0.101118,0.148787 -0.0288937,0.0206496 -0.0570236,0.0278465 -0.0820157,0.0279961 -0.101311,0.000610236 -0.0550591,-0.0598189 -0.123528,-0.0061063 -0.0377835,0.0296457 -0.0870709,0.0565197 -0.0870748,0.0565197 -0.0212283,-0.0101339 -0.046315,-0.0300709 -0.0675866,-0.0490551 -0.00885039,-0.00788976 -0.0170472,-0.0156339 -0.0240276,-0.0224252 -0.0501929,-0.0488228 -0.0337756,0.014626 -0.129894,0.0163504 -0.0539843,0.000968504 -0.0937323,-0.0232795 -0.0937323,-0.0232795 0,-0.0697047 0.058811,-0.130736 0.146795,-0.16437 -0.226913,-0.203906 -0.282114,-0.765343 -0.282114,-0.765343l0.00217323 0.00177165c-0.0262362,-0.139256 -0.0148819,-0.295319 0.0166024,-0.461646 -0.0402992,0.0257402 -0.0820591,0.0434724 -0.124075,0.0556024 -0.167953,0.0485315 -0.627386,-0.0179134 -0.191854,-0.307965 0.326799,-0.217606 0.521626,-0.619457 0.598547,-0.806583 0.0267402,-0.178465 0.0420787,-0.452303 0.0482047,-0.581461 -0.000275591,-0.0171024 -0.000188976,-0.0347559 0.000267717,-0.0529882 0.00788976,-0.315748 0.0893898,-0.571945 0.604047,-0.571945 0.456193,0 0.604004,0.256118 0.604004,0.571945 0,0.00627953 -0.000106299,0.0125354 -0.000318898,0.0187677 0.00839764,0.154079 0.024689,0.412441 0.047378,0.587579z"/>
   </g>
  </g>
  <path class="fil2" d="M3.41333 -3.93701e-006c1.88513,0 3.41333,1.5282 3.41333,3.41333 0,1.88513 -1.5282,3.41333 -3.41333,3.41333 -1.88513,0 -3.41333,-1.5282 -3.41333,-3.41333 0,-1.88513 1.5282,-3.41333 3.41333,-3.41333z"/>
  <ellipse class="fil3" cx="3.41333" cy="4.8641" rx="0.25769" ry="0.0833565"/>
  <path class="fil4" d="M4.03614 2.64816c0,0 0.196689,0.618783 0.630169,0.912004 0.433453,0.293134 -0.0264764,0.356295 -0.194035,0.306539 -0.198665,-0.0588937 -0.390646,-0.24361 -0.446508,-0.808134l0.010374 -0.410409z"/>
  <path class="fil4" d="M2.79852 2.65228c0,0 -0.201126,0.617327 -0.636693,0.907358 -0.435531,0.290051 0.0239016,0.356496 0.191854,0.307965 0.199075,-0.0574646 0.392362,-0.240791 0.452295,-0.804933l-0.00745669 -0.41039z"/>
  <path class="fil3" d="M2.45898 4.27187c0,0 0.109429,1.11295 0.653457,0.773996 0.0330079,-0.0205591 0.0900118,-0.0911811 0.114295,-0.14822l-0.767752 -0.625776z"/>
  <path class="fil3" d="M4.37057 4.27187c0,0 -0.147043,1.11295 -0.691079,0.773996 -0.033,-0.0205591 -0.0899921,-0.0911811 -0.114276,-0.14822l0.805354 -0.625776z"/>
  <path class="fil5" d="M3.20216 5.20159c0,0 0,-0.191984 -0.303953,-0.191984 -0.167831,0 -0.303906,0.0859567 -0.303906,0.191984 0,0 0.039748,0.024248 0.0937323,0.0232795 0.0961181,-0.00172441 0.0797008,-0.0651732 0.129894,-0.0163504 0.00698031,0.00679134 0.0151772,0.0145354 0.0240276,0.0224252 0.0212717,0.0189843 0.0463583,0.0389213 0.0675866,0.0490551 3.93701e-006,0 0.0492913,-0.026874 0.0870748,-0.0565197 0.0684685,-0.0537126 0.0222165,0.00671654 0.123528,0.0061063 0.0249921,-0.000149606 0.053122,-0.00734646 0.0820157,-0.0279961z"/>
  <path class="fil5" d="M4.22013 5.20159c0,0 0,-0.191984 -0.303949,-0.191984 -0.167835,0 -0.303906,0.0859567 -0.303906,0.191984 0,0 0.0397441,0.024248 0.0937283,0.0232795 0.0961181,-0.00172441 0.0797008,-0.0651732 0.129894,-0.0163504 0.00698031,0.00679134 0.0151772,0.0145354 0.0240315,0.0224252 0.0212717,0.0189843 0.0463583,0.0389213 0.0675827,0.0490551 3.93701e-006,0 0.0492953,-0.026874 0.0870787,-0.0565197 0.0684685,-0.0537126 0.0222165,0.00671654 0.123528,0.0061063 0.0249921,-0.000149606 0.0531181,-0.00734646 0.0820118,-0.0279961z"/>
  <path class="fil3" d="M4.0169 2.11861c0,0.315874 -0.270402,0.571925 -0.604004,0.571925 -0.333614,0 -0.616949,-0.0578504 -0.604047,-0.571925 0.00788976,-0.315748 0.0893898,-0.571945 0.604047,-0.571945 0.456193,0 0.604004,0.256118 0.604004,0.571945z"/>
  <path class="fil3" d="M4.01009 2.00788c0,0 0.0284921,0.656378 0.0765236,0.849386 0.141374,0.568185 0.401819,1.15052 0.244685,1.54826 -0.157083,0.397783 -0.0529409,0.44615 -0.469815,0.503976l-0.220941 -0.000799213c-0.798134,0.0397008 -0.975579,-0.105394 -1.14061,-0.503177 -0.16502,-0.397736 0.091878,-0.980071 0.24039,-1.54826 0.0504409,-0.193016 0.0714016,-0.757835 0.0714016,-0.757835l1.19837 -0.0915512z"/>
  <path class="fil6" d="M3.92843 4.79824c0.132299,-0.106028 0.199449,-0.19278 0.236079,-0.50124 0.0366181,-0.308425 -0.021374,-0.453 -0.0599331,-0.633925 -0.0385472,-0.180965 -0.179854,-0.836244 -0.209831,-0.939134 -0.0256614,-0.0880236 -0.146949,-0.102988 -0.146949,-0.102988 0.186201,-0.139764 0.203949,-0.335189 0.180634,-0.554524 -0.0436693,-0.411028 -0.480071,-0.438016 -0.509961,0l-0.00559055 0c-0.0234764,-0.445071 -0.471906,-0.402528 -0.514646,0 -0.0249646,0.234882 -0.00826772,0.407783 0.187256,0.554524 0,0 -0.125665,0.0149646 -0.154272,0.105283 -0.032378,0.102189 -0.170598,0.755878 -0.209161,0.936839 -0.0385276,0.180925 -0.0965157,0.3255 -0.0599213,0.633925 0.0366496,0.308461 0.103787,0.395213 0.236098,0.50124 0.13228,0.106047 0.35465,0.0134685 0.502445,0.0134685 0.160409,0 0.398953,0.0897756 0.527752,-0.0134685z"/>
  <path class="fil7" d="M3.41381 2.22238l-7.87402e-006 3.93701e-006 -1.1811e-005 -3.93701e-006 0 7.87402e-006 -0.107634 0.0577795c0,0 -0.0857087,0.0297362 0.107634,0.314508l0 2.75591e-005 1.1811e-005 -1.1811e-005 7.87402e-006 1.1811e-005 0 -2.75591e-005c0.193343,-0.284772 0.107626,-0.314508 0.107626,-0.314508l-0.107626 -0.0577795 0 -7.87402e-006z"/>
  <path class="fil5" d="M3.41268 2.2137l-0.107654 0.0434882c0,0 -0.0857283,0.0223661 0.107654,0.236638l0 -0.280126z"/>
  <path class="fil8" d="M3.41265 2.2137l0.107657 0.0434882c0,0 0.0857441,0.0223661 -0.107657,0.236638l0 -0.280126z"/>
  <path class="fil9" d="M3.2193 2.21161c-0.00797244,0 -0.0144646,-0.00645276 -0.0144646,-0.0144409 0,-0.0246417 -0.0200551,-0.0446969 -0.0447087,-0.0446969 -0.0246575,0 -0.0447283,0.0200551 -0.0447283,0.0446969 0,0.00798031 -0.00647638,0.0144409 -0.0144606,0.0144409 -0.00798819,0 -0.0144606,-0.00645276 -0.0144606,-0.0144409 0,-0.0405827 0.0330354,-0.0736142 0.0736496,-0.0736142 0.0405945,0 0.0736457,0.0330354 0.0736457,0.0736142 0,0.00798031 -0.00649213,0.0144409 -0.0144724,0.0144409z"/>
  <path class="fil9" d="M3.69551 2.21161c-0.00798425,0 -0.0144567,-0.00645276 -0.0144567,-0.0144409 0,-0.0246417 -0.0200551,-0.0446969 -0.0447323,-0.0446969 -0.0246693,0 -0.0447441,0.0200551 -0.0447441,0.0446969 7.87402e-006,0.00798031 -0.00645276,0.0144409 -0.0144567,0.0144409 -0.00798425,0 -0.0144449,-0.00645276 -0.0144449,-0.0144409 3.93701e-006,-0.0405827 0.0330354,-0.0736142 0.0736457,-0.0736142 0.0406024,0 0.0736299,0.0330354 0.0736299,0.0736142 3.93701e-006,0.00798031 -0.00645276,0.0144409 -0.0144409,0.0144409z"/>
  <circle class="fil3" cx="3.16013" cy="2.20378" r="0.0409682"/>
  <circle class="fil3" cx="3.63632" cy="2.20378" r="0.0409682"/>
 </g>
</svg>
