<?xml version="1.0" encoding="UTF-8"?>
<!DOCTYPE svg PUBLIC "-//W3C//DTD SVG 1.1//EN" "http://www.w3.org/Graphics/SVG/1.1/DTD/svg11.dtd">
<!-- Creator: CorelDRAW -->
<svg xmlns="http://www.w3.org/2000/svg" xml:space="preserve" width="6.82666in" height="6.82666in" style="shape-rendering:geometricPrecision; text-rendering:geometricPrecision; image-rendering:optimizeQuality; fill-rule:evenodd; clip-rule:evenodd"
viewBox="0 0 6.82666 6.82666"
 xmlns:xlink="http://www.w3.org/1999/xlink">
 <defs>
  <style type="text/css">
   <![CDATA[
    .fil2 {fill:none}
    .fil9 {fill:#212121}
    .fil5 {fill:#673B15}
    .fil1 {fill:#E9BB77}
    .fil8 {fill:#FAFAFA}
    .fil0 {fill:#FFCC80}
    .fil7 {fill:#212121;fill-rule:nonzero}
    .fil3 {fill:#41281A;fill-rule:nonzero}
    .fil6 {fill:#424242;fill-rule:nonzero}
    .fil10 {fill:#5E3512;fill-rule:nonzero}
    .fil4 {fill:#673B15;fill-rule:nonzero}
   ]]>
  </style>
   <clipPath id="id0">
    <path d="M3.41333 -3.93701e-006c1.88513,0 3.41333,1.5282 3.41333,3.41333 0,1.88513 -1.5282,3.41333 -3.41333,3.41333 -1.88513,0 -3.41333,-1.5282 -3.41333,-3.41333 0,-1.88513 1.5282,-3.41333 3.41333,-3.41333z"/>
   </clipPath>
 </defs>
 <g id="Layer_x0020_1">
  <metadata id="CorelCorpID_0Corel-Layer"/>
  <path class="fil0" d="M3.41333 -3.93701e-006c1.88513,0 3.41333,1.5282 3.41333,3.41333 0,1.88513 -1.5282,3.41333 -3.41333,3.41333 -1.88513,0 -3.41333,-1.5282 -3.41333,-3.41333 0,-1.88513 1.5282,-3.41333 3.41333,-3.41333z"/>
  <g style="clip-path:url(#id0)">
   <g id="_637653328">
    <g>
     <polygon id="_2169378241" class="fil1" points="2.66364,2.67038 6.44991,6.45665 6.45613,6.463 6.46222,6.46952 6.46815,6.4762 6.47393,6.48305 6.47956,6.49007 6.48503,6.49725 6.49033,6.5046 6.49547,6.51211 6.50044,6.51977 6.50523,6.5276 6.50985,6.53558 6.51428,6.54372 6.51852,6.55202 2.73225,2.76574 2.72801,2.75745 2.72358,2.74931 2.71896,2.74133 2.71417,2.7335 2.7092,2.72583 2.70407,2.71833 2.69876,2.71098 2.69329,2.7038 2.68767,2.69678 2.68188,2.68993 2.67595,2.68324 2.66987,2.67672 "/>
     <polygon id="_216938280" class="fil1" points="2.73225,2.76574 6.51852,6.55202 6.52203,6.55923 6.52541,6.56648 6.52868,6.57375 6.53182,6.58105 6.53484,6.58837 6.53775,6.59572 6.54053,6.60309 6.54319,6.61049 6.54573,6.6179 6.54816,6.62534 6.55046,6.63279 6.55265,6.64026 6.55472,6.64774 6.55667,6.65524 6.55851,6.66275 6.56023,6.67028 6.56183,6.67781 6.56332,6.68535 6.56469,6.69291 6.56595,6.70047 6.56709,6.70804 6.56812,6.71561 6.56904,6.72318 6.56984,6.73076 6.57053,6.73834 6.57111,6.74592 6.57157,6.7535 6.57193,6.76107 6.57217,6.76865 6.5723,6.77621 6.57232,6.78377 6.57224,6.79133 2.78597,3.00506 2.78606,2.9975 2.78604,2.98994 2.7859,2.98237 2.78566,2.9748 2.78531,2.96722 2.78484,2.95965 2.78426,2.95207 2.78357,2.94449 2.78277,2.93691 2.78185,2.92933 2.78082,2.92176 2.77968,2.9142 2.77843,2.90664 2.77705,2.89908 2.77556,2.89154 2.77396,2.884 2.77224,2.87648 2.77041,2.86897 2.76845,2.86147 2.76638,2.85398 2.76419,2.84652 2.76189,2.83907 2.75946,2.83163 2.75692,2.82422 2.75426,2.81682 2.75148,2.80945 2.74857,2.8021 2.74556,2.79478 2.74241,2.78748 2.73915,2.7802 2.73576,2.77296 "/>
     <polygon id="_216942672" class="fil1" points="3.23319,3.03245 7.01946,6.81872 7.0235,6.82283 7.02747,6.82701 7.03137,6.83126 7.0352,6.83557 7.03896,6.83994 7.04264,6.84439 7.04624,6.84889 7.04978,6.85346 7.05323,6.85809 7.05661,6.86278 7.05991,6.86752 7.06313,6.87233 7.06626,6.8772 7.06932,6.88212 7.0723,6.8871 7.07519,6.89213 3.28892,3.10586 3.28603,3.10083 3.28305,3.09585 3.28,3.09093 3.27686,3.08606 3.27364,3.08125 3.27034,3.0765 3.26696,3.07181 3.26351,3.06719 3.25998,3.06262 3.25637,3.05811 3.25269,3.05367 3.24893,3.0493 3.24511,3.04498 3.2412,3.04074 3.23723,3.03656 "/>
     <polygon id="_216943152" class="fil1" points="5.04218,3.08837 8.82844,6.87465 8.84311,6.89184 8.85743,6.9095 8.87142,6.92763 8.88505,6.94625 8.89832,6.96535 8.91122,6.98493 8.92374,7.00501 8.93587,7.02559 8.9476,7.04667 8.95892,7.06826 8.96981,7.09037 8.98028,7.113 8.99031,7.13615 8.99989,7.15983 9.009,7.18405 9.01765,7.20881 9.02582,7.23411 9.0335,7.25996 9.04068,7.28637 9.04735,7.31335 9.0535,7.34089 9.05913,7.369 9.06422,7.39769 5.27795,3.61142 5.27286,3.58273 5.26724,3.55462 5.26108,3.52708 5.25441,3.5001 5.24723,3.47369 5.23955,3.44784 5.23138,3.42254 5.22273,3.39778 5.21362,3.37356 5.20404,3.34987 5.19401,3.32672 5.18355,3.3041 5.17265,3.28199 5.16133,3.2604 5.1496,3.23931 5.13747,3.21874 5.12495,3.19866 5.11206,3.17907 5.09878,3.15998 5.08515,3.14136 5.07117,3.12323 5.05684,3.10557 "/>
     <polygon id="_216942744" class="fil1" points="5.27795,3.61142 9.06422,7.39769 9.06529,7.40525 9.06597,7.41253 9.06625,7.41955 9.06615,7.42631 9.06568,7.4328 9.06484,7.43905 9.06365,7.44504 9.0621,7.4508 9.06021,7.45631 9.05799,7.46158 9.05544,7.46663 9.05258,7.47146 9.04941,7.47606 9.04594,7.48044 9.04218,7.48462 9.03813,7.48859 9.03381,7.49236 9.02923,7.49593 9.02438,7.49931 9.01929,7.5025 9.01395,7.50552 9.00838,7.50835 9.00259,7.51101 8.99657,7.5135 8.99035,7.51583 8.98393,7.51799 8.97732,7.52001 8.97052,7.52187 8.96356,7.52359 8.95642,7.52517 8.94912,7.52661 8.94167,7.52793 5.15541,3.74165 5.16285,3.74034 5.17015,3.7389 5.17729,3.73732 5.18426,3.7356 5.19106,3.73374 5.19767,3.73172 5.20409,3.72956 5.21031,3.72723 5.21632,3.72474 5.22211,3.72207 5.22769,3.71924 5.23302,3.71623 5.23811,3.71304 5.24296,3.70966 5.24755,3.70609 5.25187,3.70232 5.25591,3.69835 5.25967,3.69417 5.26315,3.68979 5.26631,3.68519 5.26918,3.68036 5.27172,3.67531 5.27394,3.67004 5.27583,3.66452 5.27738,3.65877 5.27857,3.65278 5.27941,3.64653 5.27989,3.64004 5.27998,3.63328 5.2797,3.62626 5.27902,3.61898 "/>
     <polygon id="_216943488" class="fil1" points="5.15541,3.74165 8.94167,7.52793 8.93658,7.52874 8.93143,7.52948 8.92621,7.53017 8.92094,7.5308 8.91561,7.53138 8.91023,7.5319 8.90481,7.53237 8.89935,7.53279 8.89384,7.53317 8.8883,7.5335 8.88273,7.53378 8.87713,7.53403 8.87151,7.53423 8.86587,7.5344 8.8602,7.53454 8.85453,7.53464 8.84885,7.53471 8.84316,7.53475 8.83747,7.53476 8.83178,7.53475 8.8261,7.53472 8.82043,7.53466 8.81476,7.53459 8.80912,7.5345 8.80349,7.53439 8.79789,7.53428 8.79232,7.53415 8.78678,7.53401 8.78127,7.53387 8.7758,7.53372 8.77037,7.53357 8.76499,7.53341 4.97872,3.74714 4.98411,3.7473 4.98953,3.74744 4.995,3.74759 5.00051,3.74774 5.00605,3.74787 5.01163,3.748 5.01722,3.74812 5.02285,3.74823 5.0285,3.74832 5.03416,3.74839 5.03983,3.74844 5.04552,3.74848 5.0512,3.74849 5.05689,3.74848 5.06258,3.74844 5.06826,3.74837 5.07394,3.74826 5.0796,3.74813 5.08524,3.74796 5.09086,3.74776 5.09646,3.74751 5.10204,3.74722 5.10757,3.74689 5.11308,3.74652 5.11854,3.7461 5.12396,3.74563 5.12934,3.74511 5.13467,3.74453 5.13994,3.7439 5.14516,3.74321 5.15031,3.74246 "/>
     <polygon id="_216943944" class="fil1" points="4.97872,3.74714 8.76499,7.53341 8.76172,7.53332 8.75846,7.53323 8.7552,7.53314 8.75194,7.53306 8.74867,7.53297 8.74538,7.53289 8.74206,7.53281 8.7387,7.53274 8.7353,7.53268 8.73185,7.53262 8.72834,7.53257 8.72476,7.53253 8.72111,7.5325 8.71737,7.53247 8.71353,7.53245 8.7096,7.53245 4.92333,3.74618 4.92726,3.74618 4.9311,3.7462 4.93484,3.74622 4.93849,3.74626 4.94207,3.7463 4.94559,3.74635 4.94904,3.74641 4.95243,3.74647 4.95579,3.74654 4.95911,3.74662 4.9624,3.7467 4.96567,3.74678 4.96893,3.74687 4.97219,3.74696 4.97545,3.74705 "/>
     <polygon id="_216943392" class="fil1" points="4.92333,3.74618 8.7096,7.53245 8.2797,7.53245 4.49344,3.74618 "/>
     <polygon id="_216943248" class="fil1" points="4.49344,3.74618 8.2797,7.53245 8.28461,7.54004 8.28951,7.54763 8.2944,7.5552 8.29927,7.56276 8.30413,7.57031 8.30897,7.57785 8.3138,7.58537 8.31861,7.59288 8.3234,7.60037 8.32817,7.60783 8.33292,7.61528 8.33765,7.6227 8.34235,7.6301 8.34703,7.63747 8.35169,7.64482 8.35632,7.65214 4.57005,3.86587 4.56542,3.85855 4.56076,3.8512 4.55608,3.84383 4.55138,3.83643 4.54665,3.82901 4.5419,3.82156 4.53713,3.81409 4.53234,3.80661 4.52753,3.7991 4.5227,3.79158 4.51786,3.78404 4.513,3.77649 4.50813,3.76893 4.50324,3.76135 4.49835,3.75377 "/>
     <polygon id="_216943560" class="fil1" points="4.57005,3.86587 8.35632,7.65214 8.36585,7.66708 8.37531,7.68165 8.38468,7.69586 8.39396,7.70969 8.40312,7.72317 8.41216,7.73629 8.42106,7.74905 8.42982,7.76146 8.43842,7.77352 8.44684,7.78524 8.45509,7.79661 8.46313,7.80765 8.47097,7.81835 8.47859,7.82873 8.48598,7.83877 8.49313,7.84849 8.50001,7.85789 8.50663,7.86698 8.51297,7.87575 8.51902,7.88421 8.52476,7.89236 8.53019,7.90021 8.53528,7.90776 8.54004,7.91502 8.54444,7.92198 8.54848,7.92865 8.55214,7.93504 8.55541,7.94114 8.55828,7.94696 8.56074,7.95251 8.56277,7.95779 8.56437,7.9628 4.7781,4.17652 4.7765,4.17152 4.77447,4.16624 4.77202,4.16069 4.76915,4.15487 4.76587,4.14876 4.76221,4.14238 4.75818,4.1357 4.75377,4.12874 4.74902,4.12149 4.74392,4.11394 4.73849,4.10609 4.73275,4.09794 4.7267,4.08948 4.72037,4.0807 4.71374,4.07162 4.70686,4.06222 4.69971,4.0525 4.69233,4.04246 4.6847,4.03208 4.67687,4.02138 4.66882,4.01034 4.66057,3.99896 4.65215,3.98725 4.64355,3.97519 4.6348,3.96278 4.62589,3.95002 4.61685,3.9369 4.60769,3.92342 4.59841,3.90959 4.58904,3.89538 4.57958,3.88081 "/>
     <polygon id="_216943296" class="fil1" points="4.31882,3.74618 8.10509,7.53245 8.06101,7.53245 4.27474,3.74618 "/>
     <polygon id="_216943416" class="fil1" points="3.54875,3.46793 7.33502,7.2542 7.33196,7.25482 7.3289,7.2554 7.32582,7.25595 7.32273,7.25645 7.31962,7.25692 7.3165,7.25735 7.31337,7.25774 7.31023,7.25809 7.30708,7.25839 7.30391,7.25866 7.30073,7.25889 7.29755,7.25907 7.29435,7.25922 7.29114,7.25933 7.28792,7.25939 7.28469,7.25941 3.49842,3.47314 3.50165,3.47312 3.50487,3.47306 3.50808,3.47295 3.51128,3.4728 3.51446,3.47262 3.51764,3.47239 3.52081,3.47212 3.52396,3.47181 3.52711,3.47146 3.53024,3.47107 3.53335,3.47065 3.53646,3.47018 3.53955,3.46968 3.54263,3.46913 3.5457,3.46855 "/>
     <polygon id="_216943704" class="fil1" points="1.6775,2.05818 5.46377,5.84445 5.46815,5.84955 5.47207,5.85503 5.4755,5.86085 5.47841,5.867 5.48077,5.87343 5.48255,5.88011 5.48372,5.88703 1.69745,2.10076 1.69628,2.09384 1.6945,2.08715 1.69215,2.08072 1.68923,2.07458 1.6858,2.06876 1.68188,2.06328 "/>
     <polygon id="_216943608" class="fil1" points="3.73081,3.41168 7.51708,7.19795 7.51296,7.19901 7.50888,7.20007 7.50485,7.20112 7.50087,7.20216 7.49693,7.20319 7.49304,7.20421 7.48921,7.20522 7.48543,7.20623 7.48171,7.20722 7.47805,7.20819 7.47444,7.20916 7.47091,7.21011 7.46743,7.21104 7.46402,7.21196 7.46068,7.21287 7.45741,7.21375 3.67114,3.42748 3.67441,3.42659 3.67775,3.42569 3.68116,3.42477 3.68464,3.42383 3.68818,3.42289 3.69178,3.42192 3.69544,3.42094 3.69917,3.41996 3.70294,3.41895 3.70678,3.41794 3.71066,3.41692 3.7146,3.41589 3.71858,3.41485 3.72261,3.4138 3.72669,3.41274 "/>
     <polygon id="_216943776" class="fil1" points="3.84381,3.56698 7.63007,7.35325 7.62585,7.34898 3.83958,3.56271 "/>
     <polygon id="_216943824" class="fil1" points="4.27474,3.74618 8.06101,7.53245 8.04532,7.53225 8.02973,7.53165 8.01424,7.53066 7.99885,7.52928 7.98357,7.52752 7.9684,7.52539 7.95335,7.52287 7.93843,7.52 7.92363,7.51676 7.90897,7.51316 7.89444,7.5092 7.88006,7.5049 7.86583,7.50026 7.85175,7.49528 7.83783,7.48996 7.82407,7.48431 7.81048,7.47834 7.79706,7.47205 7.78382,7.46545 7.77076,7.45854 7.75789,7.45132 7.74521,7.4438 7.73273,7.43599 7.72045,7.42789 7.70838,7.41951 7.69652,7.41084 7.68487,7.4019 7.67345,7.39269 7.66226,7.38322 7.65129,7.37348 7.64056,7.36349 7.63007,7.35325 3.84381,3.56698 3.8543,3.57722 3.86502,3.58721 3.87599,3.59694 3.88719,3.60642 3.89861,3.61563 3.91025,3.62457 3.92211,3.63324 3.93419,3.64162 3.94646,3.64972 3.95894,3.65753 3.97163,3.66505 3.9845,3.67226 3.99756,3.67918 4.0108,3.68578 4.02421,3.69207 4.0378,3.69804 4.05156,3.70369 4.06548,3.709 4.07956,3.71398 4.0938,3.71863 4.10818,3.72293 4.1227,3.72689 4.13736,3.73048 4.15216,3.73372 4.16708,3.7366 4.18213,3.73911 4.1973,3.74125 4.21258,3.74301 4.22797,3.74439 4.24346,3.74538 4.25906,3.74598 "/>
     <polygon id="_216944328" class="fil1" points="1.69269,2.13788 5.47896,5.92415 5.47669,5.9293 5.47406,5.93424 5.47107,5.93895 5.46777,5.94342 5.46415,5.94763 5.46024,5.95156 5.45604,5.9552 5.45159,5.95852 5.44689,5.96152 5.44197,5.96418 5.43683,5.96647 5.43151,5.96838 5.426,5.9699 5.42034,5.971 5.41454,5.97168 5.40861,5.97191 1.62234,2.18564 1.62827,2.18541 1.63407,2.18473 1.63974,2.18363 1.64524,2.18211 1.65057,2.1802 1.6557,2.17791 1.66063,2.17525 1.66532,2.17225 1.66978,2.16893 1.67397,2.16529 1.67788,2.16135 1.6815,2.15715 1.68481,2.15268 1.68779,2.14796 1.69042,2.14303 "/>
     <polygon id="_216944664" class="fil1" points="1.98116,2.28027 5.76743,6.06654 5.75044,6.05101 5.7328,6.03621 5.71452,6.02216 5.69565,6.00889 5.6762,5.99641 5.65619,5.98476 5.63564,5.97396 5.61459,5.96404 5.59305,5.955 5.57106,5.9469 5.54863,5.93973 5.52578,5.93354 5.50255,5.92834 5.47896,5.92415 1.69269,2.13788 1.71628,2.14207 1.73951,2.14727 1.76236,2.15346 1.78479,2.16063 1.80678,2.16873 1.82832,2.17776 1.84937,2.18769 1.86992,2.19849 1.88993,2.21014 1.90938,2.22261 1.92826,2.23589 1.94653,2.24994 1.96417,2.26474 "/>
     <polygon id="_216944712" class="fil1" points="2.01765,2.26367 5.80391,6.04994 5.82052,6.06733 5.83639,6.08539 5.85151,6.1041 5.86585,6.12344 5.87939,6.14339 5.8921,6.16393 5.90397,6.18502 5.91496,6.20665 5.92505,6.22878 5.93422,6.25141 5.94245,6.2745 5.94971,6.29802 5.95597,6.32196 5.96122,6.34629 5.96542,6.37099 5.96856,6.39603 5.97061,6.42139 2.18434,2.63511 2.18229,2.60976 2.17915,2.58472 2.17495,2.56002 2.1697,2.53569 2.16344,2.51175 2.15619,2.48822 2.14796,2.46514 2.13878,2.44251 2.12869,2.42037 2.1177,2.39875 2.10583,2.37766 2.09312,2.35712 2.07958,2.33717 2.06524,2.31783 2.05012,2.29911 2.03425,2.28106 "/>
     <polygon id="_216944352" class="fil1" points="2.66176,3.33412 6.44803,7.12039 6.44385,7.12526 6.43959,7.13009 6.43528,7.13487 6.4309,7.1396 6.42646,7.14428 6.42195,7.14891 6.41739,7.15348 6.41275,7.15801 6.40806,7.16248 6.4033,7.1669 6.39848,7.17126 6.3936,7.17557 6.38866,7.17982 6.38366,7.18402 6.37859,7.18816 6.37347,7.19224 6.36828,7.19626 6.36304,7.20023 6.35773,7.20413 6.35236,7.20798 6.34694,7.21176 6.34145,7.21548 6.33591,7.21913 6.3303,7.22272 6.32464,7.22625 6.31892,7.22971 6.31314,7.23311 6.3073,7.23644 6.30141,7.2397 6.29545,7.2429 6.28944,7.24602 6.28338,7.24908 2.49711,3.46281 2.50318,3.45975 2.50919,3.45663 2.51514,3.45343 2.52103,3.45017 2.52687,3.44684 2.53265,3.44344 2.53837,3.43998 2.54403,3.43645 2.54964,3.43286 2.55518,3.4292 2.56067,3.42548 2.56609,3.4217 2.57146,3.41786 2.57677,3.41396 2.58201,3.40999 2.5872,3.40597 2.59233,3.40189 2.59739,3.39775 2.60239,3.39355 2.60733,3.3893 2.61222,3.38499 2.61704,3.38063 2.62179,3.3762 2.62648,3.37174 2.63112,3.36721 2.63569,3.36263 2.64019,3.358 2.64463,3.35333 2.64901,3.3486 2.65333,3.34382 2.65758,3.33899 "/>
     <polygon id="_216944520" class="fil1" points="2.73845,3.49282 6.52472,7.27909 6.51769,7.28532 6.51079,7.29156 6.50404,7.29779 6.4975,7.30398 6.49118,7.31012 6.48514,7.31618 6.47941,7.32213 6.47402,7.32796 6.46902,7.33365 6.46444,7.33916 6.46031,7.34448 6.45668,7.34958 6.45358,7.35444 6.45106,7.35904 6.44913,7.36336 6.44786,7.36737 2.66159,3.5811 2.66287,3.57709 2.66479,3.57277 2.66731,3.56817 2.67041,3.56331 2.67404,3.5582 2.67817,3.55289 2.68275,3.54737 2.68776,3.54169 2.69314,3.53586 2.69887,3.52991 2.70491,3.52385 2.71123,3.51771 2.71778,3.51152 2.72452,3.50529 2.73143,3.49905 "/>
     <polygon id="_216943992" class="fil1" points="2.49711,3.46281 6.28338,7.24908 6.0385,7.37046 2.25223,3.58419 "/>
     <polygon id="_216944088" class="fil1" points="3.31219,3.38645 7.09846,7.17272 7.09515,7.18151 7.0916,7.19017 7.08782,7.19871 7.08381,7.20713 7.07959,7.21541 7.07514,7.22357 7.07048,7.23158 7.0656,7.23946 7.06052,7.24719 7.05523,7.25476 7.04975,7.26219 7.04407,7.26946 7.03819,7.27657 7.03213,7.28351 7.02589,7.29029 7.01946,7.29689 3.23319,3.51062 3.23962,3.50402 3.24586,3.49724 3.25193,3.4903 3.2578,3.48319 3.26348,3.47592 3.26896,3.46849 3.27425,3.46091 3.27933,3.45319 3.28421,3.44531 3.28887,3.4373 3.29332,3.42914 3.29755,3.42086 3.30156,3.41244 3.30533,3.4039 3.30888,3.39524 "/>
     <polygon id="_216944064" class="fil1" points="3.49842,3.47314 7.28469,7.25941 7.27841,7.25933 7.27216,7.25909 7.26596,7.2587 7.2598,7.25815 7.25369,7.25745 7.24763,7.25661 7.24161,7.25561 7.23564,7.25446 7.22972,7.25318 7.22387,7.25175 7.21806,7.25018 7.21232,7.24847 7.20663,7.24662 7.20101,7.24464 7.19545,7.24253 7.18996,7.24028 7.18453,7.23791 7.17918,7.23541 7.17389,7.23278 7.16869,7.23004 7.16355,7.22717 7.15849,7.22418 7.15352,7.22107 7.14862,7.21785 7.14381,7.21451 7.13908,7.21106 7.13444,7.2075 7.12989,7.20383 7.12542,7.20006 7.12106,7.19619 7.11678,7.1922 7.1126,7.18813 3.32633,3.40185 3.33051,3.40593 3.33479,3.40991 3.33915,3.41379 3.34362,3.41756 3.34817,3.42123 3.35281,3.42479 3.35754,3.42824 3.36235,3.43157 3.36725,3.4348 3.37222,3.43791 3.37728,3.44089 3.38242,3.44376 3.38763,3.44651 3.39291,3.44914 3.39826,3.45164 3.40369,3.45401 3.40919,3.45626 3.41474,3.45837 3.42037,3.46035 3.42605,3.4622 3.4318,3.46391 3.4376,3.46548 3.44346,3.46691 3.44937,3.46819 3.45534,3.46933 3.46136,3.47033 3.46742,3.47118 3.47354,3.47188 3.47969,3.47243 3.48589,3.47282 3.49214,3.47306 "/>
     <polygon id="_216944184" class="fil1" points="3.67114,3.42748 7.45741,7.21375 7.46183,7.2261 7.46633,7.23865 7.47089,7.25141 7.47551,7.26434 7.48019,7.27745 7.48492,7.29073 7.48969,7.30416 7.49452,7.31774 7.49938,7.33145 7.50428,7.34529 7.5092,7.35924 7.51417,7.3733 7.51915,7.38744 7.52416,7.40168 7.52918,7.41598 7.53422,7.43035 7.53926,7.44477 7.54431,7.45924 7.54937,7.47373 7.55442,7.48825 7.55946,7.50278 7.56449,7.51731 7.56951,7.53184 7.57452,7.54635 7.5795,7.56082 7.58445,7.57526 7.58937,7.58965 7.59427,7.60398 7.59912,7.61824 7.60393,7.63242 7.6087,7.6465 7.61342,7.66049 3.82715,3.87422 3.82243,3.86023 3.81767,3.84615 3.81285,3.83196 3.808,3.8177 3.80311,3.80338 3.79818,3.78899 3.79323,3.77455 3.78825,3.76007 3.78324,3.74557 3.77822,3.73104 3.77319,3.71651 3.76815,3.70198 3.7631,3.68746 3.75804,3.67296 3.75299,3.6585 3.74795,3.64408 3.74291,3.62971 3.73789,3.61541 3.73288,3.60117 3.7279,3.58702 3.72294,3.57297 3.71801,3.55902 3.71311,3.54518 3.70825,3.53147 3.70343,3.51789 3.69865,3.50446 3.69392,3.49118 3.68924,3.47807 3.68462,3.46513 3.68006,3.45238 3.67557,3.43983 "/>
     <polygon id="_216944568" class="fil1" points="3.23319,3.51062 7.01946,7.29689 7.01583,7.30047 7.01214,7.30399 7.0084,7.30746 7.00461,7.31087 7.00077,7.31423 6.99688,7.31753 6.99293,7.32077 6.98894,7.32395 6.9849,7.32707 6.98081,7.33014 6.97667,7.33314 6.97249,7.33608 6.96826,7.33896 6.96398,7.34178 6.95967,7.34453 6.9553,7.34722 6.95089,7.34984 6.94644,7.3524 6.94195,7.35489 6.93742,7.35732 6.93284,7.35968 6.92823,7.36197 6.92357,7.36419 6.91888,7.36635 6.91415,7.36843 6.90938,7.37044 6.90457,7.37239 6.89973,7.37426 6.89485,7.37605 6.88994,7.37778 6.88499,7.37943 6.88001,7.381 3.09374,3.59473 3.09872,3.59316 3.10367,3.5915 3.10858,3.58978 3.11346,3.58798 3.1183,3.58611 3.12311,3.58417 3.12788,3.58216 3.13261,3.58007 3.13731,3.57792 3.14196,3.5757 3.14657,3.57341 3.15115,3.57105 3.15569,3.56862 3.16018,3.56613 3.16463,3.56357 3.16904,3.56094 3.1734,3.55826 3.17772,3.5555 3.18199,3.55269 3.18622,3.54981 3.19041,3.54687 3.19454,3.54387 3.19863,3.5408 3.20267,3.53768 3.20667,3.5345 3.21061,3.53126 3.2145,3.52796 3.21835,3.5246 3.22213,3.52119 3.22587,3.51772 3.22956,3.5142 "/>
     <polygon id="_216944304" class="fil1" points="2.94696,3.60639 6.73323,7.39267 6.72627,7.39162 6.71935,7.39043 6.71249,7.38911 6.70567,7.38765 6.69891,7.38605 6.6922,7.38431 6.68554,7.38244 6.67894,7.38044 6.67239,7.37832 6.66591,7.37606 6.65949,7.37367 6.65313,7.37117 6.64683,7.36853 6.6406,7.36577 6.63443,7.36289 6.62833,7.3599 6.62231,7.35678 6.61635,7.35355 6.61046,7.3502 6.60466,7.34674 6.59892,7.34317 6.59327,7.33948 6.58769,7.33569 6.58219,7.33179 6.57678,7.32778 6.57144,7.32367 6.5662,7.31945 6.56104,7.31514 6.55596,7.31072 6.55098,7.30621 6.54609,7.3016 2.75982,3.51533 2.76471,3.51994 2.7697,3.52445 2.77477,3.52887 2.77993,3.53318 2.78518,3.5374 2.79051,3.54151 2.79593,3.54552 2.80142,3.54941 2.807,3.55321 2.81265,3.55689 2.81839,3.56046 2.8242,3.56393 2.83008,3.56728 2.83604,3.57051 2.84207,3.57363 2.84816,3.57662 2.85433,3.5795 2.86056,3.58226 2.86686,3.58489 2.87322,3.5874 2.87964,3.58979 2.88613,3.59205 2.89267,3.59417 2.89927,3.59617 2.90593,3.59804 2.91264,3.59978 2.91941,3.60137 2.92622,3.60284 2.93309,3.60416 2.94,3.60535 "/>
     <polygon id="_216944856" class="fil1" points="2.21109,3.6057 5.99735,7.39198 5.99336,7.3941 5.98932,7.39624 5.98526,7.39839 5.98116,7.40056 5.97704,7.40274 5.97288,7.40491 5.9687,7.4071 5.96449,7.40928 5.96026,7.41146 5.95601,7.41363 5.95174,7.4158 5.94745,7.41795 5.94315,7.42009 5.93883,7.42222 5.93449,7.42432 5.93015,7.4264 5.9258,7.42845 5.92144,7.43048 5.91707,7.43248 5.9127,7.43444 5.90833,7.43636 5.90396,7.43825 5.89959,7.44009 5.89522,7.44189 5.89085,7.44364 5.8865,7.44534 5.88215,7.44698 5.87781,7.44857 5.87348,7.45011 5.86917,7.45157 5.86486,7.45298 5.86058,7.45431 2.07431,3.66804 2.07859,3.66671 2.0829,3.6653 2.08721,3.66383 2.09154,3.6623 2.09588,3.66071 2.10023,3.65907 2.10459,3.65737 2.10895,3.65562 2.11332,3.65382 2.11769,3.65198 2.12206,3.65009 2.12644,3.64817 2.13081,3.6462 2.13517,3.64421 2.13953,3.64218 2.14388,3.64013 2.14822,3.63805 2.15256,3.63594 2.15688,3.63382 2.16118,3.63168 2.16547,3.62953 2.16974,3.62736 2.17399,3.62519 2.17822,3.62301 2.18243,3.62083 2.18661,3.61864 2.19077,3.61646 2.19489,3.61429 2.19899,3.61212 2.20306,3.60997 2.20709,3.60783 "/>
     <polygon id="_216945336" class="fil1" points="2.4868,4.23391 6.27306,8.02018 6.27195,8.03313 6.27085,8.04728 6.26976,8.06254 6.2687,8.0788 6.26765,8.09594 6.26662,8.11387 6.26561,8.13248 6.26463,8.15166 6.26367,8.1713 6.26273,8.1913 6.26182,8.21156 6.26094,8.23197 6.26009,8.25242 6.25927,8.2728 6.25848,8.29302 6.25772,8.31296 6.25701,8.33252 6.25632,8.35158 6.25568,8.37006 6.25507,8.38784 6.25451,8.40481 6.25398,8.42087 6.2535,8.43591 6.25307,8.44983 6.25267,8.46252 6.25233,8.47387 6.25204,8.48379 6.25179,8.49215 6.2516,8.49887 6.25146,8.50382 6.25137,8.50691 6.25134,8.50802 2.46507,4.72175 2.46511,4.72063 2.46519,4.71755 2.46533,4.71259 2.46552,4.70588 2.46577,4.69752 2.46606,4.6876 2.46641,4.67625 2.4668,4.66356 2.46723,4.64964 2.46772,4.6346 2.46824,4.61854 2.4688,4.60157 2.46941,4.58379 2.47006,4.56531 2.47074,4.54624 2.47146,4.52669 2.47221,4.50674 2.473,4.48653 2.47382,4.46615 2.47467,4.4457 2.47555,4.42529 2.47646,4.40503 2.4774,4.38503 2.47836,4.36539 2.47934,4.3462 2.48035,4.3276 2.48138,4.30967 2.48243,4.29253 2.4835,4.27627 2.48458,4.26101 2.48568,4.24685 "/>
     <polygon id="_216945144" class="fil1" points="2.9448,4.79202 6.73107,8.57829 6.72328,8.57855 6.71582,8.57728 6.70887,8.57464 6.7026,8.57074 2.91633,4.78447 2.92261,4.78837 2.92956,4.79101 2.93702,4.79228 "/>
     <polygon id="_216944760" class="fil1" points="2.25223,3.58419 6.0385,7.37046 6.03457,7.37243 6.03018,7.37468 6.0254,7.37716 6.02026,7.37984 6.01484,7.3827 6.00918,7.3857 6.00333,7.3888 5.99735,7.39198 2.21109,3.6057 2.21706,3.60253 2.22291,3.59943 2.22857,3.59643 2.234,3.59357 2.23913,3.59089 2.24391,3.58841 2.2483,3.58616 "/>
     <polygon id="_216945312" class="fil1" points="2.66159,3.5811 6.44786,7.36737 6.44677,7.37131 6.44528,7.37584 6.44343,7.38096 6.44122,7.38668 6.43869,7.39296 6.43584,7.39981 6.4327,7.40723 6.4293,7.41519 6.42564,7.42369 6.42176,7.43273 6.41766,7.44229 6.41338,7.45236 6.40893,7.46294 6.40433,7.47403 6.3996,7.4856 6.39477,7.49765 6.38985,7.51017 6.38486,7.52316 6.37983,7.5366 6.37477,7.55049 6.36971,7.56482 6.36466,7.57958 6.35965,7.59476 6.35469,7.61035 6.34981,7.62635 6.34502,7.64274 6.34036,7.65951 6.33583,7.67667 6.33145,7.69419 6.32726,7.71207 6.32326,7.73031 6.31948,7.74889 2.53321,3.96262 2.53699,3.94404 2.54099,3.9258 2.54519,3.90792 2.54956,3.89039 2.55409,3.87324 2.55876,3.85646 2.56354,3.84007 2.56842,3.82408 2.57338,3.80849 2.57839,3.79331 2.58344,3.77855 2.5885,3.76422 2.59356,3.75033 2.59859,3.73689 2.60358,3.7239 2.6085,3.71138 2.61333,3.69933 2.61806,3.68776 2.62266,3.67667 2.62711,3.66609 2.63139,3.65602 2.63549,3.64646 2.63937,3.63742 2.64303,3.62892 2.64644,3.62096 2.64957,3.61354 2.65242,3.60669 2.65496,3.60041 2.65716,3.59469 2.65902,3.58957 2.6605,3.58504 "/>
     <polygon id="_216945384" class="fil1" points="1.62234,2.18564 5.40861,5.97191 5.40087,5.97152 5.39336,5.97037 5.38611,5.96851 5.37915,5.96596 5.37254,5.96278 5.3663,5.95899 5.36047,5.95463 5.3551,5.94975 1.56883,2.16348 1.5742,2.16836 1.58003,2.17272 1.58627,2.1765 1.59289,2.17969 1.59984,2.18224 1.60709,2.1841 1.6146,2.18525 "/>
     <polygon id="_216944952" class="fil1" points="2.07431,3.66804 5.86058,7.45431 5.85417,7.4562 5.84782,7.45791 5.84154,7.45946 5.83535,7.46083 5.82923,7.46201 5.8232,7.463 5.81726,7.46378 5.81141,7.46436 5.80567,7.46473 5.80003,7.46487 5.79449,7.46479 5.78907,7.46446 5.78378,7.4639 5.7786,7.46309 5.77356,7.46202 5.76864,7.46069 5.76386,7.45908 5.75923,7.4572 5.75474,7.45503 5.75041,7.45257 5.74622,7.44981 5.7422,7.44674 5.73835,7.44337 1.95209,3.65709 1.95594,3.66047 1.95996,3.66354 1.96414,3.6663 1.96847,3.66876 1.97296,3.67093 1.97759,3.67281 1.98237,3.67442 1.98729,3.67575 1.99233,3.67682 1.99751,3.67763 2.00281,3.67819 2.00822,3.67852 2.01376,3.6786 2.0194,3.67846 2.02515,3.67809 2.03099,3.67751 2.03693,3.67672 2.04296,3.67574 2.04908,3.67456 2.05528,3.67319 2.06155,3.67164 2.0679,3.66993 "/>
     <polygon id="_216945360" class="fil1" points="2.97781,4.74876 6.76408,8.53503 6.76434,8.54281 6.76308,8.55028 6.76043,8.55722 6.75654,8.5635 6.75152,8.56891 6.74551,8.5733 6.73865,8.57648 6.73107,8.57829 2.9448,4.79202 2.95238,4.79021 2.95924,4.78702 2.96525,4.78264 2.97027,4.77722 2.97417,4.77095 2.97681,4.764 2.97807,4.75654 "/>
     <polygon id="_216944784" class="fil1" points="2.46507,4.72175 6.25134,8.50802 6.25035,8.51575 6.24791,8.5229 6.24419,8.52933 6.23934,8.53489 6.23352,8.53943 6.22689,8.5428 6.21962,8.54484 6.21185,8.54541 2.42558,4.75914 2.43335,4.75857 2.44063,4.75653 2.44726,4.75316 2.45307,4.74862 2.45792,4.74306 2.46165,4.73663 2.46408,4.72948 "/>
     <polygon id="_216945048" class="fil1" points="2.42558,4.75914 6.21185,8.54541 6.20413,8.54442 6.19697,8.54198 6.19054,8.53826 6.18498,8.53341 2.39871,4.74713 2.40428,4.75198 2.4107,4.7557 2.41786,4.75815 "/>
     <polygon id="_216946080" class="fil1" points="3.09374,3.59473 6.88001,7.381 6.8734,7.39877 6.86664,7.4168 6.85977,7.43507 6.8528,7.45354 6.84574,7.47216 6.83864,7.4909 6.8315,7.50972 6.82435,7.52857 6.81721,7.54744 6.8101,7.56626 6.80304,7.58501 6.79606,7.60365 6.78917,7.62213 6.7824,7.64042 6.77577,7.65848 6.7693,7.67627 6.76301,7.69375 6.75692,7.71089 6.75106,7.72764 6.74545,7.74397 6.74011,7.75983 6.73505,7.7752 6.73031,7.79003 6.7259,7.80427 6.72184,7.8179 6.71816,7.83087 6.71488,7.84315 6.71202,7.8547 6.7096,7.86548 6.70764,7.87544 6.70617,7.88456 6.7052,7.89278 2.91893,4.10651 2.9199,4.09828 2.92137,4.08917 2.92333,4.0792 2.92575,4.06843 2.92861,4.05688 2.93189,4.0446 2.93557,4.03163 2.93963,4.018 2.94404,4.00376 2.94878,3.98893 2.95384,3.97356 2.95918,3.9577 2.9648,3.94137 2.97065,3.92462 2.97674,3.90748 2.98303,3.89 2.9895,3.8722 2.99613,3.85415 3.0029,3.83585 3.00979,3.81737 3.01677,3.79874 3.02383,3.77999 3.03094,3.76117 3.03808,3.7423 3.04523,3.72344 3.05237,3.70463 3.05948,3.68589 3.06653,3.66726 3.0735,3.6488 3.08037,3.63053 3.08713,3.6125 "/>
     <polygon id="_216945720" class="fil1" points="3.91791,4.75914 7.70418,8.54541 7.69643,8.54469 7.68919,8.5425 7.68263,8.53901 7.67691,8.53436 3.89064,4.74809 3.89637,4.75274 3.90293,4.75623 3.91016,4.75842 "/>
     <polygon id="_216946056" class="fil1" points="3.93206,4.22309 7.71832,8.00936 7.72015,8.02261 7.72189,8.03709 7.72354,8.05268 7.72511,8.06928 7.72658,8.08678 7.72798,8.10508 7.72929,8.12407 7.73052,8.14363 7.73168,8.16366 7.73276,8.18406 7.73378,8.20471 7.73472,8.22551 7.73559,8.24635 7.7364,8.26712 7.73715,8.28772 7.73783,8.30803 7.73846,8.32796 7.73902,8.34738 7.73954,8.3662 7.74,8.3843 7.74042,8.40159 7.74078,8.41794 7.7411,8.43326 7.74138,8.44743 7.74161,8.46035 7.74181,8.47191 7.74198,8.482 7.7421,8.49052 7.7422,8.49735 7.74226,8.50239 7.7423,8.50553 7.74231,8.50667 3.95605,4.7204 3.95604,4.71926 3.956,4.71612 3.95593,4.71107 3.95583,4.70424 3.95571,4.69573 3.95555,4.68563 3.95535,4.67407 3.95511,4.66116 3.95483,4.64698 3.95451,4.63167 3.95415,4.61531 3.95374,4.59803 3.95327,4.57993 3.95276,4.56111 3.95219,4.54169 3.95156,4.52176 3.95088,4.50145 3.95013,4.48085 3.94932,4.46008 3.94845,4.43924 3.94751,4.41844 3.9465,4.39779 3.94541,4.37739 3.94426,4.35736 3.94302,4.3378 3.94171,4.31881 3.94031,4.30051 3.93884,4.28301 3.93728,4.26641 3.93563,4.25081 3.93389,4.23634 "/>
     <polygon id="_216946104" class="fil1" points="2.53321,3.96262 6.31948,7.74889 6.31733,7.75991 6.31521,7.77086 6.31311,7.78171 6.31105,7.79248 6.30901,7.80313 6.30701,7.81368 6.30504,7.8241 6.30311,7.8344 6.30122,7.84456 6.29937,7.85457 6.29757,7.86442 6.2958,7.87411 6.29409,7.88363 6.29242,7.89297 6.29081,7.90211 6.28924,7.91106 6.28774,7.91981 6.28629,7.92833 6.2849,7.93663 6.28357,7.9447 6.2823,7.95252 6.28109,7.9601 6.27996,7.96742 6.27889,7.97446 6.27789,7.98124 6.27697,7.98772 6.27612,7.99392 6.27535,7.99981 6.27465,8.00539 6.27404,8.01065 6.27351,8.01558 6.27306,8.02018 2.4868,4.23391 2.48724,4.22931 2.48777,4.22438 2.48839,4.21912 2.48908,4.21354 2.48985,4.20765 2.4907,4.20145 2.49163,4.19496 2.49262,4.18819 2.49369,4.18115 2.49483,4.17383 2.49603,4.16625 2.4973,4.15843 2.49863,4.15036 2.50002,4.14206 2.50147,4.13354 2.50298,4.12479 2.50454,4.11584 2.50615,4.1067 2.50782,4.09736 2.50954,4.08784 2.5113,4.07815 2.51311,4.0683 2.51495,4.05828 2.51685,4.04813 2.51878,4.03783 2.52074,4.02741 2.52274,4.01686 2.52478,4.0062 2.52685,3.99544 2.52894,3.98459 2.53106,3.97364 "/>
     <polygon id="_216945912" class="fil1" points="2.91893,4.10651 6.7052,7.89278 6.70434,7.90589 6.70393,7.9211 6.70395,7.93823 6.70437,7.95711 6.70515,7.9776 6.70628,7.99952 6.70772,8.0227 6.70944,8.047 6.71143,8.07223 6.71364,8.09824 6.71606,8.12486 6.71864,8.15193 6.72138,8.17928 6.72423,8.20676 6.72718,8.23419 6.73018,8.26141 6.73322,8.28827 6.73628,8.31459 6.7393,8.34021 6.74228,8.36496 6.74519,8.38869 6.74798,8.41123 6.75065,8.43241 6.75315,8.45208 6.75547,8.47006 6.75757,8.48619 6.75943,8.50031 6.76102,8.51226 6.7623,8.52187 6.76326,8.52898 6.76386,8.53342 6.76408,8.53503 2.97781,4.74876 2.97759,4.74715 2.97699,4.74271 2.97603,4.7356 2.97475,4.72599 2.97316,4.71404 2.9713,4.69992 2.9692,4.68379 2.96689,4.66581 2.96438,4.64614 2.96171,4.62496 2.95892,4.60242 2.95601,4.57869 2.95304,4.55394 2.95001,4.52831 2.94696,4.502 2.94391,4.47514 2.94091,4.44792 2.93796,4.42048 2.93511,4.39301 2.93237,4.36566 2.92979,4.33859 2.92737,4.31196 2.92516,4.28596 2.92317,4.26072 2.92145,4.23643 2.92001,4.21325 2.91889,4.19133 2.9181,4.17084 2.91769,4.15196 2.91767,4.13483 2.91807,4.11962 "/>
     <polygon id="_216945600" class="fil1" points="4.80314,4.75914 8.58941,8.54541 8.58159,8.54526 8.57419,8.54362 8.56737,8.54061 8.5613,8.53639 4.77503,4.75011 4.78111,4.75434 4.78793,4.75735 4.79533,4.75899 "/>
     <polygon id="_216945528" class="fil1" points="4.83841,4.71753 8.62468,8.5038 8.62454,8.51161 8.62289,8.51902 8.61988,8.52583 8.61566,8.53191 8.61035,8.53707 8.60412,8.54116 8.59709,8.54399 8.58941,8.54541 4.80314,4.75914 4.81082,4.75772 4.81785,4.75489 4.82409,4.7508 4.82939,4.74564 4.83361,4.73956 4.83662,4.73274 4.83827,4.72534 "/>
     <polygon id="_216945624" class="fil1" points="3.95605,4.7204 7.74231,8.50667 7.74159,8.51442 7.73941,8.52165 7.73592,8.52821 7.73127,8.53394 7.72562,8.53868 7.71911,8.54227 7.71192,8.54457 7.70418,8.54541 3.91791,4.75914 3.92565,4.7583 3.93285,4.756 3.93935,4.75241 3.945,4.74767 3.94965,4.74194 3.95314,4.73538 3.95533,4.72815 "/>
     <polygon id="_216945744" class="fil1" points="3.82715,3.87422 7.61342,7.66049 7.61844,7.67542 7.62339,7.6902 7.62827,7.70484 7.63308,7.71932 7.63781,7.73363 7.64245,7.74775 7.64701,7.76167 7.65147,7.77539 7.65584,7.78888 7.6601,7.80213 7.66426,7.81515 7.6683,7.82789 7.67222,7.84037 7.67603,7.85257 7.67971,7.86446 7.68326,7.87606 7.68667,7.88732 7.68994,7.89826 7.69306,7.90884 7.69604,7.91907 7.69886,7.92893 7.70152,7.93841 7.70402,7.94749 7.70635,7.95616 7.7085,7.96441 7.71048,7.97223 7.71227,7.9796 7.71387,7.98652 7.71529,7.99296 7.7165,7.99893 7.71752,8.0044 7.71832,8.00936 3.93206,4.22309 3.93125,4.21813 3.93024,4.21266 3.92902,4.20669 3.92761,4.20025 3.926,4.19333 3.92421,4.18596 3.92223,4.17814 3.92008,4.16989 3.91775,4.16122 3.91526,4.15213 3.91259,4.14266 3.90977,4.1328 3.9068,4.12257 3.90367,4.11198 3.9004,4.10105 3.89699,4.08978 3.89344,4.07819 3.88976,4.0663 3.88596,4.0541 3.88203,4.04162 3.87799,4.02887 3.87383,4.01586 3.86957,4.00261 3.8652,3.98911 3.86074,3.9754 3.85619,3.96148 3.85154,3.94736 3.84681,3.93305 3.842,3.91857 3.83712,3.90393 3.83217,3.88915 "/>
     <polygon id="_216945816" class="fil1" points="4.7781,4.17652 8.56437,7.9628 8.56792,7.97635 8.57137,7.99135 8.57472,8.00767 8.57797,8.02519 8.58113,8.04378 8.58418,8.06332 8.58713,8.08369 8.58997,8.10477 8.59271,8.12643 8.59534,8.14855 8.59787,8.17101 8.60029,8.19369 8.60261,8.21646 8.60481,8.2392 8.6069,8.26179 8.60888,8.2841 8.61075,8.30602 8.61251,8.32741 8.61415,8.34817 8.61568,8.36816 8.61709,8.38727 8.61838,8.40536 8.61956,8.42232 8.62061,8.43803 8.62155,8.45236 8.62237,8.46519 8.62306,8.4764 8.62363,8.48586 8.62408,8.49345 8.62441,8.49906 8.62461,8.50255 8.62468,8.5038 4.83841,4.71753 4.83834,4.71628 4.83814,4.71278 4.83781,4.70718 4.83737,4.69959 4.8368,4.69013 4.8361,4.67892 4.83528,4.66609 4.83435,4.65176 4.83329,4.63605 4.83211,4.61909 4.83082,4.601 4.82941,4.58189 4.82788,4.5619 4.82624,4.54114 4.82448,4.51974 4.82261,4.49783 4.82063,4.47552 4.81854,4.45293 4.81634,4.43019 4.81402,4.40742 4.81161,4.38474 4.80907,4.36228 4.80644,4.34016 4.8037,4.3185 4.80086,4.29742 4.79791,4.27705 4.79486,4.25751 4.7917,4.23892 4.78845,4.2214 4.7851,4.20508 4.78165,4.19008 "/>
    </g>
    <path id="_637653352" class="fil1" d="M2.24691 2.60199c0.0892205,-0.0442244 0.188398,-0.047937 0.276303,-0.0182953 0.0880079,0.0296732 0.164772,0.092748 0.209035,0.182047 0.0380748,0.076815 0.0552402,0.158776 0.0537165,0.239311 0.0573858,-0.0448858 0.129638,-0.0716417 0.208138,-0.0716417 0.0933622,0 0.177898,0.0378465 0.239087,0.0990354 0.0217362,0.0217402 0.0405315,0.0464252 0.0557244,0.0734094 0.010437,-0.0176063 0.0230315,-0.0337835 0.0374173,-0.0481693 0.0440433,-0.0440433 0.104886,-0.0712835 0.172083,-0.0712835 0.0672008,0 0.128043,0.0272441 0.172083,0.0712835 0.000401575,0.000401575 0.00080315,0.000807087 0.00120472,0.0012126 0.0159213,-0.0855039 0.0577835,-0.162157 0.117031,-0.221406 0.0765866,-0.0765827 0.182264,-0.124126 0.298539,-0.124126 0.256193,0 0.566768,0.0580433 0.809657,0.240449 0.184776,0.138764 0.329661,0.348488 0.381016,0.657598 0.0136339,0.0820827 -0.0423386,0.116913 -0.122543,0.130236 -0.0539409,0.00896457 -0.119543,0.0071063 -0.176681,0.00548819 -0.0175118,-0.000496063 -0.0341299,-0.000964567 -0.0553937,-0.000964567l-0.429894 0c0.0262126,0.0405118 0.0519882,0.0807402 0.0766142,0.119689 0.102043,0.161402 0.193425,0.258661 0.208047,0.310657 0.0383819,0.136504 0.0602244,0.539972 0.060311,0.541008 0.00174803,0.0212283 -0.0140433,0.0398583 -0.0352717,0.0416063 -0.0212283,0.00174409 -0.0398583,-0.0140472 -0.0416024,-0.0352756l-0.0661063 -0.48302 -0.376606 -0.494665 -0.0440787 0c-0.167823,0 -0.320374,-0.0686339 -0.430937,-0.179201 -0.0453268,-0.0453228 -0.0836024,-0.0977008 -0.112996,-0.155299 -0.0220827,0.00569291 -0.0424173,0.0111142 -0.0596732,0.0158031 0.0468661,0.130575 0.105957,0.298106 0.156016,0.44674 0.0538386,0.159862 0.0974213,0.298681 0.104902,0.34887 0.0200394,0.134421 0.0239803,0.496264 0.0239921,0.497307 0.000165354,0.0212244 -0.0169094,0.0385748 -0.0381378,0.0387402 -0.0212283,0.000161417 -0.0385748,-0.0169094 -0.0387402,-0.0381378 -7.87402e-006,-0.00101969 -0.00387795,-0.35587 -0.0233858,-0.486756 -0.00679528,-0.0455984 -0.0491142,-0.179787 -0.101587,-0.335606 -0.0558898,-0.165957 -0.141772,-0.322673 -0.205449,-0.430713 -0.0162402,0.00341732 -0.0330748,0.0052126 -0.0503307,0.0052126 -0.0672008,0 -0.128043,-0.0272402 -0.172083,-0.0712835 -0.00492913,-0.00492913 -0.00964567,-0.0100669 -0.0141417,-0.0154016 -0.0170354,0.0471457 -0.0442559,0.0894173 -0.079,0.124165 -0.0384606,0.0384646 -0.0861457,0.0677008 -0.139449,0.0841142 -0.0697126,0.187878 -0.16726,0.428902 -0.174811,0.511776 -0.011685,0.128173 0.0586772,0.640772 0.0588819,0.642248 0.00282677,0.0210591 -0.0119528,0.0404331 -0.0330118,0.0432598 -0.0210591,0.00283071 -0.0404331,-0.0119528 -0.0432598,-0.0330118 -0.000208661,-0.0015 -0.071689,-0.522299 -0.059185,-0.659429 0.00643701,-0.0706378 0.0561063,-0.289728 0.104606,-0.493181 -0.0745079,-0.0103937 -0.14124,-0.0450669 -0.191945,-0.0957756 -0.00573228,-0.00573228 -0.0112598,-0.0116693 -0.0165669,-0.0177992 -0.0377402,0.0331457 -0.0718346,0.067748 -0.0768622,0.0882835 -0.00947244,0.0387008 -0.0893071,0.181524 -0.128378,0.38152 -0.0230394,0.117933 -0.0421142,0.224094 -0.0464173,0.271283 -0.0119646,0.131311 -0.0216929,0.486819 -0.0217205,0.487846 -0.00057874,0.0212283 -0.0182638,0.0379646 -0.0394921,0.0373858 -0.0212244,-0.000582677 -0.0379646,-0.0182677 -0.0373819,-0.0394921 2.75591e-005,-0.0010315 0.00981102,-0.358677 0.0220197,-0.492673 0.00470866,-0.0516693 0.0240827,-0.160154 0.0473228,-0.279126 0.0388465,-0.19885 0.0892992,-0.431331 0.0991378,-0.471508 0.00974803,-0.0398228 0.0603819,-0.091437 0.107142,-0.132091 -0.00073622,-0.00335827 -0.00142126,-0.00673622 -0.00205906,-0.0101299 -0.044311,0.0522441 -0.0996417,0.0964646 -0.164654,0.128689l-0.244878 0.121382c-0.00983071,0.00487008 -0.0250787,0.0129764 -0.0411457,0.0215157 -0.0424449,0.0225551 -0.0911732,0.0484567 -0.136776,0.0623386 -0.068748,0.0209291 -0.126866,0.0149488 -0.148665,-0.0566535 -0.0888268,-0.291748 -0.0956969,-0.499618 -0.0371575,-0.657252 0.0475551,-0.128055 0.136776,-0.221138 0.259299,-0.297331 -0.00594488,-0.262913 -0.201579,-0.479815 -0.455098,-0.518925 -0.0111063,0.0279764 -0.0384213,0.0477559 -0.0703504,0.0477559 -0.0417874,0 -0.0756772,-0.033878 -0.0756772,-0.0756654 0,-0.0417874 0.0338898,-0.0756732 0.0756772,-0.0756732 0.0386693,0 0.0705669,0.0290197 0.0751102,0.0664606 0.264894,0.0404055 0.470941,0.26226 0.48689,0.534354 0.0200827,-0.0113858 0.0409488,-0.0224016 0.0625748,-0.033122z"/>
   </g>
  </g>
  <path class="fil2" d="M3.41333 -3.93701e-006c1.88513,0 3.41333,1.5282 3.41333,3.41333 0,1.88513 -1.5282,3.41333 -3.41333,3.41333 -1.88513,0 -3.41333,-1.5282 -3.41333,-3.41333 0,-1.88513 1.5282,-3.41333 3.41333,-3.41333z"/>
  <path class="fil3" d="M2.18533 2.66913l-0.0374094 0c0,-0.296406 -0.24113,-0.537535 -0.537516,-0.537535l0 -0.0374094c0.317,0 0.574925,0.257917 0.574925,0.574945z"/>
  <path class="fil4" d="M1.698 2.10997c0,0.0417874 -0.033878,0.0756654 -0.0756654,0.0756654 -0.0417874,0 -0.0756772,-0.033878 -0.0756772,-0.0756654 0,-0.0417874 0.0338898,-0.0756732 0.0756772,-0.0756732 0.0417874,0 0.0756654,0.0338858 0.0756654,0.0756732z"/>
  <path class="fil5" d="M2.73225 2.76574c0.0635157,0.128146 0.0688504,0.270606 0.0262717,0.39689 -0.0426142,0.126382 -0.133185,0.236614 -0.261413,0.300173l-0.244878 0.121382c-0.00983071,0.00487008 -0.0250787,0.0129764 -0.0411457,0.0215157 -0.0424449,0.0225551 -0.0911732,0.0484567 -0.136776,0.0623386 -0.068748,0.0209291 -0.126866,0.0149488 -0.148665,-0.0566535 -0.0888268,-0.291748 -0.0956969,-0.499618 -0.0371575,-0.657252 0.0595709,-0.160413 0.184531,-0.265949 0.358425,-0.352146 0.0892205,-0.0442244 0.188398,-0.047937 0.276303,-0.0182953 0.0880079,0.0296732 0.164772,0.092748 0.209035,0.182047z"/>
  <path class="fil6" d="M4.85081 3.01532c-0.227055,-0.170512 -0.520555,-0.224772 -0.763531,-0.224772 -0.0949685,0 -0.181339,0.0388819 -0.243972,0.101516 -0.0626339,0.0626339 -0.10152,0.149008 -0.10152,0.243972l0 3.93701e-006c0,0.14652 0.0599764,0.27976 0.156591,0.376374 0.0966102,0.0966102 0.22985,0.156587 0.37637,0.156587l0.648587 0c0.0127953,0 0.0345118,0.000614173 0.0575,0.00126772 0.0535551,0.00151575 0.115031,0.00325591 0.162213,-0.00458268 0.0366535,-0.00609055 0.0629173,-0.0179213 0.058937,-0.0419055 -0.0476614,-0.286874 -0.181142,-0.480772 -0.351173,-0.608461z"/>
  <path class="fil6" d="M3.61593 3.11226c-0.0300709,-0.0300709 -0.071622,-0.0486732 -0.117516,-0.0486732 -0.0458937,0 -0.0874449,0.0186024 -0.117516,0.0486732 -0.0300709,0.0300669 -0.0486732,0.0716181 -0.0486732,0.117516 0,0.0458937 0.0186024,0.0874449 0.0486732,0.117516 0.0300669,0.0300709 0.0716181,0.0486732 0.117516,0.0486732 0.0458937,0 0.0874449,-0.0186024 0.11752,-0.0486693 0.0300669,-0.0300748 0.0486693,-0.071626 0.0486693,-0.11752 0,-0.0458976 -0.0186024,-0.0874488 -0.0486732,-0.117516z"/>
  <path class="fil4" d="M3.49842 2.98641c0.0672008,0 0.128043,0.0272441 0.172083,0.0712835 0.0440433,0.0440394 0.0712835,0.104882 0.0712835,0.172083 0,0.0671969 -0.0272402,0.128039 -0.0712795,0.172087 -0.0440433,0.0440394 -0.104886,0.0712795 -0.172087,0.0712795 -0.0672008,0 -0.128043,-0.0272402 -0.172083,-0.0712835 -0.0440394,-0.0440394 -0.0712835,-0.104882 -0.0712835,-0.172083 0,-0.0672008 0.0272441,-0.128047 0.0712835,-0.172083 0.0440433,-0.0440433 0.104886,-0.0712835 0.172083,-0.0712835z"/>
  <path class="fil6" d="M3.17863 3.08702c-0.0472165,-0.0472126 -0.112461,-0.0764252 -0.18452,-0.0764252 -0.0720591,0 -0.137299,0.0292126 -0.18452,0.0764252 -0.0472126,0.0472165 -0.0764213,0.112461 -0.0764213,0.18452 0,0.0720591 0.0292087,0.137303 0.0764213,0.184516 0.0472165,0.0472165 0.112461,0.0764252 0.18452,0.0764252 0.0720591,0 0.137303,-0.0292087 0.18452,-0.0764252 0.0472126,-0.0472165 0.0764213,-0.112457 0.0764213,-0.184516 0,-0.072063 -0.0292087,-0.137303 -0.0764213,-0.18452z"/>
  <path class="fil3" d="M2.99411 2.93341c0.0933622,0 0.177898,0.0378465 0.239087,0.0990354 0.0611811,0.061189 0.0990354,0.14572 0.0990354,0.239087 0,0.0933661 -0.0378543,0.177894 -0.0990354,0.239083 -0.061189,0.0611929 -0.145724,0.0990354 -0.239087,0.0990354 -0.0933661,0 -0.177898,-0.0378425 -0.239087,-0.0990354 -0.061189,-0.061189 -0.0990354,-0.145717 -0.0990354,-0.239083 0,-0.0933622 0.0378465,-0.177898 0.0990354,-0.239087 0.061189,-0.061185 0.14572,-0.0990354 0.239087,-0.0990354z"/>
  <path class="fil7" d="M3.36813 3.38604c-0.0145669,0.0154843 -0.0389331,0.0162244 -0.0544134,0.00165748 -0.0154843,-0.0145669 -0.0162244,-0.0389291 -0.00165748,-0.0544134 0.000661417,-0.000700787 0.230343,-0.24626 0.278114,-0.126925 0.0161378,0.040315 0.14261,0.387673 0.236976,0.667866 0.0538386,0.159862 0.0974213,0.298681 0.104902,0.34887 0.0200394,0.134421 0.0239803,0.496264 0.0239921,0.497307 0.000165354,0.0212244 -0.0169094,0.0385748 -0.0381378,0.0387402 -0.0212283,0.000161417 -0.0385748,-0.0169094 -0.0387402,-0.0381378 -7.87402e-006,-0.00101969 -0.00387795,-0.35587 -0.0233858,-0.486756 -0.00679528,-0.0455984 -0.0491142,-0.179787 -0.101587,-0.335606 -0.0938031,-0.278528 -0.272079,-0.531039 -0.288098,-0.571055 -0.00255512,-0.00637795 -0.0975433,0.0580039 -0.0979646,0.0584528z"/>
  <path class="fil7" d="M3.27552 3.39027c0.0106535,0.0183976 0.00437795,0.0419488 -0.0140197,0.0526024 -0.0183937,0.0106535 -0.0419488,0.00438189 -0.0526024,-0.0140157 -0.000279528,-0.000480315 -0.0357913,-0.0880315 -0.0432795,-0.0574528 -0.00374409,0.0152953 -0.00576378,0.0234252 -0.00822441,0.0333543 -0.0380433,0.153161 -0.227807,0.584835 -0.238461,0.701748 -0.011685,0.128173 0.0586772,0.640772 0.0588819,0.642248 0.00282677,0.0210591 -0.0119528,0.0404331 -0.0330118,0.0432598 -0.0210591,0.00283071 -0.0404331,-0.0119528 -0.0432598,-0.0330118 -0.000208661,-0.0015 -0.071689,-0.522299 -0.059185,-0.659429 0.0112559,-0.123496 0.154634,-0.700705 0.192929,-0.854894 0.00543701,-0.0218937 0.00737008,-0.0295512 0.00822441,-0.0330512 0.0382756,-0.156299 0.231453,0.177689 0.232008,0.178642z"/>
  <path class="fil7" d="M2.74822 3.27756c0.017315,-0.0123228 0.0413465,-0.00827165 0.0536654,0.00904331 0.0123189,0.017311 0.0641102,0.105839 0.0467992,0.118157 -0.000429134,0.00030315 -0.175197,0.127736 -0.187094,0.176343 -0.00947244,0.0387008 -0.0893071,0.181524 -0.128378,0.38152 -0.0230394,0.117933 -0.0421142,0.224094 -0.0464173,0.271283 -0.0119646,0.131311 -0.0216929,0.486819 -0.0217205,0.487846 -0.00057874,0.0212283 -0.0182638,0.0379646 -0.0394921,0.0373858 -0.0212244,-0.000582677 -0.0379646,-0.0182677 -0.0373819,-0.0394921 2.75591e-005,-0.0010315 0.00981102,-0.358677 0.0220197,-0.492673 0.00470866,-0.0516693 0.0240827,-0.160154 0.0473228,-0.279126 0.0388465,-0.19885 0.0892992,-0.431331 0.0991378,-0.471508 0.018878,-0.0771142 0.191051,-0.198433 0.191539,-0.19878z"/>
  <path class="fil8" d="M2.08861 3.20753c0.0458976,-0.0429409 0.0742953,-0.102236 0.0742953,-0.167689 0,-0.0456181 -0.0137835,-0.088185 -0.0376535,-0.124248 -0.0201181,-0.0303937 -0.0474449,-0.056315 -0.079815,-0.0757402 -0.00987008,0.0112008 -0.0191654,0.0227677 -0.0278583,0.0347323 -0.0305906,0.0422126 -0.0538465,0.089563 -0.0690039,0.143571 -0.0203898,0.0726299 -0.0264213,0.157638 -0.0163543,0.258646 0.0610591,-0.00575984 0.115654,-0.0311575 0.15639,-0.0692717z"/>
  <path class="fil9" d="M2.08861 3.20753c0.0458976,-0.0429409 0.0742953,-0.102236 0.0742953,-0.167689 0,-0.0330039 -0.0072126,-0.0644055 -0.0202441,-0.0929055 -0.113417,0.013878 -0.201256,0.11052 -0.201256,0.227685 0,0.0348661 0.00778346,0.0679094 0.0217047,0.0975 0.0485354,-0.0101929 0.0917677,-0.0330315 0.1255,-0.0645906z"/>
  <path class="fil3" d="M2.08451 3.20315c0.0227756,-0.0213031 0.0411378,-0.0467717 0.0536732,-0.0750669 0.0120433,-0.027185 0.0186929,-0.0569882 0.0186929,-0.0882402 0,-0.0218898 -0.00323622,-0.043 -0.00927559,-0.0629291 -0.00625197,-0.0206417 -0.0155394,-0.0401299 -0.0273661,-0.0579961 -0.00980709,-0.014815 -0.021378,-0.0285512 -0.0344331,-0.0409409 -0.0118858,-0.0112795 -0.0250118,-0.0214567 -0.0391654,-0.0303346 -0.00376772,0.0043622 -0.00739764,0.00871654 -0.0108858,0.013063 -0.00452756,0.00564567 -0.0089685,0.0114488 -0.0132992,0.0174134 -0.0150945,0.0208307 -0.028378,0.0429213 -0.0397441,0.0664449 -0.011378,0.0235472 -0.0208583,0.0485591 -0.0283425,0.0752205 -0.0100787,0.0359134 -0.0166181,0.0749134 -0.0193858,0.117429 -0.00266535,0.0409449 -0.00184646,0.0851496 0.00264173,0.13298 0.0272008,-0.00317323 0.0530472,-0.0103543 0.0768228,-0.0208898 0.026248,-0.011622 0.0499213,-0.0273071 0.0700669,-0.0461535zm0.0646969 -0.0702126c-0.0131732,0.0297362 -0.0325039,0.0565276 -0.0565,0.0789724 -0.0211811,0.0198228 -0.0459921,0.0362756 -0.0734094,0.0484173 -0.0264528,0.0117205 -0.0554252,0.0194646 -0.086,0.0224094l-0.000480315 6.69291e-005c-0.00331496,0.000326772 -0.00627165,-0.00208661 -0.00659843,-0.00540157l0.006 -0.000598425 -0.00598031 0.000590551c-0.00507087,-0.0508504 -0.00608268,-0.097685 -0.00326772,-0.140933 0.00282283,-0.0433858 0.00950394,-0.0832205 0.0198071,-0.119925 0.00767323,-0.0273425 0.0174094,-0.0530197 0.0290945,-0.0772008 0.0116929,-0.0242008 0.0253346,-0.0469016 0.0408307,-0.0682795 0.00435433,-0.00599213 0.00891732,-0.0119606 0.0136732,-0.0178898 0.00472441,-0.00588583 0.00951181,-0.0115787 0.0143504,-0.0170748 0.00185433,-0.00232677 0.00519291,-0.00297638 0.00781102,-0.00140551l-7.87402e-006 1.5748e-005c0.0165748,0.00994488 0.0318583,0.0215591 0.0455591,0.0345591 0.0137165,0.0130197 0.0258701,0.0274449 0.0361772,0.0430118 0.0124331,0.0187835 0.0222126,0.0393307 0.0288268,0.0611535 0.00640551,0.0211496 0.00984252,0.0434449 0.00984252,0.0664173 0,0.0329567 -0.00701575,0.0644016 -0.0197283,0.0930945z"/>
  <path class="fil10" d="M4.08728 2.71337c0.256193,0 0.566768,0.0580433 0.809657,0.240449 0.184776,0.138764 0.329661,0.348488 0.381016,0.657598 0.0136339,0.0820827 -0.0423386,0.116913 -0.122543,0.130236 -0.0539409,0.00896457 -0.119543,0.0071063 -0.176681,0.00548819 -0.0175118,-0.000496063 -0.0341299,-0.000964567 -0.0553937,-0.000964567l-0.648587 0c-0.167823,0 -0.320374,-0.0686339 -0.430937,-0.179201 -0.110567,-0.110563 -0.179201,-0.263114 -0.179201,-0.430937l0 -3.93701e-006c0,-0.116272 0.0475433,-0.221953 0.12413,-0.298539 0.0765866,-0.0765827 0.182264,-0.124126 0.298539,-0.124126z"/>
  <path class="fil7" d="M3.61522 3.44318c-0.018563,0.0103228 -0.0419843,0.00364173 -0.0523071,-0.0149213 -0.0103228,-0.0185591 -0.0036378,-0.0419803 0.0149213,-0.0523031 0.00137795,-0.000767717 0.479138,-0.268346 0.546996,-0.178492 0.0304134,0.0402717 0.267697,0.387622 0.445224,0.668406 0.102043,0.161402 0.193425,0.258661 0.208047,0.310657 0.0383819,0.136504 0.0602244,0.539972 0.060311,0.541008 0.00174803,0.0212283 -0.0140433,0.0398583 -0.0352717,0.0416063 -0.0212283,0.00174409 -0.0398583,-0.0140472 -0.0416024,-0.0352756l-0.0661063 -0.48302 -0.665228 -0.873768c-0.0270866,-0.0358661 -0.41378,0.0754291 -0.414984,0.0761024z"/>
 </g>
</svg>
