<?xml version="1.0" encoding="utf-8"?>
<!-- Generator: Adobe Illustrator 16.0.0, SVG Export Plug-In . SVG Version: 6.00 Build 0)  -->
<!DOCTYPE svg PUBLIC "-//W3C//DTD SVG 1.1//EN" "http://www.w3.org/Graphics/SVG/1.1/DTD/svg11.dtd">
<svg version="1.1" id="Butterfly" xmlns="http://www.w3.org/2000/svg" xmlns:xlink="http://www.w3.org/1999/xlink" x="0px" y="0px"
	 width="512px" height="512px" viewBox="0 0 512 512" enable-background="new 0 0 512 512" xml:space="preserve">
<circle id="Background_12_" fill="#8DD2EF" cx="256" cy="256" r="256"/>
<path id="Shadow" opacity="0.1" d="M339.524,149.382l-35.285-35.285c0,0-21.239,11.975-29.239,26.846c0,0-12.083,19.122-16.5,35.122
	c-4.417,16-1.375,22.052-1.375,22.052L256,218.773l-79.689,157.375l-26.899,15.973l119.554,119.555
	C404.327,504.922,512,393.037,512,256c0-6.813-0.272-13.562-0.795-20.24L406.486,131.041L339.524,149.382z"/>
<g id="Butterfly_1_">
	<g>
		<g>
			<path fill="#181300" d="M260.237,174.464l-1.001-0.238c0.109-0.458,11.304-46.012,45.003-60.129l0.397,0.949
				C271.415,128.963,260.345,174.011,260.237,174.464z"/>
		</g>
		<g>
			<path fill="#181300" d="M251.763,174.464c-0.108-0.454-11.188-45.505-44.4-59.418l0.398-0.949
				c33.699,14.117,44.894,59.67,45.003,60.129L251.763,174.464z"/>
		</g>
	</g>
	<path fill="#181300" d="M259.668,191.271c2.191-1.775,3.669-5.082,3.669-8.878c0-5.668-3.285-10.263-7.337-10.263
		s-7.337,4.595-7.337,10.263c0,3.796,1.478,7.104,3.668,8.878v3.071h-3.668v142.71L256,357.979l7.337-20.926v-142.71h-3.669V191.271
		z"/>
	<polygon fill="#64C7EB" points="256,283.734 256.061,283.672 256,283.61 	"/>
	<path fill="#F38877" d="M415.379,177.137c0-16.296-3.165-31.849-8.893-46.096l0.072-0.074c-0.037-0.011-0.074-0.021-0.112-0.031
		c-0.018-0.044-0.032-0.09-0.051-0.135l-0.093,0.095c-11.045-3.264-22.729-5.04-34.828-5.066
		c-52.502-0.116-97.429,32.504-115.474,78.623l0,0.189v-0.023c-17.943-46.159-62.798-78.878-115.3-78.878
		c-12.192,0-23.969,1.773-35.096,5.06c-5.788,14.312-8.982,29.95-8.982,46.336c0,58.458,40.565,107.436,95.081,120.337
		c0.043,0.01,0.085,0.022,0.128,0.033c-26.992,12.74-45.676,40.193-45.676,72.021c0,7.849,1.142,15.43,3.258,22.592
		c9.213,3.727,19.28,5.782,29.828,5.782c36.662,0,67.513-24.791,76.76-58.517l0-0.001l0,0c0.033-0.119,0.072-0.236,0.104-0.356
		c9.125,33.909,40.072,58.874,76.863,58.874c10.549,0,20.615-2.056,29.828-5.782c2.116-7.162,3.258-14.743,3.258-22.592
		c0-31.855-18.718-59.329-45.748-72.054C374.817,284.57,415.379,235.593,415.379,177.137z"/>
	<path opacity="0.1" d="M415.379,177.137c0-16.296-3.165-31.849-8.893-46.096l0.072-0.074c-0.037-0.011-0.074-0.021-0.112-0.031
		c-0.018-0.044-0.032-0.091-0.051-0.135l-0.093,0.095c-11.045-3.264-22.729-5.04-34.828-5.066
		c-52.502-0.116-97.429,32.504-115.474,78.623v93.022v41.91c0.033-0.12,0.072-0.236,0.104-0.356
		c9.125,33.909,40.073,58.875,76.864,58.875c10.549,0,20.615-2.057,29.828-5.783c2.116-7.162,3.258-14.743,3.258-22.592
		c0-31.855-18.718-59.329-45.748-72.054C374.817,284.57,415.379,235.593,415.379,177.137z"/>
	<circle opacity="0.7" fill="#FFFFFF" cx="358.097" cy="198.116" r="33.619"/>
	<circle opacity="0.7" fill="#FFFFFF" cx="324.478" cy="357.979" r="15.78"/>
	<circle opacity="0.7" fill="#FFFFFF" cx="185.761" cy="357.979" r="15.781"/>
	<circle opacity="0.7" fill="#FFFFFF" cx="152.142" cy="198.116" r="33.619"/>
</g>
</svg>
