<?xml version="1.0" encoding="utf-8"?>
<!-- Generator: Adobe Illustrator 16.0.0, SVG Export Plug-In . SVG Version: 6.00 Build 0)  -->
<!DOCTYPE svg PUBLIC "-//W3C//DTD SVG 1.1//EN" "http://www.w3.org/Graphics/SVG/1.1/DTD/svg11.dtd">
<svg version="1.1" id="Dolphin_1_" xmlns="http://www.w3.org/2000/svg" xmlns:xlink="http://www.w3.org/1999/xlink" x="0px" y="0px"
	 width="512px" height="512px" viewBox="0 0 512 512" enable-background="new 0 0 512 512" xml:space="preserve">
<circle id="Background_3_" fill="#8DD2EF" cx="256" cy="256" r="256"/>
<path id="Shadow" opacity="0.1" d="M503.083,323.146L307.206,127.27L76.116,294.781l214.833,214.834
	C393.399,495.627,476.544,421.037,503.083,323.146z"/>
<g id="Dolphin">
	<path fill="#6D818C" d="M160.81,252.97c0.049,2.789,4.067,9.653,5.631,14.971c1.564,5.318,8.759,20.021,23.148,21.271
		c14.39,1.251,11.528-0.313,7.797-12.513c-3.73-12.199-0.915-14.302-7.484-23.729C183.333,243.542,160.688,246.044,160.81,252.97z"
		/>
	<path opacity="0.2" d="M160.81,252.97c0.049,2.789,4.067,9.653,5.631,14.971c1.564,5.318,8.759,20.021,23.148,21.271
		c14.39,1.251,11.528-0.313,7.797-12.513c-3.73-12.199-0.915-14.302-7.484-23.729C183.333,243.542,160.688,246.044,160.81,252.97z"
		/>
	<path fill="#6D818C" d="M222.747,151.262c8.681,0.234,39.415-22.992,55.368-25.807c15.954-2.815,31.907-0.469,29.092,2.815
		c-2.815,3.284-18.299,16.266-19.707,20.176c-1.407,3.91-4.223,19.238,3.284,24.399c7.508,5.162,45.973,27.565,70.384,60.529
		c28.301,38.218,41.542,82.075,45.514,89.621c4.579,8.699,22.054,33.314,30.03,47.391c7.977,14.077,7.038,16.423,4.223,17.361
		s-13.607-10.792-25.807-13.607c-12.2-2.815-18.769-7.507-19.707-10.322s-4.224-1.252-6.101,0.625
		c-1.876,1.877-6.568,2.894-11.73,3.832c-5.161,0.938-9.618,1.408-19.941,8.915c-10.323,7.508-11.73,10.089-12.435,0.704
		c-0.703-9.384,5.396-21.115,13.139-29.092s22.757-16.657,15.015-25.572s-21.115-32.142-63.579-44.576
		c-42.465-12.434-44.811-12.199-44.811-12.199s-59.826-6.804-84.929-7.977s-65.691,13.607-72.025,19.941
		c-6.334,6.335-19.49,20.646-31.907,17.361c-9.462-2.503-5.865-9.385-5.865-9.385s-3.285-3.753,0.938-14.546
		c4.223-10.792,11.73-18.064,11.965-26.979c0.235-8.916,1.877-29.326,23.93-50.911c22.054-21.584,42.23-29.795,58.887-36.599
		S214.066,151.027,222.747,151.262z"/>
	<path opacity="0.1" d="M373.366,317.861c-7.742-8.915-21.115-32.142-63.579-44.576c-42.465-12.435-44.811-12.199-44.811-12.199
		s-1.49-0.381-3.744-0.632c-3.484-3.867-7.541-7.876-9.839-11.004l6.482,10.844c-3.748-4.844-7.948-9.95-10.103-12.919
		c-4.379-6.034-10.01-11.464-21.897-12.068c-11.887-0.604-27.949,1.486-27.997,9.654c-0.022,3.727,6.709,6.292,13.47,10.562
		c-11.914-1.106-23.35-2.043-31.301-2.415c-25.103-1.173-65.691,13.607-72.025,19.942c-6.334,6.334-19.49,20.645-31.907,17.361
		c-3.418-0.904-5.127-2.38-5.922-3.896c-0.417,0.908-2.82,6.954,5.922,9.266c12.417,3.284,25.572-11.026,31.907-17.361
		c6.334-6.334,46.922-21.114,72.025-19.941s84.929,7.977,84.929,7.977s2.346-0.234,44.811,12.199
		c42.464,12.435,55.837,35.661,63.579,44.576c0.749,0.862,3.52,4.047,1.426,8.465C378.527,328.157,375.689,320.536,373.366,317.861z
		"/>
	<path fill="#6D818C" d="M197.409,242.29c-0.531,7.175,8.133,6.882,15.328,11.887c7.195,5.004,20.02,14.702,35.348,17.831
		c15.328,3.128,17.518,1.798,17.205-1.877c-0.313-3.676-13.138-19.082-17.517-25.338c-4.379-6.256-10.01-11.887-21.897-12.512
		C213.988,231.655,198.035,233.844,197.409,242.29z"/>
	<path opacity="0.1" d="M123.612,239.357c0,2.576-2.592,4.663-5.167,4.663s-4.663-2.087-4.663-4.663
		c0-2.575,2.088-4.663,4.663-4.663S123.612,236.782,123.612,239.357z"/>
	<circle fill="#231F20" cx="118.402" cy="239.357" r="3.984"/>
</g>
</svg>
