<?xml version="1.0" encoding="utf-8"?>
<!-- Generator: Adobe Illustrator 16.0.0, SVG Export Plug-In . SVG Version: 6.00 Build 0)  -->
<!DOCTYPE svg PUBLIC "-//W3C//DTD SVG 1.1//EN" "http://www.w3.org/Graphics/SVG/1.1/DTD/svg11.dtd">
<svg version="1.1" id="Fish_1_" xmlns="http://www.w3.org/2000/svg" xmlns:xlink="http://www.w3.org/1999/xlink" x="0px" y="0px"
	 width="512px" height="512px" viewBox="0 0 512 512" enable-background="new 0 0 512 512" xml:space="preserve">
<circle id="Background_1_" fill="#25A3D5" cx="256" cy="256" r="256"/>
<path id="Shadow" opacity="0.1" d="M403.96,226.572l-38.115,8.475l-43.092-43.092v52.673l-210.029,46.698l211.473,211.473
	c86.243-23.779,154.24-91.538,178.343-177.646L403.96,226.572z"/>
<g id="Fish">
	<path fill="#FC6935" d="M102.286,267.935c0,4.979-0.907,26.986,39.693,37.466c40.6,10.48,47.631,18.602,56.478,27.248
		c8.846,8.646,12.702,10.742,29.033,8.646c16.331-2.096,18.599-21.222,4.083-29.081c0,0,14.97-1.572,24.043-5.765
		c0,0,9.753,19.65,51.941,11.004c42.188-8.646,29.94-34.584,22.002-36.941c0,0,24.043,6.55,31.981,9.694
		c7.938,3.144,28.352,8.907,38.559-6.551s15.65-50.303-1.134-62.093s-67.365,0-67.365,0s3.176-23.842-17.238-36.942
		c-20.413-13.1-42.868-0.524-47.858,4.978c0,0-17.692-3.668-25.857-2.882c0,0-16.558-17.292-31.981-16.768
		c-15.423,0.524-30.62,22.008-30.62,22.008S102.286,235.971,102.286,267.935z"/>
	<g>
		<path fill="#231F20" d="M220.231,331.207c-7.655,5.109-16.642,5.235-22.356,0.871c0.193,0.19,0.387,0.38,0.582,0.57
			c8.846,8.646,12.706,10.784,29.033,8.646c16.501-2.161,18.769-21.644,4.083-29.081l-12.036,0.667
			C219.536,312.88,227.886,326.099,220.231,331.207z"/>
	</g>
	<g>
		<path fill="#231F20" d="M300.79,309.637c-25.08,5.14-38.382,1.137-45.047-2.955c1.263,2.182,12.342,18.86,51.813,10.771
			c41.937-8.594,30.085-34.271,22.146-36.893C333.07,289.568,329.802,303.691,300.79,309.637z"/>
	</g>
	<g>
		<g>
			<g>
				<path fill="#231F20" d="M398.964,221.561c-7.332-5.15-21.112-5.801-34.309-4.9c6.753,0.602,12.728,2.071,16.755,4.9
					c16.784,11.79,11.341,46.635,1.134,62.093c-3.324,5.035-7.733,7.809-12.439,9.165c9.52,2.091,22.503,2.18,29.993-9.165
					C410.305,268.196,415.748,233.351,398.964,221.561z"/>
			</g>
		</g>
	</g>
	<g>
		<g>
			<g>
				<path fill="#231F20" d="M306.025,190.318c18.285,9.497,25.573,31.243,25.573,31.243s3.176-23.842-17.238-36.942
					c-20.413-13.1-42.868-0.524-47.858,4.978C271.492,184.095,294.485,184.324,306.025,190.318z"/>
			</g>
		</g>
	</g>
	<g>
		<path fill="#231F20" d="M240.645,186.715c0,0-16.558-17.292-31.981-16.768c-15.423,0.524-30.62,22.008-30.62,22.008
			s15.197-16.506,30.62-17.03C224.087,174.401,240.645,186.715,240.645,186.715z"/>
	</g>
	<g>
		<path fill="#231F20" d="M154.907,257.324c2.212,9.628,1.531,19.257,0,26.134c-1.531,6.878,2.212,13.165,7.655,11.594
			c5.444-1.572,7.825-5.896,9.186-13.559s6.635-13.079,5.614-25.502c-1.021-12.422-7.315-13.157-10.037-17.997
			c-2.301-4.091-8.006-16.375-22.044-23.996c-5.832,4.415-11.827,9.274-17.421,14.371
			C135.564,234.691,153.185,249.823,154.907,257.324z"/>
	</g>
	<g>
		<path fill="#EFF0F0" d="M156.244,257.008c1.964,8.951,1.359,17.902,0,24.296c-1.36,6.394,1.964,13.025,6.798,11.563
			c4.834-1.461,6.269-5.48,7.478-12.604c1.209-7.124,6.573-12.159,5.666-23.708c-0.906-11.549-7.857-13.018-10.274-17.517
			c-2.24-4.169-7.534-16.812-22.719-23.442c-4.732,3.646-9.524,7.566-14.085,11.651
			C133.325,230.799,154.477,248.952,156.244,257.008z"/>
	</g>
	<g>
		<path fill="#231F20" d="M256,296.034c-2.937-6.484-3.192-6.779-2.597-10.513c0.595-3.733,2.637-5.896,1.361-14.442
			c-1.276-8.548-2.467-21.124-1.701-26.822c0.766-5.699,0.766-6.288,1.191-13.067s0.952-22.598,2.56-24.759
			c1.608-2.162,4.302-6.475,5.266-11.986c0.456-2.611,1.128-4.306,1.71-5.375c-5.274-0.984-16.948-2.951-23.145-2.355
			c0,0-2.045-2.132-5.359-4.875c0.687,3.731,1.507,9.279,0.937,12.08c-0.907,4.454-4.593,14.377-6.209,19.584
			c-1.616,5.208-5.529,14.246-7.485,16.997c-1.956,2.751-13.694,14.443-11.823,19.65c1.872,5.208,25.772,32.521,29.26,37.04
			c3.031,3.929,0.087,19.801-0.735,23.888c4.892-0.88,11.188-2.315,15.983-4.452C256.521,303.707,257.629,299.63,256,296.034z"/>
	</g>
	<g>
		<path fill="#EFF0F0" d="M254.058,296.338c-2.636-6.454-2.865-6.747-2.331-10.464c0.534-3.716,2.366-5.867,1.221-14.376
			c-1.145-8.508-2.214-21.025-1.527-26.697c0.687-5.672,0.687-6.259,1.069-13.007c0.382-6.748,1.058-23.678,2.297-25.43
			s4.517-5.658,5.382-11.145c0.612-3.881,1.327-5.74,1.693-6.5c-5.816-1.03-15.694-2.536-21.219-2.005c0,0-1.716-1.789-4.548-4.194
			c0.622,3.714,1.386,9.349,0.866,12.177c-0.814,4.434-4.779,14.311-6.229,19.494c-1.45,5.183-5.434,15.222-6.718,16.918
			c-1.284,1.697-13.604,14.376-11.925,19.559c1.68,5.183,26.415,32.37,29.544,36.869c2.626,3.773-0.19,18.625-1.165,23.312
			c3.96-0.754,8.619-1.85,12.625-3.354C254.37,304.564,255.625,300.175,254.058,296.338z"/>
	</g>
	<path opacity="0.2" d="M189.61,272.217c0,0,19.484-35.795,35.842-30.516c16.357,5.279,25.498,29.683,15.876,46.077
		s-20.983,30.068-44.232,12.121L189.61,272.217z"/>
	<path fill="#FC6935" d="M189.157,270.816c0,0,18.372-33.012,33.796-28.034c15.423,4.978,24.042,27.248,14.97,42.706
		s-15.877,26.462-40.827,14.41L189.157,270.816z"/>
	<g>
		<path fill="#231F20" d="M222.953,242.783c-2.187-0.706-4.432-0.646-6.676-0.028c0.032,0.01,0.065,0.018,0.098,0.028
			c15.424,4.978,24.043,27.248,14.97,42.706c-5.748,9.792-10.591,17.787-19.707,19.276c13.639,1.891,19.293-7.364,26.284-19.276
			C246.996,270.03,238.376,247.761,222.953,242.783z"/>
	</g>
	<g>
		<path fill="#231F20" d="M360.76,216.972c-15.487,1.403-29.161,4.589-29.161,4.589s0.316-2.395,0.104-6.079
			c-2.574,12.216-8.021,44.909-0.816,65.393c4.521,1.254,15.265,4.271,22.69,6.609C352.427,278.389,346.992,229.625,360.76,216.972z
			"/>
	</g>
	<g>
		<path fill="#EFF0F0" d="M357.219,217.325c-13.971,1.521-25.62,4.236-25.62,4.236s0.037-0.292,0.078-0.804
			c-0.002,0-0.004,0-0.005,0.001c-1.47,12.735-5.166,46.667,0.699,60.53c4.497,1.253,13.213,3.713,19.974,5.812
			C351.126,276.041,345.894,237.066,357.219,217.325z"/>
	</g>
	<ellipse opacity="0.1" cx="133.069" cy="251.226" rx="6.641" ry="6.421"/>
	<ellipse fill="#231F20" cx="133.069" cy="251.226" rx="5.482" ry="5.3"/>
</g>
</svg>
