<?xml version="1.0" encoding="utf-8"?>
<!-- Generator: Adobe Illustrator 16.0.0, SVG Export Plug-In . SVG Version: 6.00 Build 0)  -->
<!DOCTYPE svg PUBLIC "-//W3C//DTD SVG 1.1//EN" "http://www.w3.org/Graphics/SVG/1.1/DTD/svg11.dtd">
<svg version="1.1" id="Leopard_1_" xmlns="http://www.w3.org/2000/svg" xmlns:xlink="http://www.w3.org/1999/xlink" x="0px" y="0px"
	 width="512px" height="512px" viewBox="0 0 512 512" enable-background="new 0 0 512 512" xml:space="preserve">
<circle id="Background_15_" fill="#FED579" cx="255.835" cy="256" r="256"/>
<path id="Shadow" opacity="0.1" d="M372.738,143.515l-116.925,24.792V512c0.007,0,0.015,0,0.022,0
	c132.826,0,242.016-101.159,254.751-230.638L372.738,143.515z"/>
<g id="Leopard">
	<path fill="#F8A639" d="M-0.165,256c0,141.386,114.615,256,256,256c17.135,0,33.872-1.697,50.064-4.908v-251.67H-0.158
		C-0.158,255.615-0.165,255.807-0.165,256z"/>
	<path opacity="0.7" fill="#FFFFFF" d="M179.345,500.373C203.5,507.926,229.191,512,255.835,512c11.121,0,22.075-0.712,32.822-2.087
		V256.688H179.345V500.373z"/>
	<polygon opacity="0.1" points="305.899,342.884 172.331,342.884 305.899,476.452 	"/>
	<path fill="#F8A639" d="M356.206,202.616c13.62-14.948,34.333-48.173,8.085-68.296c-26.247-20.123-57.042,16.841-57.042,16.841
		s-31.022-7.72-51.436-7.72s-51.392,7.72-51.392,7.72s-30.795-36.964-57.042-16.841s-5.534,53.349,8.085,68.296
		c-2.542,5.063-6.83,14.481-8.009,21.037c-1.178,6.555-7.439,34.599-7.439,67.641c0,33.043,76.422,90.025,76.422,90.025
		s3.099,18.343,39.375,18.358l0,0l0,0c0.007,0,0.014,0,0.022,0s0.015,0,0.022,0l0,0l0,0c36.275-0.016,39.374-18.358,39.374-18.358
		s76.422-56.982,76.422-90.025c0-33.042-6.261-61.086-7.438-67.641C363.036,217.097,358.748,207.679,356.206,202.616z"/>
	<path opacity="0.4" fill="#FFFFFF" d="M153.271,142.726c-19.87,15.233-4.19,40.386,6.121,51.702l37.062-38.953
		C196.453,155.475,173.141,127.492,153.271,142.726z"/>
	<path opacity="0.4" fill="#FFFFFF" d="M358.399,142.726c19.87,15.233,4.19,40.386-6.12,51.702l-37.062-38.953
		C315.218,155.475,338.529,127.492,358.399,142.726z"/>
	<path opacity="0.7" fill="#FFFFFF" d="M216.394,339.73v41.589c0,0,3.1,18.359,39.419,18.359s39.418-18.359,39.418-18.359V339.73
		H216.394z"/>
	<path fill="#FFB862" d="M286.438,305.107c-0.077,0-0.153,0.005-0.23,0.005c-3.1-13.935-15.526-15.733-30.394-15.733
		c-14.868,0-27.295,1.799-30.395,15.733c-0.077,0-0.152-0.005-0.229-0.005c-16.984,0-30.752,13.768-30.752,30.752
		c0,16.983,13.768,30.752,30.752,30.752c14.513,0,26.67-10.058,29.901-23.581c0.241,0.006,0.481,0.019,0.724,0.019
		s0.482-0.013,0.724-0.019c3.231,13.523,15.387,23.581,29.901,23.581c16.983,0,30.752-13.769,30.752-30.752
		C317.189,318.875,303.421,305.107,286.438,305.107z"/>
	<path opacity="0.1" d="M286.438,366.611c-14.514,0-26.67-10.058-29.901-23.581c-0.242,0.006-0.481,0.019-0.724,0.019
		s-0.482-0.013-0.724-0.019c-3.23,13.523-15.388,23.581-29.901,23.581c-16.366,0-29.741-12.786-30.693-28.913
		c-0.036,0.609-0.06,1.222-0.06,1.84c0,16.984,13.768,30.752,30.752,30.752c14.513,0,26.67-10.057,29.901-23.581
		c0.241,0.006,0.481,0.019,0.724,0.019s0.482-0.013,0.724-0.019c3.231,13.524,15.387,23.581,29.901,23.581
		c16.984,0,30.752-13.768,30.752-30.752c0-0.618-0.023-1.23-0.06-1.84C316.178,353.825,302.804,366.611,286.438,366.611z"/>
	<path opacity="0.1" d="M284.592,312.226c-2.888,7.095-8.531,8.53-8.531,8.53c0.706-0.975,1.256-1.902,1.564-2.749
		c0,0-0.526-5.781-3.154-5.781s-7.357,5.781-18.658,5.781s-16.03-5.781-18.658-5.781s-3.154,5.781-3.154,5.781
		c0.308,0.847,0.858,1.774,1.564,2.749c0,0-5.643-1.436-8.531-8.53c-2.888-7.096-1.968,5.912,2.5,10.38s18.55,14.088,19.13,12.498
		c0.37,0.604,0.58,1.131,0.58,1.562c0,3.416,6.57,3.153,6.57,3.153s6.57,0.263,6.57-3.153c0-0.431,0.21-0.959,0.579-1.563
		c0.58,1.591,14.663-8.029,19.13-12.497C286.56,318.138,287.479,305.13,284.592,312.226z"/>
	<g>
		<path fill="#CC5502" d="M274.471,315.286c-2.628,0-7.357,5.781-18.658,5.781s-16.03-5.781-18.658-5.781s-3.154,5.781-3.154,5.781
			c2.103,5.781,15.242,15.241,15.242,18.658c0,3.416,6.57,3.153,6.57,3.153s6.57,0.263,6.57-3.153
			c0-3.417,13.14-12.877,15.242-18.658C277.625,321.067,277.099,315.286,274.471,315.286z"/>
		<path fill="#231F20" d="M248.664,338.163c2.891-7.94-0.74-10.258-3.756-13.274c-7.222-7.221-9.342-1.072-9.342-1.072
			s-5.643-1.436-8.531-8.53c-2.888-7.096-1.968,5.912,2.5,10.38S248.084,339.755,248.664,338.163z"/>
		<path fill="#231F20" d="M262.962,338.163c-2.891-7.94,0.74-10.258,3.757-13.274c7.221-7.221,9.342-1.072,9.342-1.072
			s5.644-1.436,8.531-8.53c2.888-7.096,1.968,5.912-2.5,10.38C277.625,330.134,263.541,339.755,262.962,338.163z"/>
	</g>
	<g>
		<g>
			<path opacity="0.6" d="M224.692,251.4c-1.201,6.661,1.233,11.086-14.234,9.885c-6.748-0.523-11.086-7.574-9.886-14.234
				c0.461-2.557-3.25-3.759-1.625-4.996c1.167-0.889,6.577-1.941,8.146-2.238c1.936-0.366,4.981-0.477,7.248-0.068
				C221.001,240.951,225.893,244.74,224.692,251.4z"/>
			<path fill="#F4C738" d="M221.762,251.19c-0.915,5.073-5.769,8.444-10.841,7.529c-5.073-0.914-8.444-5.769-7.529-10.841
				c0.915-5.073,5.414-6.476,10.486-5.561C218.951,243.231,222.677,246.117,221.762,251.19z"/>
		</g>
		<g>
			<path opacity="0.6" d="M286.979,251.4c1.2,6.661-1.233,11.086,14.234,9.885c6.747-0.523,11.086-7.574,9.885-14.234
				c-0.461-2.557,3.25-3.759,1.626-4.996c-1.168-0.889-6.577-1.941-8.146-2.238c-1.937-0.366-4.981-0.477-7.248-0.068
				C290.669,240.951,285.777,244.74,286.979,251.4z"/>
			<path fill="#F4C738" d="M289.908,251.19c0.915,5.073,5.769,8.444,10.842,7.529c5.072-0.914,8.443-5.769,7.528-10.841
				c-0.914-5.073-5.413-6.476-10.486-5.561C292.72,243.231,288.993,246.117,289.908,251.19z"/>
		</g>
	</g>
	<g>
		<path opacity="0.6" d="M168.084,266.297c-5.776-1.274-0.855,5.671-10.081,3.636c-9.105-2.01-0.28-15.999,12.201-13.245
			c12.481,2.753,14.481,19.132,5.495,17.149C166.713,271.854,173.666,267.528,168.084,266.297z"/>
		<path opacity="0.6" d="M168.42,286.182c5.776,1.274,0.856-5.671,10.081-3.636c9.105,2.009,0.28,15.999-12.201,13.244
			c-12.481-2.754-14.481-19.132-5.495-17.148C169.791,280.624,162.838,284.95,168.42,286.182z"/>
		<path opacity="0.6" d="M344.76,226.606c-3.183-4.985-4.615,3.405-9.699-4.558c-5.018-7.859,11.115-11.51,17.993-0.737
			s-3.288,23.768-8.24,16.012S347.836,231.424,344.76,226.606z"/>
		<path opacity="0.6" d="M326.293,227.669c3.183,4.985,4.615-3.405,9.699,4.558c5.018,7.859-11.115,11.51-17.993,0.737
			s3.289-23.768,8.241-16.012S323.217,222.851,326.293,227.669z"/>
		<path opacity="0.6" d="M289.749,168.837c3.183,4.985,4.615-3.405,9.699,4.558c5.018,7.859-11.115,11.51-17.993,0.737
			s3.288-23.768,8.24-16.012S286.673,164.02,289.749,168.837z"/>
		<path opacity="0.6" d="M339.435,321.279c4.336-4.022,3.608,4.457,10.534-1.968c6.836-6.342-7.856-13.939-17.227-5.246
			c-9.37,8.692-2.805,23.829,3.941,17.571C343.43,325.378,335.244,325.166,339.435,321.279z"/>
		<path opacity="0.6" d="M217.805,283.651c4.336-4.022,3.608,4.458,10.535-1.968c6.835-6.341-7.857-13.938-17.227-5.246
			s-2.805,23.83,3.941,17.571C221.8,287.75,213.614,287.539,217.805,283.651z"/>
		<path opacity="0.6" d="M186.279,211.588c3.835,4.503,4.105-4.004,10.231,3.188c6.046,7.099-9.436,12.923-17.723,3.193
			c-8.288-9.73,0.005-23.995,5.972-16.989C190.728,207.985,182.573,207.236,186.279,211.588z"/>
		<path opacity="0.6" d="M200.414,192.957c-5.776-1.274-0.856,5.671-10.081,3.635c-9.105-2.009-0.28-15.998,12.201-13.244
			c12.481,2.754,14.481,19.132,5.495,17.149C199.043,198.514,205.996,194.188,200.414,192.957z"/>
		<circle opacity="0.6" cx="317.189" cy="289.379" r="7.097"/>
		<circle opacity="0.6" cx="286.249" cy="272.521" r="7.096"/>
		<circle opacity="0.6" cx="176.45" cy="321.631" r="7.096"/>
		<circle opacity="0.6" cx="255.813" cy="234.234" r="7.096"/>
		<circle opacity="0.6" cx="231.97" cy="162.863" r="7.096"/>
		<circle opacity="0.6" cx="179.181" cy="239.49" r="7.096"/>
		<circle opacity="0.6" cx="281.97" cy="207.76" r="7.096"/>
		<circle opacity="0.6" cx="312.339" cy="191.888" r="7.096"/>
		<circle opacity="0.6" cx="351.725" cy="283.215" r="7.097"/>
	</g>
	<g>
		<g>
			<path opacity="0.6" d="M162.766,408.601c-3.183-4.985-4.615,3.405-9.699-4.558c-5.018-7.859,11.115-11.511,17.993-0.737
				c6.878,10.772-3.289,23.768-8.241,16.012C157.867,411.561,165.842,413.418,162.766,408.601z"/>
			<path opacity="0.6" d="M144.299,409.662c3.183,4.985,4.615-3.404,9.699,4.559c5.018,7.858-11.115,11.51-17.993,0.737
				c-6.878-10.773,3.289-23.769,8.241-16.012C149.198,406.702,141.223,404.845,144.299,409.662z"/>
			<circle opacity="0.6" cx="122.694" cy="446.169" r="7.096"/>
			<circle opacity="0.6" cx="39.976" cy="344.856" r="7.096"/>
			<circle opacity="0.6" cx="99.976" cy="389.754" r="7.096"/>
			<circle opacity="0.6" cx="130.345" cy="373.882" r="7.096"/>
			<circle opacity="0.6" cx="169.731" cy="465.209" r="7.096"/>
		</g>
		<g>
			<path opacity="0.6" d="M65.905,390.836c-5.776-1.274-0.856,5.671-10.081,3.635c-9.105-2.009-0.28-15.998,12.201-13.244
				s14.481,19.132,5.495,17.149C64.534,396.393,71.486,392.067,65.905,390.836z"/>
			<path opacity="0.6" d="M66.306,283.473c-3.183-4.985-4.615,3.404-9.699-4.559c-5.018-7.858,11.115-11.51,17.993-0.737
				c6.878,10.773-3.289,23.769-8.241,16.012C61.407,286.433,69.382,288.29,66.306,283.473z"/>
			<path opacity="0.6" d="M47.839,284.534c3.183,4.985,4.615-3.405,9.699,4.558c5.018,7.859-11.115,11.511-17.993,0.737
				c-6.878-10.772,3.289-23.768,8.241-16.012C52.738,281.574,44.763,279.717,47.839,284.534z"/>
			<path opacity="0.6" d="M24.233,310.68c3.183,4.985,4.615-3.404,9.699,4.559c5.018,7.858-11.115,11.51-17.993,0.737
				c-6.878-10.773,3.289-23.769,8.241-16.012C29.133,307.72,21.158,305.862,24.233,310.68z"/>
			<path opacity="0.6" d="M92.411,428.229c4.336-4.022,3.608,4.458,10.534-1.968c6.836-6.341-7.856-13.939-17.227-5.246
				c-9.37,8.692-2.805,23.83,3.941,17.571C96.406,432.327,88.221,432.116,92.411,428.229z"/>
			<path opacity="0.6" d="M119.942,334.313c3.835,4.503,4.106-4.004,10.231,3.188c6.046,7.099-9.436,12.923-17.723,3.192
				c-8.288-9.73,0.005-23.995,5.973-16.989C124.391,330.711,116.236,329.963,119.942,334.313z"/>
			<path opacity="0.6" d="M134.077,315.684c-5.776-1.274-0.856,5.671-10.081,3.635c-9.105-2.009-0.28-15.998,12.201-13.244
				c12.481,2.754,14.481,19.132,5.495,17.149C132.706,321.24,139.659,316.915,134.077,315.684z"/>
			<circle opacity="0.6" cx="129.791" cy="287.401" r="7.096"/>
			<circle opacity="0.6" cx="99.976" cy="280.306" r="7.096"/>
			<circle opacity="0.6" cx="9.976" cy="280.754" r="7.096"/>
			<circle opacity="0.6" cx="76.915" cy="320.306" r="7.096"/>
			<circle opacity="0.6" cx="79.731" cy="356.209" r="7.096"/>
		</g>
	</g>
</g>
</svg>
