<?xml version="1.0" encoding="utf-8"?>
<!-- Generator: Adobe Illustrator 16.0.0, SVG Export Plug-In . SVG Version: 6.00 Build 0)  -->
<!DOCTYPE svg PUBLIC "-//W3C//DTD SVG 1.1//EN" "http://www.w3.org/Graphics/SVG/1.1/DTD/svg11.dtd">
<svg version="1.1" id="Squirrel_1_" xmlns="http://www.w3.org/2000/svg" xmlns:xlink="http://www.w3.org/1999/xlink" x="0px"
	 y="0px" width="512px" height="512px" viewBox="0 0 512 512" enable-background="new 0 0 512 512" xml:space="preserve">
<circle id="Background_32_" fill="#1BA555" cx="256" cy="256" r="256"/>
<path id="Shadow" opacity="0.1" d="M511.452,272.567L357.329,118.446l-25.784,15.221v161.922L290.956,255l0.701,4.468
	l-110.271-110.27l-65.737,79.789l52.407,52.408l-29.677,10.884l81.238,81.237l-44.667,5.337l128.702,128.701
	C416.984,486.216,503.936,390.201,511.452,272.567z"/>
<g id="Squirrel">
	<path fill="#E39347" d="M383.42,234.611c-8.619-15.957-28.42-41.465-34.297-65.087s9.321-39.774,8.206-51.079
		c-1.114-11.305-6.057,6.833-31.681,6.833c-17.678,0-67.712,12.89-70.197,62.742c-2.485,49.852,73.302,69.885,73.302,129.21
		c-1.242,13.046-11.803,21.742-17.083-12.424c-10.092-65.301-46.37-62.953-62.121-69.886c-15.751-6.933-26.712-12.424-34.788-32.924
		c-8.076-20.5-20.5-30.75-28.576-45.348c-8.076-14.599-12.735-12.045-12.735-12.045c-8.697,4.349-1.553,16.083-22.053,23.538
		c-20.5,7.455-19.439,27.152-26.401,31.061c-6.962,3.908-13.045,7.797-13.045,19.878c0,14.154,13.795,16.321,25.159,19.257
		c11.364,2.937,30.439,2.485,33.545,20.189c3.106,17.705-2.462,61.223,21.121,88.212c29.042,33.234-17.083,4.038-17.083,30.439
		c0,15.374,55.176,3.413,80.236,3.261s55.809-0.311,78.172-8.541c22.363-8.231,45.027-39.29,56.708-72.706
		C398.577,274.111,392.039,250.568,383.42,234.611z"/>
	<g opacity="0.5">
		<path fill="#FFFFFF" d="M307.353,200.829c13.546,40.096,88.77,48.105,68.735,128.197c5.408-9.309,10.096-19.457,13.723-29.833
			c8.767-25.081,2.229-48.624-6.391-64.581s-28.42-41.465-34.297-65.087c-5.405-21.726,7.008-37.129,8.169-48.258
			C334.219,126.882,293.807,160.733,307.353,200.829z"/>
	</g>
	<g opacity="0.2">
		<path fill="#FFFFFF" d="M383.42,234.611c-8.619-15.957-28.42-41.465-34.297-65.087c-5.405-21.726,7.008-37.129,8.169-48.258
			c-1.573,0.383-3.196,0.829-4.852,1.33c-1.396,11.511-18.336,27.372-12.992,49.65c5.878,24.5,30.563,50.957,39.183,67.507
			c8.619,16.55,15.157,40.969,6.39,66.982c-2.504,7.429-5.542,14.724-8.944,21.719c0.002,0.192,0.012,0.379,0.012,0.571
			c5.408-9.309,10.096-19.457,13.723-29.833C398.577,274.111,392.039,250.568,383.42,234.611z"/>
	</g>
	<g opacity="0.1">
		<path d="M334.427,365.841c-22.732,8.231-53.989,8.39-79.463,8.542c-23.064,0.138-71.22,9.954-80.125,0.399
			c-0.093,0.743-0.144,1.539-0.144,2.396c0,15.374,55.176,3.413,80.236,3.261s55.809-0.311,78.172-8.541
			c22.363-8.231,45.027-39.29,56.708-72.706c0.047-0.136,0.087-0.271,0.133-0.405C377.583,329.996,355.871,358.076,334.427,365.841z
			"/>
	</g>
	<path opacity="0.1" d="M214.763,201.998c8.076,20.5,19.037,25.991,34.788,32.924c15.75,6.933,52.029,4.585,62.121,69.886
		c4.984,32.251,14.669,26.307,16.785,14.567c0.271,1.444,0.392,2.702,0.298,3.688c-1.242,13.045-15.572,21.742-20.853-12.424
		c-10.092-65.301-42.601-62.954-58.351-69.886c-15.751-6.933-24.1-18.699-26.571-23.058S214.763,201.998,214.763,201.998z"/>
	<path opacity="0.8" fill="#FFFFFF" d="M168.291,251.785c1.086,1.897,1.906,4.116,2.366,6.742
		c3.106,17.705-2.462,61.223,21.121,88.212c6.382,7.304,9.131,12.123,9.539,15.361c0,0,16.552-15.051,11.583-49.217
		C207.929,278.717,168.292,251.786,168.291,251.785z"/>
	<g opacity="0.1">
		<path d="M202.609,298.461c26.511-8.696,13.121-34.166-1.287-37.894c-9.645-2.495-20.835,7.254-29.43,13.975
			c0.315,7.739,0.648,16.742,1.833,26.073C179.492,302.645,187.787,303.323,202.609,298.461z"/>
	</g>
	<path fill="#E39347" d="M204.583,257.307c-14.408-3.728-32.274,19.878-39.766,19.878c-7.492,0-12.986-1.863-23.936,6.212
		c-10.95,8.076,2.831,12.756,9.625,13.046s7.981-7.124,15.598-4.349s13.255,11.803,39.766,3.106
		C232.381,286.503,218.991,261.033,204.583,257.307z"/>
	<circle fill="#231F20" cx="149.112" cy="194" r="5.587"/>
</g>
</svg>
