<?xml version="1.0" encoding="utf-8"?>
<!-- Generator: Adobe Illustrator 16.0.0, SVG Export Plug-In . SVG Version: 6.00 Build 0)  -->
<!DOCTYPE svg PUBLIC "-//W3C//DTD SVG 1.1//EN" "http://www.w3.org/Graphics/SVG/1.1/DTD/svg11.dtd">
<svg version="1.1" id="Swan_1_" xmlns="http://www.w3.org/2000/svg" xmlns:xlink="http://www.w3.org/1999/xlink" x="0px" y="0px"
	 width="512px" height="512px" viewBox="0 0 512 512" enable-background="new 0 0 512 512" xml:space="preserve">
<circle id="Background_24_" fill="#8DD2EF" cx="256" cy="256" r="256"/>
<path id="Shadow" opacity="0.1" d="M510.303,285.458l-63.521-63.521l-113.15,114.687L169.833,172.824H95.556l-25.852,79.224
	l78.405,78.405l-8.824,14.259l163.088,163.087C412.154,487.711,497.452,397.602,510.303,285.458z"/>
<g id="Swan">
	<path fill="#FDFEF9" d="M444.38,221.977c-8.213,1.599-32.369,38.911-41.549,38.911s-39.616-28.25-119.332-21.321
		c-79.716,6.929-103.782,67.517-113.051,62.364c-9.27-5.152,10.146-52.77,10.628-87.949c0.483-35.18-19.808-66.629-65.705-66.096
		c-45.897,0.533-45.968,37.845-45.414,50.638c0.554,12.792,5.405,7.995,19.003,8.706s30.85-46.907,53.466-22.743
		c22.617,24.164,0,68.228-9.663,90.259c-9.662,22.032-14.745,51.171,10.307,73.914c25.052,22.742,210.411,17.501,235.604,2.843
		s33.818-41.576,44.447-60.232s20.774-22.388,17.876-33.581C438.099,246.496,452.593,220.377,444.38,221.977z"/>
	<path opacity="0.1" d="M142.426,178.82c-22.616-24.164-39.868,23.453-53.466,22.743v5.667c13.598,0.711,30.85-46.907,53.466-22.743
		c6.435,6.875,9.204,15.361,9.656,24.492C152.613,197.714,150.175,187.099,142.426,178.82z"/>
	<path opacity="0.1" d="M382.981,345.063c-25.388,14.771-212.171,20.053-237.416-2.865c-20.858-18.935-20.979-42.267-14.902-62.327
		c-8.155,21.287-10.749,47.768,12.406,68.789c25.052,22.742,210.411,17.501,235.604,2.843c11.93-6.941,20.121-16.639,26.593-26.898
		C399.494,332.418,392.387,339.591,382.981,345.063z"/>
	<path fill="#332D2F" d="M68.976,197.99c2.871-2.477,7.73-4.264,11.917-7.818C85.08,186.619,92.166,177.38,92.81,182
		s-4.509,3.198-3.865,8.884c0.645,5.686,4.299,13.148,3.921,15.28c-0.378,2.132-10.362,29.85-13.261,38.733
		s-10.995,9.311-13.205,4.975c-2.899-5.686,5.475-22.032,4.831-27.718s-3.157-5.686-5.443-9.95S67.248,199.481,68.976,197.99z"/>
	<path fill="#E5553D" d="M71.664,217.535c1.867,9.772-3.543,17.057-4.187,23.454c-0.644,6.396,6.441,13.858,11.917,0
		c5.476-13.859,15.138-34.114,9.34-36.957c-5.797-2.843-10.811-3.553-9.754,2.487c1.058,6.041,3.452,11.727,0,15.636
		C75.529,226.063,75.946,214.248,71.664,217.535z"/>
	<path opacity="0.2" d="M355.072,309.571c0-4.62,24.479-7.107,24.801-14.214c0.321-7.107,0.321-8.174,4.831-9.239
		c4.509-1.066,12.239-2.843,15.138-7.818c2.898-4.975,3.221,1.422-4.509,7.463c-7.73,6.041-11.595,3.192-12.239,11.546
		S355.072,314.19,355.072,309.571z"/>
</g>
</svg>
